{"glyphs":{"0":{"ha":915,"x_min":26,"x_max":863,"o":"m 553 740 q 780 671 697 740 q 863 482 863 601 q 821 299 863 389 q 706 138 779 210 q 538 23 633 65 q 336 -19 443 -19 q 110 50 194 -19 q 26 239 26 119 q 68 422 26 333 q 183 583 110 511 q 351 698 256 656 q 553 740 446 740 m 533 715 q 426 669 474 715 q 346 546 379 622 q 296 379 313 469 q 279 201 279 289 q 302 52 279 99 q 356 6 325 6 q 463 53 415 6 q 542 176 510 100 q 592 343 575 253 q 610 519 610 433 q 588 669 610 622 q 533 715 565 715 z "},"1":{"ha":543,"x_min":56,"x_max":522,"o":"m 522 736 l 301 0 l 56 0 l 228 576 q 155 558 193 567 q 58 536 117 549 l 63 565 q 253 619 174 590 q 390 678 332 647 q 494 736 447 708 l 522 736 z "},"2":{"ha":772,"x_min":-37,"x_max":701,"o":"m 456 740 q 636 699 571 740 q 701 589 701 657 q 668 495 701 539 q 582 414 635 451 q 467 342 529 376 q 347 278 406 308 q 246 218 289 247 q 312 208 276 218 q 388 189 347 199 q 474 179 429 179 q 569 196 531 179 q 608 246 608 213 q 564 307 608 282 l 578 325 q 638 272 621 301 q 656 201 656 242 q 631 103 656 151 q 552 23 606 54 q 411 -8 499 -8 q 321 1 365 -8 q 230 22 276 11 q 129 33 183 32 q 40 27 74 36 q -37 0 6 18 l -31 29 q 40 83 -6 50 q 140 160 85 117 q 252 255 196 204 q 356 361 308 306 q 432 474 403 417 q 461 589 461 532 q 432 671 461 646 q 356 696 403 696 q 270 678 313 696 q 193 630 228 660 q 138 563 158 600 q 117 486 117 525 q 135 436 117 453 q 196 419 153 419 q 265 434 236 419 q 325 476 293 449 l 342 457 q 263 406 303 421 q 188 390 222 390 q 141 398 165 390 q 100 426 117 406 q 83 485 83 446 q 110 576 83 531 q 185 658 136 621 q 302 718 233 696 q 456 740 371 740 z "},"3":{"ha":749,"x_min":-126,"x_max":690,"o":"m 436 740 q 622 701 554 740 q 690 600 690 663 q 658 509 690 550 q 575 436 626 468 q 464 382 524 404 q 347 347 404 360 q 497 328 431 346 q 601 272 563 311 q 639 168 639 233 q 589 42 639 100 q 456 -62 539 -17 q 273 -141 374 -108 q 68 -191 172 -174 q -126 -210 -36 -208 l -119 -185 q 49 -153 -39 -179 q 214 -78 138 -126 q 338 38 290 -31 q 385 199 385 107 q 369 288 385 254 q 322 325 353 322 q 280 308 300 315 q 242 301 260 301 q 222 306 231 301 q 218 322 214 310 q 249 346 222 342 q 311 347 275 350 q 388 397 354 367 q 441 467 421 426 q 461 557 461 507 q 425 649 461 615 q 321 682 389 682 q 248 669 283 682 q 185 633 213 656 q 140 584 157 611 q 124 528 124 557 q 142 478 124 494 q 204 461 161 461 q 290 482 251 461 l 306 461 q 248 439 276 446 q 194 432 219 432 q 148 440 172 432 q 107 467 124 447 q 90 526 90 488 q 136 626 90 578 q 260 708 182 675 q 436 740 339 740 z "},"4":{"ha":763,"x_min":-86,"x_max":671,"o":"m 628 740 l 636 710 l -54 89 l -57 104 l 671 104 l 663 75 l -86 75 l -78 104 l 628 740 m 664 740 l 413 -196 l 167 -196 l 347 471 l 628 740 l 664 740 z "},"5":{"ha":667,"x_min":-129,"x_max":622,"o":"m 606 747 l 622 738 q 531 576 586 636 q 404 515 476 515 q 335 529 372 515 q 263 556 297 543 q 199 564 228 568 l 88 313 q 190 350 132 338 q 315 363 247 363 q 509 318 449 363 q 569 193 569 274 q 524 56 569 118 q 402 -53 478 -6 q 234 -135 326 -101 q 47 -185 142 -168 q -129 -206 -47 -203 l -122 -181 q 24 -156 -51 -181 q 165 -83 100 -131 q 272 34 231 -35 q 313 190 313 103 q 286 286 313 251 q 193 321 260 321 q 143 315 174 321 q 68 283 113 308 l 54 290 l 236 719 q 313 713 276 722 q 386 694 349 704 q 468 685 424 685 q 547 698 514 685 q 606 747 581 711 z "},"6":{"ha":824,"x_min":31,"x_max":786,"o":"m 778 1003 l 786 975 q 644 907 715 954 q 508 788 572 860 q 392 622 443 717 q 311 410 340 526 q 282 157 282 293 q 296 38 282 68 q 336 8 310 8 q 409 50 375 8 q 468 156 443 92 q 507 290 493 219 q 521 415 521 360 q 504 503 521 481 q 467 526 488 526 q 413 497 440 526 q 365 400 385 468 l 342 407 q 394 525 361 481 q 469 589 426 569 q 565 608 513 608 q 716 556 656 608 q 776 397 776 503 q 739 242 776 317 q 635 108 701 167 q 481 15 568 49 q 293 -19 393 -19 q 101 42 171 -19 q 31 240 31 103 q 81 468 31 360 q 213 668 131 576 q 393 830 294 760 q 592 944 492 900 q 778 1003 693 989 z "},"7":{"ha":714,"x_min":53,"x_max":806,"o":"m 285 728 q 400 713 347 728 q 509 683 453 699 q 636 667 565 668 q 706 674 672 665 q 765 719 739 683 l 806 719 q 666 563 726 632 q 560 434 606 494 q 481 313 515 374 q 422 180 447 251 q 372 17 396 108 q 358 -45 361 -28 q 354 -69 354 -62 q 350 -93 354 -76 q 303 -173 340 -140 q 200 -206 267 -206 q 119 -181 143 -206 q 92 -119 94 -157 q 100 -44 90 -82 q 176 111 121 32 q 307 268 232 190 q 464 420 382 346 q 622 561 546 494 q 751 683 697 628 q 762 685 751 683 q 772 686 772 686 q 649 608 700 643 q 557 547 597 572 q 481 508 517 522 q 401 494 444 494 q 327 506 358 494 q 267 529 296 518 q 203 540 239 540 q 140 523 167 540 q 114 465 114 506 q 156 384 114 415 q 265 338 197 353 l 258 314 q 110 381 167 333 q 53 517 53 428 q 76 617 53 568 q 150 697 99 665 q 285 728 201 728 z "},"8":{"ha":826,"x_min":-15,"x_max":856,"o":"m 600 1003 q 730 987 672 1003 q 822 938 788 971 q 856 853 856 904 q 822 758 856 803 q 735 676 789 714 q 622 608 682 639 q 508 556 563 578 l 503 561 q 561 640 535 592 q 603 746 588 688 q 618 867 618 804 q 560 978 618 978 q 497 949 528 978 q 448 876 467 921 q 429 783 429 832 q 460 671 429 718 q 535 585 490 624 q 624 507 579 546 q 699 420 668 468 q 729 306 729 372 q 692 176 729 236 q 590 73 654 117 q 445 5 526 29 q 276 -19 364 -19 q 132 0 199 -19 q 25 60 65 19 q -15 164 -15 100 q 19 273 -15 222 q 113 367 54 324 q 242 446 171 411 q 386 506 314 481 l 392 500 q 312 412 349 467 q 253 288 275 357 q 232 140 232 218 q 249 43 232 81 q 314 6 267 6 q 402 39 360 6 q 471 126 444 72 q 497 239 497 179 q 468 356 497 307 q 397 446 439 406 q 312 526 354 486 q 240 613 269 567 q 211 724 211 660 q 243 838 211 786 q 329 926 275 889 q 453 983 383 963 q 600 1003 524 1003 z "},"9":{"ha":808,"x_min":17,"x_max":763,"o":"m 500 740 q 693 679 624 740 q 763 481 763 618 q 714 260 763 365 q 585 66 665 156 q 407 -92 504 -24 q 211 -205 310 -161 q 29 -261 113 -249 l 21 -233 q 159 -167 89 -214 q 292 -50 229 -121 q 404 114 354 21 q 483 320 454 207 q 511 564 511 433 q 498 683 511 653 q 457 713 485 713 q 384 671 418 713 q 325 565 350 629 q 286 432 300 501 q 272 306 272 363 q 289 218 272 242 q 326 194 306 194 q 381 224 353 194 q 428 321 410 253 l 451 314 q 400 196 432 240 q 324 132 368 151 q 228 113 281 113 q 78 165 139 113 q 17 324 17 218 q 54 480 17 406 q 158 613 92 554 q 313 706 225 672 q 500 740 400 740 z "},"A":{"ha":929,"x_min":-133,"x_max":836,"o":"m 65 182 q 32 97 28 129 q 72 48 36 64 q 160 28 107 32 l 154 0 q 39 3 82 3 q -43 4 -4 4 q -92 3 -72 4 q -133 0 -111 3 l -128 28 q -77 53 -100 36 q -26 103 -54 69 q 42 193 1 138 l 608 990 q 662 988 633 988 q 713 990 690 988 l 768 117 q 794 48 772 67 q 836 28 815 29 l 831 0 q 722 3 790 3 q 596 4 654 4 q 461 3 525 4 q 360 0 397 3 l 365 28 q 460 52 432 31 q 485 144 489 74 l 453 753 l 526 833 l 65 182 m 207 400 l 613 400 l 601 372 l 182 372 l 207 400 z "},"Á":{"ha":929,"x_min":-133,"x_max":1068,"o":"m 65 182 q 32 97 28 129 q 72 48 36 64 q 160 28 107 32 l 154 0 q 39 3 82 3 q -43 4 -4 4 q -92 3 -72 4 q -133 0 -111 3 l -128 28 q -77 53 -100 36 q -26 103 -54 69 q 42 193 1 138 l 608 990 q 662 988 633 988 q 713 990 690 988 l 768 117 q 794 48 772 67 q 836 28 815 29 l 831 0 q 722 3 790 3 q 596 4 654 4 q 461 3 525 4 q 360 0 397 3 l 365 28 q 460 52 432 31 q 485 144 489 74 l 453 753 l 526 833 l 65 182 m 207 400 l 613 400 l 601 372 l 182 372 l 207 400 m 639 1089 q 747 1194 706 1147 q 823 1275 789 1240 q 897 1331 857 1310 q 949 1346 921 1343 q 1005 1338 978 1349 q 1047 1299 1032 1328 q 1048 1226 1068 1260 q 985 1169 1028 1193 q 901 1138 949 1150 q 792 1113 854 1126 q 649 1072 731 1099 l 639 1089 z "},"Ă":{"ha":929,"x_min":-133,"x_max":1028,"o":"m 65 182 q 32 97 28 129 q 72 48 36 64 q 160 28 107 32 l 154 0 q 39 3 82 3 q -43 4 -4 4 q -92 3 -72 4 q -133 0 -111 3 l -128 28 q -77 53 -100 36 q -26 103 -54 69 q 42 193 1 138 l 608 990 q 662 988 633 988 q 713 990 690 988 l 768 117 q 794 48 772 67 q 836 28 815 29 l 831 0 q 722 3 790 3 q 596 4 654 4 q 461 3 525 4 q 360 0 397 3 l 365 28 q 460 52 432 31 q 485 144 489 74 l 453 753 l 526 833 l 65 182 m 207 400 l 613 400 l 601 372 l 182 372 l 207 400 m 688 1225 q 867 1244 789 1225 q 1011 1303 944 1264 l 1028 1290 q 934 1178 992 1231 q 806 1092 876 1125 q 658 1060 735 1060 q 544 1090 590 1060 q 469 1172 497 1121 q 431 1286 442 1224 l 451 1297 q 549 1243 494 1261 q 688 1225 603 1225 z "},"Ắ":{"ha":929,"x_min":-133,"x_max":1129,"o":"m 65 182 q 32 97 28 129 q 72 48 36 64 q 160 28 107 32 l 154 0 q 39 3 82 3 q -43 4 -4 4 q -92 3 -72 4 q -133 0 -111 3 l -128 28 q -77 53 -100 36 q -26 103 -54 69 q 42 193 1 138 l 608 990 q 662 988 633 988 q 713 990 690 988 l 768 117 q 794 48 772 67 q 836 28 815 29 l 831 0 q 722 3 790 3 q 596 4 654 4 q 461 3 525 4 q 360 0 397 3 l 365 28 q 460 52 432 31 q 485 144 489 74 l 453 753 l 526 833 l 65 182 m 207 400 l 613 400 l 601 372 l 182 372 l 207 400 m 688 1225 q 867 1244 789 1225 q 1011 1303 944 1264 l 1028 1290 q 934 1178 992 1231 q 806 1092 876 1125 q 658 1060 735 1060 q 544 1090 590 1060 q 469 1172 497 1121 q 431 1286 442 1224 l 451 1297 q 549 1243 494 1261 q 688 1225 603 1225 m 700 1331 q 808 1435 767 1389 q 884 1517 850 1482 q 958 1572 918 1551 q 1010 1588 982 1585 q 1066 1580 1039 1590 q 1108 1540 1093 1569 q 1109 1468 1129 1501 q 1046 1411 1089 1435 q 963 1380 1010 1392 q 853 1354 915 1368 q 710 1314 792 1340 l 700 1331 z "},"Ặ":{"ha":929,"x_min":-133,"x_max":1028,"o":"m 65 182 q 32 97 28 129 q 72 48 36 64 q 160 28 107 32 l 154 0 q 39 3 82 3 q -43 4 -4 4 q -92 3 -72 4 q -133 0 -111 3 l -128 28 q -77 53 -100 36 q -26 103 -54 69 q 42 193 1 138 l 608 990 q 662 988 633 988 q 713 990 690 988 l 768 117 q 794 48 772 67 q 836 28 815 29 l 831 0 q 722 3 790 3 q 596 4 654 4 q 461 3 525 4 q 360 0 397 3 l 365 28 q 460 52 432 31 q 485 144 489 74 l 453 753 l 526 833 l 65 182 m 207 400 l 613 400 l 601 372 l 182 372 l 207 400 m 688 1225 q 867 1244 789 1225 q 1011 1303 944 1264 l 1028 1290 q 934 1178 992 1231 q 806 1092 876 1125 q 658 1060 735 1060 q 544 1090 590 1060 q 469 1172 497 1121 q 431 1286 442 1224 l 451 1297 q 549 1243 494 1261 q 688 1225 603 1225 m 304 -265 q 228 -246 254 -265 q 201 -187 201 -226 q 239 -95 201 -128 q 342 -62 276 -62 q 418 -82 392 -62 q 444 -140 444 -101 q 407 -233 444 -200 q 304 -265 369 -265 z "},"Ằ":{"ha":929,"x_min":-133,"x_max":1028,"o":"m 65 182 q 32 97 28 129 q 72 48 36 64 q 160 28 107 32 l 154 0 q 39 3 82 3 q -43 4 -4 4 q -92 3 -72 4 q -133 0 -111 3 l -128 28 q -77 53 -100 36 q -26 103 -54 69 q 42 193 1 138 l 608 990 q 662 988 633 988 q 713 990 690 988 l 768 117 q 794 48 772 67 q 836 28 815 29 l 831 0 q 722 3 790 3 q 596 4 654 4 q 461 3 525 4 q 360 0 397 3 l 365 28 q 460 52 432 31 q 485 144 489 74 l 453 753 l 526 833 l 65 182 m 207 400 l 613 400 l 601 372 l 182 372 l 207 400 m 688 1225 q 867 1244 789 1225 q 1011 1303 944 1264 l 1028 1290 q 934 1178 992 1231 q 806 1092 876 1125 q 658 1060 735 1060 q 544 1090 590 1060 q 469 1172 497 1121 q 431 1286 442 1224 l 451 1297 q 549 1243 494 1261 q 688 1225 603 1225 m 803 1314 q 668 1348 722 1339 q 577 1363 614 1357 q 508 1385 540 1368 q 460 1437 474 1403 q 463 1504 446 1471 q 522 1552 482 1543 q 593 1546 563 1561 q 651 1502 628 1531 q 710 1431 675 1474 q 813 1331 746 1389 l 803 1314 z "},"Ẳ":{"ha":929,"x_min":-133,"x_max":1028,"o":"m 65 182 q 32 97 28 129 q 72 48 36 64 q 160 28 107 32 l 154 0 q 39 3 82 3 q -43 4 -4 4 q -92 3 -72 4 q -133 0 -111 3 l -128 28 q -77 53 -100 36 q -26 103 -54 69 q 42 193 1 138 l 608 990 q 662 988 633 988 q 713 990 690 988 l 768 117 q 794 48 772 67 q 836 28 815 29 l 831 0 q 722 3 790 3 q 596 4 654 4 q 461 3 525 4 q 360 0 397 3 l 365 28 q 460 52 432 31 q 485 144 489 74 l 453 753 l 526 833 l 65 182 m 207 400 l 613 400 l 601 372 l 182 372 l 207 400 m 688 1225 q 867 1244 789 1225 q 1011 1303 944 1264 l 1028 1290 q 934 1178 992 1231 q 806 1092 876 1125 q 658 1060 735 1060 q 544 1090 590 1060 q 469 1172 497 1121 q 431 1286 442 1224 l 451 1297 q 549 1243 494 1261 q 688 1225 603 1225 m 717 1338 q 743 1405 724 1381 q 784 1447 763 1429 q 821 1487 806 1464 q 836 1551 836 1510 q 813 1620 836 1600 q 749 1640 789 1640 q 710 1636 726 1640 q 686 1628 693 1632 q 728 1599 713 1618 q 744 1550 744 1579 q 716 1488 744 1511 q 649 1464 688 1464 q 593 1483 614 1464 q 572 1535 572 1503 q 597 1594 572 1569 q 656 1636 621 1619 q 728 1660 689 1651 q 814 1668 768 1668 q 940 1642 892 1668 q 988 1560 988 1617 q 965 1497 988 1519 q 909 1462 943 1475 q 840 1435 875 1449 q 778 1400 804 1422 q 744 1338 751 1378 l 717 1338 z "},"Ẵ":{"ha":929,"x_min":-133,"x_max":1103,"o":"m 65 182 q 32 97 28 129 q 72 48 36 64 q 160 28 107 32 l 154 0 q 39 3 82 3 q -43 4 -4 4 q -92 3 -72 4 q -133 0 -111 3 l -128 28 q -77 53 -100 36 q -26 103 -54 69 q 42 193 1 138 l 608 990 q 662 988 633 988 q 713 990 690 988 l 768 117 q 794 48 772 67 q 836 28 815 29 l 831 0 q 722 3 790 3 q 596 4 654 4 q 461 3 525 4 q 360 0 397 3 l 365 28 q 460 52 432 31 q 485 144 489 74 l 453 753 l 526 833 l 65 182 m 207 400 l 613 400 l 601 372 l 182 372 l 207 400 m 688 1225 q 867 1244 789 1225 q 1011 1303 944 1264 l 1028 1290 q 934 1178 992 1231 q 806 1092 876 1125 q 658 1060 735 1060 q 544 1090 590 1060 q 469 1172 497 1121 q 431 1286 442 1224 l 451 1297 q 549 1243 494 1261 q 688 1225 603 1225 m 685 1558 q 775 1543 739 1558 q 839 1508 811 1528 q 895 1472 867 1488 q 964 1457 924 1457 q 1024 1476 996 1457 q 1078 1538 1051 1494 l 1103 1531 q 985 1357 1058 1410 q 839 1304 913 1304 q 749 1319 785 1304 q 685 1355 713 1335 q 628 1390 657 1375 q 560 1406 600 1406 q 501 1388 528 1406 q 446 1325 474 1369 l 421 1332 q 538 1506 465 1453 q 685 1558 611 1558 z "},"Ǎ":{"ha":929,"x_min":-133,"x_max":1096,"o":"m 65 182 q 32 97 28 129 q 72 48 36 64 q 160 28 107 32 l 154 0 q 39 3 82 3 q -43 4 -4 4 q -92 3 -72 4 q -133 0 -111 3 l -128 28 q -77 53 -100 36 q -26 103 -54 69 q 42 193 1 138 l 608 990 q 662 988 633 988 q 713 990 690 988 l 768 117 q 794 48 772 67 q 836 28 815 29 l 831 0 q 722 3 790 3 q 596 4 654 4 q 461 3 525 4 q 360 0 397 3 l 365 28 q 460 52 432 31 q 485 144 489 74 l 453 753 l 526 833 l 65 182 m 207 400 l 613 400 l 601 372 l 182 372 l 207 400 m 776 1239 q 921 1281 842 1261 q 1089 1314 1000 1300 l 1096 1294 q 860 1190 969 1256 q 686 1056 751 1125 l 661 1056 q 592 1194 635 1138 q 468 1294 550 1250 l 474 1314 q 596 1291 543 1303 q 692 1267 649 1279 q 776 1239 736 1254 z "},"Â":{"ha":929,"x_min":-133,"x_max":971,"o":"m 65 182 q 32 97 28 129 q 72 48 36 64 q 160 28 107 32 l 154 0 q 39 3 82 3 q -43 4 -4 4 q -92 3 -72 4 q -133 0 -111 3 l -128 28 q -77 53 -100 36 q -26 103 -54 69 q 42 193 1 138 l 608 990 q 662 988 633 988 q 713 990 690 988 l 768 117 q 794 48 772 67 q 836 28 815 29 l 831 0 q 722 3 790 3 q 596 4 654 4 q 461 3 525 4 q 360 0 397 3 l 365 28 q 460 52 432 31 q 485 144 489 74 l 453 753 l 526 833 l 65 182 m 207 400 l 613 400 l 601 372 l 182 372 l 207 400 m 663 1144 q 519 1103 599 1122 q 350 1069 439 1085 l 343 1089 q 578 1194 469 1129 q 753 1328 688 1258 l 778 1328 q 847 1190 804 1247 q 971 1089 889 1133 l 965 1069 q 843 1092 896 1081 q 747 1117 790 1104 q 663 1144 704 1129 z "},"Ấ":{"ha":929,"x_min":-133,"x_max":1144,"o":"m 65 182 q 32 97 28 129 q 72 48 36 64 q 160 28 107 32 l 154 0 q 39 3 82 3 q -43 4 -4 4 q -92 3 -72 4 q -133 0 -111 3 l -128 28 q -77 53 -100 36 q -26 103 -54 69 q 42 193 1 138 l 608 990 q 662 988 633 988 q 713 990 690 988 l 768 117 q 794 48 772 67 q 836 28 815 29 l 831 0 q 722 3 790 3 q 596 4 654 4 q 461 3 525 4 q 360 0 397 3 l 365 28 q 460 52 432 31 q 485 144 489 74 l 453 753 l 526 833 l 65 182 m 207 400 l 613 400 l 601 372 l 182 372 l 207 400 m 663 1144 q 519 1103 599 1122 q 350 1069 439 1085 l 343 1089 q 578 1194 469 1129 q 753 1328 688 1258 l 778 1328 q 847 1190 804 1247 q 971 1089 889 1133 l 965 1069 q 843 1092 896 1081 q 747 1117 790 1104 q 663 1144 704 1129 m 715 1394 q 824 1499 782 1453 q 899 1581 865 1546 q 974 1636 933 1615 q 1026 1651 997 1649 q 1081 1644 1054 1654 q 1124 1604 1108 1633 q 1124 1532 1144 1565 q 1061 1475 1104 1499 q 978 1444 1025 1456 q 869 1418 931 1432 q 725 1378 807 1404 l 715 1394 z "},"Ậ":{"ha":929,"x_min":-133,"x_max":971,"o":"m 65 182 q 32 97 28 129 q 72 48 36 64 q 160 28 107 32 l 154 0 q 39 3 82 3 q -43 4 -4 4 q -92 3 -72 4 q -133 0 -111 3 l -128 28 q -77 53 -100 36 q -26 103 -54 69 q 42 193 1 138 l 608 990 q 662 988 633 988 q 713 990 690 988 l 768 117 q 794 48 772 67 q 836 28 815 29 l 831 0 q 722 3 790 3 q 596 4 654 4 q 461 3 525 4 q 360 0 397 3 l 365 28 q 460 52 432 31 q 485 144 489 74 l 453 753 l 526 833 l 65 182 m 207 400 l 613 400 l 601 372 l 182 372 l 207 400 m 663 1144 q 519 1103 599 1122 q 350 1069 439 1085 l 343 1089 q 578 1194 469 1129 q 753 1328 688 1258 l 778 1328 q 847 1190 804 1247 q 971 1089 889 1133 l 965 1069 q 843 1092 896 1081 q 747 1117 790 1104 q 663 1144 704 1129 m 304 -265 q 228 -246 254 -265 q 201 -187 201 -226 q 239 -95 201 -128 q 342 -62 276 -62 q 418 -82 392 -62 q 444 -140 444 -101 q 407 -233 444 -200 q 304 -265 369 -265 z "},"Ầ":{"ha":929,"x_min":-133,"x_max":971,"o":"m 65 182 q 32 97 28 129 q 72 48 36 64 q 160 28 107 32 l 154 0 q 39 3 82 3 q -43 4 -4 4 q -92 3 -72 4 q -133 0 -111 3 l -128 28 q -77 53 -100 36 q -26 103 -54 69 q 42 193 1 138 l 608 990 q 662 988 633 988 q 713 990 690 988 l 768 117 q 794 48 772 67 q 836 28 815 29 l 831 0 q 722 3 790 3 q 596 4 654 4 q 461 3 525 4 q 360 0 397 3 l 365 28 q 460 52 432 31 q 485 144 489 74 l 453 753 l 526 833 l 65 182 m 207 400 l 613 400 l 601 372 l 182 372 l 207 400 m 663 1144 q 519 1103 599 1122 q 350 1069 439 1085 l 343 1089 q 578 1194 469 1129 q 753 1328 688 1258 l 778 1328 q 847 1190 804 1247 q 971 1089 889 1133 l 965 1069 q 843 1092 896 1081 q 747 1117 790 1104 q 663 1144 704 1129 m 818 1378 q 683 1412 738 1403 q 592 1426 629 1421 q 524 1449 556 1432 q 475 1501 489 1467 q 478 1568 461 1535 q 538 1616 497 1607 q 608 1610 578 1625 q 667 1566 643 1594 q 726 1495 690 1538 q 828 1394 761 1453 l 818 1378 z "},"Ẩ":{"ha":929,"x_min":-133,"x_max":1275,"o":"m 65 182 q 32 97 28 129 q 72 48 36 64 q 160 28 107 32 l 154 0 q 39 3 82 3 q -43 4 -4 4 q -92 3 -72 4 q -133 0 -111 3 l -128 28 q -77 53 -100 36 q -26 103 -54 69 q 42 193 1 138 l 608 990 q 662 988 633 988 q 713 990 690 988 l 768 117 q 794 48 772 67 q 836 28 815 29 l 831 0 q 722 3 790 3 q 596 4 654 4 q 461 3 525 4 q 360 0 397 3 l 365 28 q 460 52 432 31 q 485 144 489 74 l 453 753 l 526 833 l 65 182 m 207 400 l 613 400 l 601 372 l 182 372 l 207 400 m 663 1144 q 519 1103 599 1122 q 350 1069 439 1085 l 343 1089 q 578 1194 469 1129 q 753 1328 688 1258 l 778 1328 q 847 1190 804 1247 q 971 1089 889 1133 l 965 1069 q 843 1092 896 1081 q 747 1117 790 1104 q 663 1144 704 1129 m 1004 1271 q 1031 1338 1011 1314 q 1072 1380 1050 1363 q 1108 1420 1093 1397 q 1124 1485 1124 1443 q 1100 1553 1124 1533 q 1036 1574 1076 1574 q 997 1569 1014 1574 q 974 1561 981 1565 q 1016 1532 1000 1551 q 1032 1483 1032 1513 q 1003 1421 1032 1444 q 936 1397 975 1397 q 881 1417 901 1397 q 860 1468 860 1436 q 884 1528 860 1503 q 943 1569 908 1553 q 1016 1593 976 1585 q 1101 1601 1056 1601 q 1227 1576 1179 1601 q 1275 1493 1275 1550 q 1253 1431 1275 1453 q 1197 1395 1231 1408 q 1127 1369 1163 1382 q 1065 1333 1092 1356 q 1032 1271 1039 1311 l 1004 1271 z "},"Ẫ":{"ha":929,"x_min":-133,"x_max":1118,"o":"m 65 182 q 32 97 28 129 q 72 48 36 64 q 160 28 107 32 l 154 0 q 39 3 82 3 q -43 4 -4 4 q -92 3 -72 4 q -133 0 -111 3 l -128 28 q -77 53 -100 36 q -26 103 -54 69 q 42 193 1 138 l 608 990 q 662 988 633 988 q 713 990 690 988 l 768 117 q 794 48 772 67 q 836 28 815 29 l 831 0 q 722 3 790 3 q 596 4 654 4 q 461 3 525 4 q 360 0 397 3 l 365 28 q 460 52 432 31 q 485 144 489 74 l 453 753 l 526 833 l 65 182 m 207 400 l 613 400 l 601 372 l 182 372 l 207 400 m 663 1144 q 519 1103 599 1122 q 350 1069 439 1085 l 343 1089 q 578 1194 469 1129 q 753 1328 688 1258 l 778 1328 q 847 1190 804 1247 q 971 1089 889 1133 l 965 1069 q 843 1092 896 1081 q 747 1117 790 1104 q 663 1144 704 1129 m 700 1622 q 790 1607 754 1622 q 854 1572 826 1592 q 910 1536 882 1551 q 979 1521 939 1521 q 1039 1540 1011 1521 q 1093 1601 1067 1558 l 1118 1594 q 1001 1421 1074 1474 q 854 1368 928 1368 q 764 1383 800 1368 q 700 1419 728 1399 q 644 1454 672 1439 q 575 1469 615 1469 q 516 1451 543 1469 q 461 1389 489 1433 l 436 1396 q 553 1569 481 1517 q 700 1622 626 1622 z "},"Ä":{"ha":929,"x_min":-133,"x_max":981,"o":"m 65 182 q 32 97 28 129 q 72 48 36 64 q 160 28 107 32 l 154 0 q 39 3 82 3 q -43 4 -4 4 q -92 3 -72 4 q -133 0 -111 3 l -128 28 q -77 53 -100 36 q -26 103 -54 69 q 42 193 1 138 l 608 990 q 662 988 633 988 q 713 990 690 988 l 768 117 q 794 48 772 67 q 836 28 815 29 l 831 0 q 722 3 790 3 q 596 4 654 4 q 461 3 525 4 q 360 0 397 3 l 365 28 q 460 52 432 31 q 485 144 489 74 l 453 753 l 526 833 l 65 182 m 207 400 l 613 400 l 601 372 l 182 372 l 207 400 m 381 1164 q 423 1268 381 1236 q 518 1300 465 1300 q 598 1270 574 1300 q 622 1192 622 1240 q 601 1115 622 1144 q 549 1072 581 1085 q 483 1058 518 1058 q 404 1088 428 1058 q 381 1164 381 1117 m 739 1164 q 781 1268 739 1236 q 876 1300 824 1300 q 956 1270 932 1300 q 981 1192 981 1240 q 960 1115 981 1144 q 908 1072 939 1085 q 842 1058 876 1058 q 763 1088 786 1058 q 739 1164 739 1117 z "},"Ạ":{"ha":929,"x_min":-133,"x_max":836,"o":"m 65 182 q 32 97 28 129 q 72 48 36 64 q 160 28 107 32 l 154 0 q 39 3 82 3 q -43 4 -4 4 q -92 3 -72 4 q -133 0 -111 3 l -128 28 q -77 53 -100 36 q -26 103 -54 69 q 42 193 1 138 l 608 990 q 662 988 633 988 q 713 990 690 988 l 768 117 q 794 48 772 67 q 836 28 815 29 l 831 0 q 722 3 790 3 q 596 4 654 4 q 461 3 525 4 q 360 0 397 3 l 365 28 q 460 52 432 31 q 485 144 489 74 l 453 753 l 526 833 l 65 182 m 207 400 l 613 400 l 601 372 l 182 372 l 207 400 m 304 -265 q 228 -246 254 -265 q 201 -187 201 -226 q 239 -95 201 -128 q 342 -62 276 -62 q 418 -82 392 -62 q 444 -140 444 -101 q 407 -233 444 -200 q 304 -265 369 -265 z "},"À":{"ha":929,"x_min":-133,"x_max":836,"o":"m 65 182 q 32 97 28 129 q 72 48 36 64 q 160 28 107 32 l 154 0 q 39 3 82 3 q -43 4 -4 4 q -92 3 -72 4 q -133 0 -111 3 l -128 28 q -77 53 -100 36 q -26 103 -54 69 q 42 193 1 138 l 608 990 q 662 988 633 988 q 713 990 690 988 l 768 117 q 794 48 772 67 q 836 28 815 29 l 831 0 q 722 3 790 3 q 596 4 654 4 q 461 3 525 4 q 360 0 397 3 l 365 28 q 460 52 432 31 q 485 144 489 74 l 453 753 l 526 833 l 65 182 m 207 400 l 613 400 l 601 372 l 182 372 l 207 400 m 742 1072 q 607 1106 661 1097 q 516 1121 553 1115 q 447 1143 479 1126 q 399 1195 413 1161 q 401 1263 385 1229 q 461 1310 421 1301 q 532 1304 501 1319 q 590 1260 567 1289 q 649 1190 614 1232 q 751 1089 685 1147 l 742 1072 z "},"Ả":{"ha":929,"x_min":-133,"x_max":919,"o":"m 65 182 q 32 97 28 129 q 72 48 36 64 q 160 28 107 32 l 154 0 q 39 3 82 3 q -43 4 -4 4 q -92 3 -72 4 q -133 0 -111 3 l -128 28 q -77 53 -100 36 q -26 103 -54 69 q 42 193 1 138 l 608 990 q 662 988 633 988 q 713 990 690 988 l 768 117 q 794 48 772 67 q 836 28 815 29 l 831 0 q 722 3 790 3 q 596 4 654 4 q 461 3 525 4 q 360 0 397 3 l 365 28 q 460 52 432 31 q 485 144 489 74 l 453 753 l 526 833 l 65 182 m 207 400 l 613 400 l 601 372 l 182 372 l 207 400 m 649 1026 q 675 1094 656 1069 q 716 1135 694 1118 q 753 1176 738 1153 q 768 1240 768 1199 q 744 1309 768 1289 q 681 1329 721 1329 q 642 1325 658 1329 q 618 1317 625 1321 q 660 1288 644 1307 q 676 1239 676 1268 q 648 1176 676 1200 q 581 1153 619 1153 q 525 1172 546 1153 q 504 1224 504 1192 q 528 1283 504 1258 q 588 1325 553 1308 q 660 1349 621 1340 q 746 1357 700 1357 q 872 1331 824 1357 q 919 1249 919 1306 q 897 1186 919 1208 q 841 1151 875 1164 q 772 1124 807 1138 q 710 1089 736 1111 q 676 1026 683 1067 l 649 1026 z "},"Ā":{"ha":929,"x_min":-133,"x_max":969,"o":"m 65 182 q 32 97 28 129 q 72 48 36 64 q 160 28 107 32 l 154 0 q 39 3 82 3 q -43 4 -4 4 q -92 3 -72 4 q -133 0 -111 3 l -128 28 q -77 53 -100 36 q -26 103 -54 69 q 42 193 1 138 l 608 990 q 662 988 633 988 q 713 990 690 988 l 768 117 q 794 48 772 67 q 836 28 815 29 l 831 0 q 722 3 790 3 q 596 4 654 4 q 461 3 525 4 q 360 0 397 3 l 365 28 q 460 52 432 31 q 485 144 489 74 l 453 753 l 526 833 l 65 182 m 207 400 l 613 400 l 601 372 l 182 372 l 207 400 m 969 1172 l 961 1138 l 361 1138 l 369 1172 l 969 1172 z "},"Ą":{"ha":929,"x_min":-133,"x_max":836,"o":"m 65 182 q 32 97 28 129 q 72 48 36 64 q 160 28 107 32 l 154 0 q 39 3 82 3 q -43 4 -4 4 q -92 3 -72 4 q -133 0 -111 3 l -128 28 q -77 53 -100 36 q -26 103 -54 69 q 42 193 1 138 l 608 990 q 662 988 633 988 q 713 990 690 988 l 768 117 q 794 48 772 67 q 836 28 815 29 l 831 0 q 722 3 790 3 q 596 4 654 4 q 461 3 525 4 q 360 0 397 3 l 365 28 q 460 52 432 31 q 485 144 489 74 l 453 753 l 526 833 l 65 182 m 207 400 l 613 400 l 601 372 l 182 372 l 207 400 m 763 4 q 687 -42 717 -14 q 642 -99 657 -69 q 628 -154 628 -128 q 668 -190 628 -190 q 713 -184 688 -190 q 767 -164 739 -178 l 782 -187 q 674 -244 726 -226 q 564 -261 621 -261 q 472 -239 507 -261 q 438 -176 438 -217 q 480 -99 438 -133 q 591 -38 522 -64 q 738 4 660 -12 l 763 4 z "},"Å":{"ha":929,"x_min":-133,"x_max":847,"o":"m 65 182 q 32 97 28 129 q 72 48 36 64 q 160 28 107 32 l 154 0 q 39 3 82 3 q -43 4 -4 4 q -92 3 -72 4 q -133 0 -111 3 l -128 28 q -77 53 -100 36 q -26 103 -54 69 q 42 193 1 138 l 608 990 q 662 988 633 988 q 713 990 690 988 l 768 117 q 794 48 772 67 q 836 28 815 29 l 831 0 q 722 3 790 3 q 596 4 654 4 q 461 3 525 4 q 360 0 397 3 l 365 28 q 460 52 432 31 q 485 144 489 74 l 453 753 l 526 833 l 65 182 m 207 400 l 613 400 l 601 372 l 182 372 l 207 400 m 700 1313 q 805 1279 763 1313 q 847 1189 847 1246 q 822 1110 847 1146 q 753 1052 796 1074 q 663 1031 711 1031 q 562 1064 603 1031 q 521 1156 521 1097 q 544 1235 521 1200 q 609 1292 568 1271 q 700 1313 650 1313 m 669 1060 q 738 1076 706 1060 q 791 1122 771 1093 q 811 1186 811 1151 q 774 1260 811 1236 q 696 1283 736 1283 q 599 1244 640 1283 q 558 1156 558 1206 q 593 1084 558 1108 q 669 1060 628 1060 z "},"Ã":{"ha":929,"x_min":-133,"x_max":1042,"o":"m 65 182 q 32 97 28 129 q 72 48 36 64 q 160 28 107 32 l 154 0 q 39 3 82 3 q -43 4 -4 4 q -92 3 -72 4 q -133 0 -111 3 l -128 28 q -77 53 -100 36 q -26 103 -54 69 q 42 193 1 138 l 608 990 q 662 988 633 988 q 713 990 690 988 l 768 117 q 794 48 772 67 q 836 28 815 29 l 831 0 q 722 3 790 3 q 596 4 654 4 q 461 3 525 4 q 360 0 397 3 l 365 28 q 460 52 432 31 q 485 144 489 74 l 453 753 l 526 833 l 65 182 m 207 400 l 613 400 l 601 372 l 182 372 l 207 400 m 624 1317 q 714 1301 678 1317 q 778 1266 750 1286 q 834 1231 806 1246 q 903 1215 863 1215 q 963 1234 935 1215 q 1017 1296 990 1253 l 1042 1289 q 924 1115 997 1168 q 778 1063 851 1063 q 688 1078 724 1063 q 624 1113 651 1093 q 567 1149 596 1133 q 499 1164 539 1164 q 440 1146 467 1164 q 385 1083 413 1128 l 360 1090 q 477 1264 404 1211 q 624 1317 550 1317 z "},"Æ":{"ha":1264,"x_min":-125,"x_max":1339,"o":"m 821 1074 l 42 131 q 6 78 15 100 q 14 44 -4 57 q 88 28 32 32 l 88 0 q 36 3 69 3 q -32 4 3 4 q -83 3 -57 4 q -125 0 -108 3 l -125 28 q -6 117 -82 31 l 785 1074 l 821 1074 m 308 481 l 335 508 l 1018 508 l 1013 481 l 308 481 m 919 508 q 987 531 961 508 q 1030 588 1013 553 q 1063 664 1047 624 l 1093 664 q 1066 574 1075 610 q 1046 494 1057 539 q 1030 429 1038 464 q 1010 325 1022 394 l 979 325 q 983 375 979 349 q 986 424 988 401 q 969 463 985 447 q 914 481 953 478 l 919 508 m 743 147 q 732 72 731 97 q 755 40 733 47 q 822 32 776 32 l 896 32 q 1006 56 963 32 q 1082 133 1050 79 q 1144 278 1114 186 l 1175 278 q 1160 233 1168 260 q 1146 178 1153 207 q 1128 102 1139 151 q 1110 0 1117 53 q 952 3 1039 3 q 796 4 865 4 q 701 4 758 4 q 577 3 644 4 q 442 2 510 3 q 313 0 374 1 l 318 28 q 392 39 365 31 q 433 72 418 47 q 461 147 449 97 l 644 836 q 656 912 658 888 q 631 945 653 936 q 563 956 610 954 l 569 983 q 697 981 629 982 q 833 980 765 981 q 957 979 900 979 q 1051 979 1014 979 q 1194 980 1115 979 q 1339 983 1274 981 q 1307 889 1321 935 q 1286 819 1293 843 q 1275 772 1279 794 q 1268 733 1271 749 l 1238 733 q 1234 904 1260 857 q 1125 951 1208 951 l 1065 951 q 994 944 1019 951 q 954 912 968 936 q 926 836 940 888 l 743 147 z "},"B":{"ha":986,"x_min":-67,"x_max":975,"o":"m 639 982 q 898 931 821 982 q 975 794 975 881 q 925 658 975 721 q 778 557 875 596 q 542 514 682 518 q 815 457 718 517 q 911 306 911 397 q 878 176 911 233 q 782 80 844 119 q 629 20 719 40 q 425 0 539 0 q 332 2 388 0 q 179 4 276 4 q 96 3 142 4 q 6 2 50 3 q -67 0 -37 1 l -61 28 q 13 39 -14 31 q 54 72 39 47 q 82 147 69 97 l 265 836 q 277 905 276 879 q 258 942 278 931 q 183 956 238 954 l 190 983 q 263 981 219 982 q 351 980 306 981 q 432 979 397 979 q 551 981 507 979 q 639 982 596 982 m 385 499 l 390 522 l 483 522 q 606 568 557 522 q 678 687 654 614 q 703 838 703 760 q 688 921 703 886 q 625 956 674 956 q 581 936 596 956 q 551 857 567 917 l 364 147 q 354 97 358 124 q 361 51 350 69 q 408 32 372 32 q 516 76 469 32 q 590 190 563 121 q 617 333 617 260 q 605 414 617 376 q 564 475 593 451 q 483 499 535 499 l 385 499 z "},"C":{"ha":983,"x_min":51,"x_max":1067,"o":"m 1067 983 q 1024 852 1046 929 q 978 664 1001 775 l 947 664 q 960 789 960 733 q 938 885 961 844 q 874 947 911 931 q 785 964 836 964 q 656 930 718 964 q 543 834 594 896 q 453 690 492 772 q 392 511 414 608 q 371 310 371 414 q 420 99 371 165 q 553 33 469 33 q 648 54 599 33 q 733 114 697 75 q 798 203 771 154 q 858 333 825 253 l 889 333 q 835 130 854 207 q 807 0 817 53 l 776 0 q 781 47 781 29 q 769 81 781 75 q 735 71 758 88 q 655 25 699 46 q 562 -8 611 4 q 457 -19 513 -19 q 148 75 244 -19 q 51 336 51 169 q 85 533 51 436 q 181 714 118 629 q 331 864 243 799 q 526 966 418 929 q 756 1003 633 1003 q 849 990 811 1003 q 915 957 888 978 q 961 913 942 936 q 998 908 979 890 q 1038 983 1017 926 l 1067 983 z "},"Ć":{"ha":983,"x_min":51,"x_max":1117,"o":"m 1067 983 q 1024 852 1046 929 q 978 664 1001 775 l 947 664 q 960 789 960 733 q 938 885 961 844 q 874 947 911 931 q 785 964 836 964 q 656 930 718 964 q 543 834 594 896 q 453 690 492 772 q 392 511 414 608 q 371 310 371 414 q 420 99 371 165 q 553 33 469 33 q 648 54 599 33 q 733 114 697 75 q 798 203 771 154 q 858 333 825 253 l 889 333 q 835 130 854 207 q 807 0 817 53 l 776 0 q 781 47 781 29 q 769 81 781 75 q 735 71 758 88 q 655 25 699 46 q 562 -8 611 4 q 457 -19 513 -19 q 148 75 244 -19 q 51 336 51 169 q 85 533 51 436 q 181 714 118 629 q 331 864 243 799 q 526 966 418 929 q 756 1003 633 1003 q 849 990 811 1003 q 915 957 888 978 q 961 913 942 936 q 998 908 979 890 q 1038 983 1017 926 l 1067 983 m 688 1089 q 796 1194 754 1147 q 872 1275 838 1240 q 946 1331 906 1310 q 998 1346 969 1343 q 1053 1338 1026 1349 q 1096 1299 1081 1328 q 1097 1226 1117 1260 q 1033 1169 1076 1193 q 950 1138 997 1150 q 841 1113 903 1126 q 697 1072 779 1099 l 688 1089 z "},"Č":{"ha":983,"x_min":51,"x_max":1144,"o":"m 1067 983 q 1024 852 1046 929 q 978 664 1001 775 l 947 664 q 960 789 960 733 q 938 885 961 844 q 874 947 911 931 q 785 964 836 964 q 656 930 718 964 q 543 834 594 896 q 453 690 492 772 q 392 511 414 608 q 371 310 371 414 q 420 99 371 165 q 553 33 469 33 q 648 54 599 33 q 733 114 697 75 q 798 203 771 154 q 858 333 825 253 l 889 333 q 835 130 854 207 q 807 0 817 53 l 776 0 q 781 47 781 29 q 769 81 781 75 q 735 71 758 88 q 655 25 699 46 q 562 -8 611 4 q 457 -19 513 -19 q 148 75 244 -19 q 51 336 51 169 q 85 533 51 436 q 181 714 118 629 q 331 864 243 799 q 526 966 418 929 q 756 1003 633 1003 q 849 990 811 1003 q 915 957 888 978 q 961 913 942 936 q 998 908 979 890 q 1038 983 1017 926 l 1067 983 m 825 1239 q 969 1281 890 1261 q 1138 1314 1049 1300 l 1144 1294 q 909 1190 1018 1256 q 735 1056 800 1125 l 710 1056 q 641 1194 683 1138 q 517 1294 599 1250 l 522 1314 q 644 1291 592 1303 q 741 1267 697 1279 q 825 1239 785 1254 z "},"Ç":{"ha":983,"x_min":51,"x_max":1067,"o":"m 1067 983 q 1024 852 1046 929 q 978 664 1001 775 l 947 664 q 960 789 960 733 q 938 885 961 844 q 874 947 911 931 q 785 964 836 964 q 656 930 718 964 q 543 834 594 896 q 453 690 492 772 q 392 511 414 608 q 371 310 371 414 q 420 99 371 165 q 553 33 469 33 q 648 54 599 33 q 733 114 697 75 q 798 203 771 154 q 858 333 825 253 l 889 333 q 835 130 854 207 q 807 0 817 53 l 776 0 q 781 47 781 29 q 769 81 781 75 q 735 71 758 88 q 655 25 699 46 q 562 -8 611 4 q 457 -19 513 -19 q 148 75 244 -19 q 51 336 51 169 q 85 533 51 436 q 181 714 118 629 q 331 864 243 799 q 526 966 418 929 q 756 1003 633 1003 q 849 990 811 1003 q 915 957 888 978 q 961 913 942 936 q 998 908 979 890 q 1038 983 1017 926 l 1067 983 m 489 10 l 450 -79 q 492 -67 469 -72 q 536 -62 515 -62 q 613 -80 583 -62 q 643 -136 643 -97 q 606 -209 643 -182 q 510 -249 568 -236 q 392 -261 453 -261 q 295 -252 339 -261 q 231 -236 251 -243 l 239 -214 q 286 -222 251 -217 q 351 -228 321 -228 q 400 -224 374 -228 q 446 -207 426 -219 q 465 -169 465 -194 q 426 -137 465 -137 q 407 -140 419 -137 q 383 -147 394 -142 l 451 10 l 489 10 z "},"Ĉ":{"ha":983,"x_min":51,"x_max":1067,"o":"m 1067 983 q 1024 852 1046 929 q 978 664 1001 775 l 947 664 q 960 789 960 733 q 938 885 961 844 q 874 947 911 931 q 785 964 836 964 q 656 930 718 964 q 543 834 594 896 q 453 690 492 772 q 392 511 414 608 q 371 310 371 414 q 420 99 371 165 q 553 33 469 33 q 648 54 599 33 q 733 114 697 75 q 798 203 771 154 q 858 333 825 253 l 889 333 q 835 130 854 207 q 807 0 817 53 l 776 0 q 781 47 781 29 q 769 81 781 75 q 735 71 758 88 q 655 25 699 46 q 562 -8 611 4 q 457 -19 513 -19 q 148 75 244 -19 q 51 336 51 169 q 85 533 51 436 q 181 714 118 629 q 331 864 243 799 q 526 966 418 929 q 756 1003 633 1003 q 849 990 811 1003 q 915 957 888 978 q 961 913 942 936 q 998 908 979 890 q 1038 983 1017 926 l 1067 983 m 711 1144 q 567 1103 647 1122 q 399 1069 488 1085 l 392 1089 q 627 1194 518 1129 q 801 1328 736 1258 l 826 1328 q 895 1190 853 1247 q 1019 1089 938 1133 l 1014 1069 q 892 1092 944 1081 q 796 1117 839 1104 q 711 1144 753 1129 z "},"Ċ":{"ha":983,"x_min":51,"x_max":1067,"o":"m 1067 983 q 1024 852 1046 929 q 978 664 1001 775 l 947 664 q 960 789 960 733 q 938 885 961 844 q 874 947 911 931 q 785 964 836 964 q 656 930 718 964 q 543 834 594 896 q 453 690 492 772 q 392 511 414 608 q 371 310 371 414 q 420 99 371 165 q 553 33 469 33 q 648 54 599 33 q 733 114 697 75 q 798 203 771 154 q 858 333 825 253 l 889 333 q 835 130 854 207 q 807 0 817 53 l 776 0 q 781 47 781 29 q 769 81 781 75 q 735 71 758 88 q 655 25 699 46 q 562 -8 611 4 q 457 -19 513 -19 q 148 75 244 -19 q 51 336 51 169 q 85 533 51 436 q 181 714 118 629 q 331 864 243 799 q 526 966 418 929 q 756 1003 633 1003 q 849 990 811 1003 q 915 957 888 978 q 961 913 942 936 q 998 908 979 890 q 1038 983 1017 926 l 1067 983 m 583 1147 q 632 1258 583 1222 q 753 1294 681 1294 q 845 1271 814 1294 q 876 1200 876 1247 q 827 1095 876 1135 q 706 1056 778 1056 q 615 1079 646 1056 q 583 1147 583 1103 z "},"D":{"ha":1114,"x_min":-60,"x_max":1099,"o":"m 1099 635 q 1075 465 1099 553 q 1000 294 1051 376 q 867 144 949 211 q 668 39 785 78 q 396 0 551 0 q 344 1 374 0 q 274 3 314 3 q 176 4 233 4 q 99 3 144 4 q 11 2 54 3 q -60 0 -32 1 l -56 28 q 15 39 -11 31 q 56 72 40 47 q 83 147 71 97 l 265 836 q 274 898 275 872 q 253 938 272 924 q 185 956 233 953 l 189 983 q 264 981 218 982 q 361 979 310 979 q 456 979 413 979 q 514 981 475 981 q 594 983 553 982 q 661 983 635 983 q 982 897 865 983 q 1099 635 1099 810 m 407 25 q 549 65 485 25 q 662 174 613 106 q 744 329 711 243 q 795 507 778 415 q 813 685 813 599 q 771 888 813 817 q 636 958 729 958 q 592 950 606 958 q 569 917 578 942 q 547 839 561 892 l 365 144 q 349 72 353 97 q 358 35 346 46 q 407 25 371 25 z "},"Ð":{"ha":1114,"x_min":-60,"x_max":1099,"o":"m 1099 635 q 1075 465 1099 553 q 1000 294 1051 376 q 867 144 949 211 q 668 39 785 78 q 396 0 551 0 q 344 1 374 0 q 274 3 314 3 q 176 4 233 4 q 99 3 144 4 q 11 2 54 3 q -60 0 -32 1 l -56 28 q 15 39 -11 31 q 56 72 40 47 q 83 147 71 97 l 265 836 q 274 898 275 872 q 253 938 272 924 q 185 956 233 953 l 189 983 q 264 981 218 982 q 361 979 310 979 q 456 979 413 979 q 514 981 475 981 q 594 983 553 982 q 661 983 635 983 q 982 897 865 983 q 1099 635 1099 810 m 407 25 q 549 65 485 25 q 662 174 613 106 q 744 329 711 243 q 795 507 778 415 q 813 685 813 599 q 771 888 813 817 q 636 958 729 958 q 592 950 606 958 q 569 917 578 942 q 547 839 561 892 l 365 144 q 349 72 353 97 q 358 35 346 46 q 407 25 371 25 m 635 508 l 626 474 l 26 474 l 35 508 l 635 508 z "},"Ď":{"ha":1114,"x_min":-60,"x_max":1099,"o":"m 1099 635 q 1075 465 1099 553 q 1000 294 1051 376 q 867 144 949 211 q 668 39 785 78 q 396 0 551 0 q 344 1 374 0 q 274 3 314 3 q 176 4 233 4 q 99 3 144 4 q 11 2 54 3 q -60 0 -32 1 l -56 28 q 15 39 -11 31 q 56 72 40 47 q 83 147 71 97 l 265 836 q 274 898 275 872 q 253 938 272 924 q 185 956 233 953 l 189 983 q 264 981 218 982 q 361 979 310 979 q 456 979 413 979 q 514 981 475 981 q 594 983 553 982 q 661 983 635 983 q 982 897 865 983 q 1099 635 1099 810 m 407 25 q 549 65 485 25 q 662 174 613 106 q 744 329 711 243 q 795 507 778 415 q 813 685 813 599 q 771 888 813 817 q 636 958 729 958 q 592 950 606 958 q 569 917 578 942 q 547 839 561 892 l 365 144 q 349 72 353 97 q 358 35 346 46 q 407 25 371 25 m 769 1239 q 914 1281 835 1261 q 1082 1314 993 1300 l 1089 1294 q 853 1190 963 1256 q 679 1056 744 1125 l 654 1056 q 585 1194 628 1138 q 461 1294 543 1250 l 467 1314 q 589 1291 536 1303 q 685 1267 642 1279 q 769 1239 729 1254 z "},"Đ":{"ha":1114,"x_min":-60,"x_max":1099,"o":"m 1099 635 q 1075 465 1099 553 q 1000 294 1051 376 q 867 144 949 211 q 668 39 785 78 q 396 0 551 0 q 344 1 374 0 q 274 3 314 3 q 176 4 233 4 q 99 3 144 4 q 11 2 54 3 q -60 0 -32 1 l -56 28 q 15 39 -11 31 q 56 72 40 47 q 83 147 71 97 l 265 836 q 274 898 275 872 q 253 938 272 924 q 185 956 233 953 l 189 983 q 264 981 218 982 q 361 979 310 979 q 456 979 413 979 q 514 981 475 981 q 594 983 553 982 q 661 983 635 983 q 982 897 865 983 q 1099 635 1099 810 m 407 25 q 549 65 485 25 q 662 174 613 106 q 744 329 711 243 q 795 507 778 415 q 813 685 813 599 q 771 888 813 817 q 636 958 729 958 q 592 950 606 958 q 569 917 578 942 q 547 839 561 892 l 365 144 q 349 72 353 97 q 358 35 346 46 q 407 25 371 25 m 635 508 l 626 474 l 26 474 l 35 508 l 635 508 z "},"E":{"ha":885,"x_min":-67,"x_max":960,"o":"m 336 481 l 342 508 l 639 508 l 633 481 l 336 481 m 485 508 q 549 521 518 508 q 606 556 581 533 q 652 606 632 578 q 683 664 672 633 l 714 664 q 687 574 696 610 q 667 494 678 539 q 654 445 660 467 q 644 397 649 424 q 631 325 639 371 l 600 325 q 594 376 600 349 q 572 426 588 403 q 531 465 557 450 q 465 481 504 481 l 485 508 m 858 733 q 840 863 860 815 q 783 931 821 911 q 690 951 746 951 l 686 951 q 615 944 640 951 q 575 912 589 936 q 547 836 561 888 l 364 147 q 353 72 351 97 q 376 40 354 47 q 443 32 397 32 l 461 32 q 579 56 528 32 q 676 133 631 79 q 765 278 721 186 l 796 278 q 781 233 789 260 q 767 178 774 207 q 749 102 760 151 q 731 0 738 53 q 573 3 660 3 q 417 4 486 4 q 322 4 379 4 q 198 3 265 4 q 63 2 131 3 q -67 0 -6 1 l -61 28 q 13 39 -14 31 q 54 72 39 47 q 82 147 69 97 l 265 836 q 276 912 279 888 q 252 945 274 936 q 183 956 231 954 l 190 983 q 318 981 250 982 q 453 980 386 981 q 578 979 521 979 q 672 979 635 979 q 815 980 736 979 q 960 983 894 981 q 930 901 942 935 q 907 819 918 867 q 897 772 901 794 q 889 733 892 750 l 858 733 z "},"É":{"ha":885,"x_min":-67,"x_max":1007,"o":"m 336 481 l 342 508 l 639 508 l 633 481 l 336 481 m 485 508 q 549 521 518 508 q 606 556 581 533 q 652 606 632 578 q 683 664 672 633 l 714 664 q 687 574 696 610 q 667 494 678 539 q 654 445 660 467 q 644 397 649 424 q 631 325 639 371 l 600 325 q 594 376 600 349 q 572 426 588 403 q 531 465 557 450 q 465 481 504 481 l 485 508 m 858 733 q 840 863 860 815 q 783 931 821 911 q 690 951 746 951 l 686 951 q 615 944 640 951 q 575 912 589 936 q 547 836 561 888 l 364 147 q 353 72 351 97 q 376 40 354 47 q 443 32 397 32 l 461 32 q 579 56 528 32 q 676 133 631 79 q 765 278 721 186 l 796 278 q 781 233 789 260 q 767 178 774 207 q 749 102 760 151 q 731 0 738 53 q 573 3 660 3 q 417 4 486 4 q 322 4 379 4 q 198 3 265 4 q 63 2 131 3 q -67 0 -6 1 l -61 28 q 13 39 -14 31 q 54 72 39 47 q 82 147 69 97 l 265 836 q 276 912 279 888 q 252 945 274 936 q 183 956 231 954 l 190 983 q 318 981 250 982 q 453 980 386 981 q 578 979 521 979 q 672 979 635 979 q 815 980 736 979 q 960 983 894 981 q 930 901 942 935 q 907 819 918 867 q 897 772 901 794 q 889 733 892 750 l 858 733 m 578 1089 q 686 1194 644 1147 q 762 1275 728 1240 q 836 1331 796 1310 q 888 1346 860 1343 q 944 1338 917 1349 q 986 1299 971 1328 q 987 1226 1007 1260 q 924 1169 967 1193 q 840 1138 888 1150 q 731 1113 793 1126 q 588 1072 669 1099 l 578 1089 z "},"Ĕ":{"ha":885,"x_min":-67,"x_max":967,"o":"m 336 481 l 342 508 l 639 508 l 633 481 l 336 481 m 485 508 q 549 521 518 508 q 606 556 581 533 q 652 606 632 578 q 683 664 672 633 l 714 664 q 687 574 696 610 q 667 494 678 539 q 654 445 660 467 q 644 397 649 424 q 631 325 639 371 l 600 325 q 594 376 600 349 q 572 426 588 403 q 531 465 557 450 q 465 481 504 481 l 485 508 m 858 733 q 840 863 860 815 q 783 931 821 911 q 690 951 746 951 l 686 951 q 615 944 640 951 q 575 912 589 936 q 547 836 561 888 l 364 147 q 353 72 351 97 q 376 40 354 47 q 443 32 397 32 l 461 32 q 579 56 528 32 q 676 133 631 79 q 765 278 721 186 l 796 278 q 781 233 789 260 q 767 178 774 207 q 749 102 760 151 q 731 0 738 53 q 573 3 660 3 q 417 4 486 4 q 322 4 379 4 q 198 3 265 4 q 63 2 131 3 q -67 0 -6 1 l -61 28 q 13 39 -14 31 q 54 72 39 47 q 82 147 69 97 l 265 836 q 276 912 279 888 q 252 945 274 936 q 183 956 231 954 l 190 983 q 318 981 250 982 q 453 980 386 981 q 578 979 521 979 q 672 979 635 979 q 815 980 736 979 q 960 983 894 981 q 930 901 942 935 q 907 819 918 867 q 897 772 901 794 q 889 733 892 750 l 858 733 m 626 1225 q 806 1244 728 1225 q 950 1303 883 1264 l 967 1290 q 873 1178 931 1231 q 744 1092 815 1125 q 597 1060 674 1060 q 483 1090 529 1060 q 408 1172 436 1121 q 369 1286 381 1224 l 390 1297 q 488 1243 433 1261 q 626 1225 542 1225 z "},"Ě":{"ha":885,"x_min":-67,"x_max":1035,"o":"m 336 481 l 342 508 l 639 508 l 633 481 l 336 481 m 485 508 q 549 521 518 508 q 606 556 581 533 q 652 606 632 578 q 683 664 672 633 l 714 664 q 687 574 696 610 q 667 494 678 539 q 654 445 660 467 q 644 397 649 424 q 631 325 639 371 l 600 325 q 594 376 600 349 q 572 426 588 403 q 531 465 557 450 q 465 481 504 481 l 485 508 m 858 733 q 840 863 860 815 q 783 931 821 911 q 690 951 746 951 l 686 951 q 615 944 640 951 q 575 912 589 936 q 547 836 561 888 l 364 147 q 353 72 351 97 q 376 40 354 47 q 443 32 397 32 l 461 32 q 579 56 528 32 q 676 133 631 79 q 765 278 721 186 l 796 278 q 781 233 789 260 q 767 178 774 207 q 749 102 760 151 q 731 0 738 53 q 573 3 660 3 q 417 4 486 4 q 322 4 379 4 q 198 3 265 4 q 63 2 131 3 q -67 0 -6 1 l -61 28 q 13 39 -14 31 q 54 72 39 47 q 82 147 69 97 l 265 836 q 276 912 279 888 q 252 945 274 936 q 183 956 231 954 l 190 983 q 318 981 250 982 q 453 980 386 981 q 578 979 521 979 q 672 979 635 979 q 815 980 736 979 q 960 983 894 981 q 930 901 942 935 q 907 819 918 867 q 897 772 901 794 q 889 733 892 750 l 858 733 m 715 1239 q 860 1281 781 1261 q 1028 1314 939 1300 l 1035 1294 q 799 1190 908 1256 q 625 1056 690 1125 l 600 1056 q 531 1194 574 1138 q 407 1294 489 1250 l 413 1314 q 535 1291 482 1303 q 631 1267 588 1279 q 715 1239 675 1254 z "},"Ê":{"ha":885,"x_min":-67,"x_max":960,"o":"m 336 481 l 342 508 l 639 508 l 633 481 l 336 481 m 485 508 q 549 521 518 508 q 606 556 581 533 q 652 606 632 578 q 683 664 672 633 l 714 664 q 687 574 696 610 q 667 494 678 539 q 654 445 660 467 q 644 397 649 424 q 631 325 639 371 l 600 325 q 594 376 600 349 q 572 426 588 403 q 531 465 557 450 q 465 481 504 481 l 485 508 m 858 733 q 840 863 860 815 q 783 931 821 911 q 690 951 746 951 l 686 951 q 615 944 640 951 q 575 912 589 936 q 547 836 561 888 l 364 147 q 353 72 351 97 q 376 40 354 47 q 443 32 397 32 l 461 32 q 579 56 528 32 q 676 133 631 79 q 765 278 721 186 l 796 278 q 781 233 789 260 q 767 178 774 207 q 749 102 760 151 q 731 0 738 53 q 573 3 660 3 q 417 4 486 4 q 322 4 379 4 q 198 3 265 4 q 63 2 131 3 q -67 0 -6 1 l -61 28 q 13 39 -14 31 q 54 72 39 47 q 82 147 69 97 l 265 836 q 276 912 279 888 q 252 945 274 936 q 183 956 231 954 l 190 983 q 318 981 250 982 q 453 980 386 981 q 578 979 521 979 q 672 979 635 979 q 815 980 736 979 q 960 983 894 981 q 930 901 942 935 q 907 819 918 867 q 897 772 901 794 q 889 733 892 750 l 858 733 m 601 1144 q 458 1103 538 1122 q 289 1069 378 1085 l 282 1089 q 517 1194 408 1129 q 692 1328 626 1258 l 717 1328 q 785 1190 743 1247 q 910 1089 828 1133 l 904 1069 q 782 1092 835 1081 q 686 1117 729 1104 q 601 1144 643 1129 z "},"Ế":{"ha":885,"x_min":-67,"x_max":1083,"o":"m 336 481 l 342 508 l 639 508 l 633 481 l 336 481 m 485 508 q 549 521 518 508 q 606 556 581 533 q 652 606 632 578 q 683 664 672 633 l 714 664 q 687 574 696 610 q 667 494 678 539 q 654 445 660 467 q 644 397 649 424 q 631 325 639 371 l 600 325 q 594 376 600 349 q 572 426 588 403 q 531 465 557 450 q 465 481 504 481 l 485 508 m 858 733 q 840 863 860 815 q 783 931 821 911 q 690 951 746 951 l 686 951 q 615 944 640 951 q 575 912 589 936 q 547 836 561 888 l 364 147 q 353 72 351 97 q 376 40 354 47 q 443 32 397 32 l 461 32 q 579 56 528 32 q 676 133 631 79 q 765 278 721 186 l 796 278 q 781 233 789 260 q 767 178 774 207 q 749 102 760 151 q 731 0 738 53 q 573 3 660 3 q 417 4 486 4 q 322 4 379 4 q 198 3 265 4 q 63 2 131 3 q -67 0 -6 1 l -61 28 q 13 39 -14 31 q 54 72 39 47 q 82 147 69 97 l 265 836 q 276 912 279 888 q 252 945 274 936 q 183 956 231 954 l 190 983 q 318 981 250 982 q 453 980 386 981 q 578 979 521 979 q 672 979 635 979 q 815 980 736 979 q 960 983 894 981 q 930 901 942 935 q 907 819 918 867 q 897 772 901 794 q 889 733 892 750 l 858 733 m 601 1144 q 458 1103 538 1122 q 289 1069 378 1085 l 282 1089 q 517 1194 408 1129 q 692 1328 626 1258 l 717 1328 q 785 1190 743 1247 q 910 1089 828 1133 l 904 1069 q 782 1092 835 1081 q 686 1117 729 1104 q 601 1144 643 1129 m 654 1394 q 763 1499 721 1453 q 838 1581 804 1546 q 913 1636 872 1615 q 965 1651 936 1649 q 1020 1644 993 1654 q 1063 1604 1047 1633 q 1063 1532 1083 1565 q 1000 1475 1043 1499 q 917 1444 964 1456 q 808 1418 869 1432 q 664 1378 746 1404 l 654 1394 z "},"Ệ":{"ha":885,"x_min":-67,"x_max":960,"o":"m 336 481 l 342 508 l 639 508 l 633 481 l 336 481 m 485 508 q 549 521 518 508 q 606 556 581 533 q 652 606 632 578 q 683 664 672 633 l 714 664 q 687 574 696 610 q 667 494 678 539 q 654 445 660 467 q 644 397 649 424 q 631 325 639 371 l 600 325 q 594 376 600 349 q 572 426 588 403 q 531 465 557 450 q 465 481 504 481 l 485 508 m 858 733 q 840 863 860 815 q 783 931 821 911 q 690 951 746 951 l 686 951 q 615 944 640 951 q 575 912 589 936 q 547 836 561 888 l 364 147 q 353 72 351 97 q 376 40 354 47 q 443 32 397 32 l 461 32 q 579 56 528 32 q 676 133 631 79 q 765 278 721 186 l 796 278 q 781 233 789 260 q 767 178 774 207 q 749 102 760 151 q 731 0 738 53 q 573 3 660 3 q 417 4 486 4 q 322 4 379 4 q 198 3 265 4 q 63 2 131 3 q -67 0 -6 1 l -61 28 q 13 39 -14 31 q 54 72 39 47 q 82 147 69 97 l 265 836 q 276 912 279 888 q 252 945 274 936 q 183 956 231 954 l 190 983 q 318 981 250 982 q 453 980 386 981 q 578 979 521 979 q 672 979 635 979 q 815 980 736 979 q 960 983 894 981 q 930 901 942 935 q 907 819 918 867 q 897 772 901 794 q 889 733 892 750 l 858 733 m 344 -265 q 268 -246 294 -265 q 242 -187 242 -226 q 279 -95 242 -128 q 382 -62 317 -62 q 458 -82 432 -62 q 485 -140 485 -101 q 447 -233 485 -200 q 344 -265 410 -265 m 601 1144 q 458 1103 538 1122 q 289 1069 378 1085 l 282 1089 q 517 1194 408 1129 q 692 1328 626 1258 l 717 1328 q 785 1190 743 1247 q 910 1089 828 1133 l 904 1069 q 782 1092 835 1081 q 686 1117 729 1104 q 601 1144 643 1129 z "},"Ề":{"ha":885,"x_min":-67,"x_max":960,"o":"m 336 481 l 342 508 l 639 508 l 633 481 l 336 481 m 485 508 q 549 521 518 508 q 606 556 581 533 q 652 606 632 578 q 683 664 672 633 l 714 664 q 687 574 696 610 q 667 494 678 539 q 654 445 660 467 q 644 397 649 424 q 631 325 639 371 l 600 325 q 594 376 600 349 q 572 426 588 403 q 531 465 557 450 q 465 481 504 481 l 485 508 m 858 733 q 840 863 860 815 q 783 931 821 911 q 690 951 746 951 l 686 951 q 615 944 640 951 q 575 912 589 936 q 547 836 561 888 l 364 147 q 353 72 351 97 q 376 40 354 47 q 443 32 397 32 l 461 32 q 579 56 528 32 q 676 133 631 79 q 765 278 721 186 l 796 278 q 781 233 789 260 q 767 178 774 207 q 749 102 760 151 q 731 0 738 53 q 573 3 660 3 q 417 4 486 4 q 322 4 379 4 q 198 3 265 4 q 63 2 131 3 q -67 0 -6 1 l -61 28 q 13 39 -14 31 q 54 72 39 47 q 82 147 69 97 l 265 836 q 276 912 279 888 q 252 945 274 936 q 183 956 231 954 l 190 983 q 318 981 250 982 q 453 980 386 981 q 578 979 521 979 q 672 979 635 979 q 815 980 736 979 q 960 983 894 981 q 930 901 942 935 q 907 819 918 867 q 897 772 901 794 q 889 733 892 750 l 858 733 m 601 1144 q 458 1103 538 1122 q 289 1069 378 1085 l 282 1089 q 517 1194 408 1129 q 692 1328 626 1258 l 717 1328 q 785 1190 743 1247 q 910 1089 828 1133 l 904 1069 q 782 1092 835 1081 q 686 1117 729 1104 q 601 1144 643 1129 m 757 1378 q 622 1412 676 1403 q 531 1426 568 1421 q 463 1449 494 1432 q 414 1501 428 1467 q 417 1568 400 1535 q 476 1616 436 1607 q 547 1610 517 1625 q 606 1566 582 1594 q 665 1495 629 1538 q 767 1394 700 1453 l 757 1378 z "},"Ể":{"ha":885,"x_min":-67,"x_max":1214,"o":"m 336 481 l 342 508 l 639 508 l 633 481 l 336 481 m 485 508 q 549 521 518 508 q 606 556 581 533 q 652 606 632 578 q 683 664 672 633 l 714 664 q 687 574 696 610 q 667 494 678 539 q 654 445 660 467 q 644 397 649 424 q 631 325 639 371 l 600 325 q 594 376 600 349 q 572 426 588 403 q 531 465 557 450 q 465 481 504 481 l 485 508 m 858 733 q 840 863 860 815 q 783 931 821 911 q 690 951 746 951 l 686 951 q 615 944 640 951 q 575 912 589 936 q 547 836 561 888 l 364 147 q 353 72 351 97 q 376 40 354 47 q 443 32 397 32 l 461 32 q 579 56 528 32 q 676 133 631 79 q 765 278 721 186 l 796 278 q 781 233 789 260 q 767 178 774 207 q 749 102 760 151 q 731 0 738 53 q 573 3 660 3 q 417 4 486 4 q 322 4 379 4 q 198 3 265 4 q 63 2 131 3 q -67 0 -6 1 l -61 28 q 13 39 -14 31 q 54 72 39 47 q 82 147 69 97 l 265 836 q 276 912 279 888 q 252 945 274 936 q 183 956 231 954 l 190 983 q 318 981 250 982 q 453 980 386 981 q 578 979 521 979 q 672 979 635 979 q 815 980 736 979 q 960 983 894 981 q 930 901 942 935 q 907 819 918 867 q 897 772 901 794 q 889 733 892 750 l 858 733 m 601 1144 q 458 1103 538 1122 q 289 1069 378 1085 l 282 1089 q 517 1194 408 1129 q 692 1328 626 1258 l 717 1328 q 785 1190 743 1247 q 910 1089 828 1133 l 904 1069 q 782 1092 835 1081 q 686 1117 729 1104 q 601 1144 643 1129 m 943 1271 q 969 1338 950 1314 q 1010 1380 989 1363 q 1047 1420 1032 1397 q 1063 1485 1063 1443 q 1039 1553 1063 1533 q 975 1574 1015 1574 q 936 1569 953 1574 q 913 1561 919 1565 q 955 1532 939 1551 q 971 1483 971 1513 q 942 1421 971 1444 q 875 1397 914 1397 q 819 1417 840 1397 q 799 1468 799 1436 q 823 1528 799 1503 q 882 1569 847 1553 q 955 1593 915 1585 q 1040 1601 994 1601 q 1166 1576 1118 1601 q 1214 1493 1214 1550 q 1192 1431 1214 1453 q 1135 1395 1169 1408 q 1066 1369 1101 1382 q 1004 1333 1031 1356 q 971 1271 978 1311 l 943 1271 z "},"Ễ":{"ha":885,"x_min":-67,"x_max":1057,"o":"m 336 481 l 342 508 l 639 508 l 633 481 l 336 481 m 485 508 q 549 521 518 508 q 606 556 581 533 q 652 606 632 578 q 683 664 672 633 l 714 664 q 687 574 696 610 q 667 494 678 539 q 654 445 660 467 q 644 397 649 424 q 631 325 639 371 l 600 325 q 594 376 600 349 q 572 426 588 403 q 531 465 557 450 q 465 481 504 481 l 485 508 m 858 733 q 840 863 860 815 q 783 931 821 911 q 690 951 746 951 l 686 951 q 615 944 640 951 q 575 912 589 936 q 547 836 561 888 l 364 147 q 353 72 351 97 q 376 40 354 47 q 443 32 397 32 l 461 32 q 579 56 528 32 q 676 133 631 79 q 765 278 721 186 l 796 278 q 781 233 789 260 q 767 178 774 207 q 749 102 760 151 q 731 0 738 53 q 573 3 660 3 q 417 4 486 4 q 322 4 379 4 q 198 3 265 4 q 63 2 131 3 q -67 0 -6 1 l -61 28 q 13 39 -14 31 q 54 72 39 47 q 82 147 69 97 l 265 836 q 276 912 279 888 q 252 945 274 936 q 183 956 231 954 l 190 983 q 318 981 250 982 q 453 980 386 981 q 578 979 521 979 q 672 979 635 979 q 815 980 736 979 q 960 983 894 981 q 930 901 942 935 q 907 819 918 867 q 897 772 901 794 q 889 733 892 750 l 858 733 m 601 1144 q 458 1103 538 1122 q 289 1069 378 1085 l 282 1089 q 517 1194 408 1129 q 692 1328 626 1258 l 717 1328 q 785 1190 743 1247 q 910 1089 828 1133 l 904 1069 q 782 1092 835 1081 q 686 1117 729 1104 q 601 1144 643 1129 m 639 1622 q 729 1607 693 1622 q 793 1572 765 1592 q 849 1536 821 1551 q 918 1521 878 1521 q 978 1540 950 1521 q 1032 1601 1006 1558 l 1057 1594 q 940 1421 1013 1474 q 793 1368 867 1368 q 703 1383 739 1368 q 639 1419 667 1399 q 583 1454 611 1439 q 514 1469 554 1469 q 455 1451 482 1469 q 400 1389 428 1433 l 375 1396 q 492 1569 419 1517 q 639 1622 565 1622 z "},"Ë":{"ha":885,"x_min":-67,"x_max":960,"o":"m 336 481 l 342 508 l 639 508 l 633 481 l 336 481 m 485 508 q 549 521 518 508 q 606 556 581 533 q 652 606 632 578 q 683 664 672 633 l 714 664 q 687 574 696 610 q 667 494 678 539 q 654 445 660 467 q 644 397 649 424 q 631 325 639 371 l 600 325 q 594 376 600 349 q 572 426 588 403 q 531 465 557 450 q 465 481 504 481 l 485 508 m 858 733 q 840 863 860 815 q 783 931 821 911 q 690 951 746 951 l 686 951 q 615 944 640 951 q 575 912 589 936 q 547 836 561 888 l 364 147 q 353 72 351 97 q 376 40 354 47 q 443 32 397 32 l 461 32 q 579 56 528 32 q 676 133 631 79 q 765 278 721 186 l 796 278 q 781 233 789 260 q 767 178 774 207 q 749 102 760 151 q 731 0 738 53 q 573 3 660 3 q 417 4 486 4 q 322 4 379 4 q 198 3 265 4 q 63 2 131 3 q -67 0 -6 1 l -61 28 q 13 39 -14 31 q 54 72 39 47 q 82 147 69 97 l 265 836 q 276 912 279 888 q 252 945 274 936 q 183 956 231 954 l 190 983 q 318 981 250 982 q 453 980 386 981 q 578 979 521 979 q 672 979 635 979 q 815 980 736 979 q 960 983 894 981 q 930 901 942 935 q 907 819 918 867 q 897 772 901 794 q 889 733 892 750 l 858 733 m 319 1164 q 362 1268 319 1236 q 457 1300 404 1300 q 537 1270 513 1300 q 561 1192 561 1240 q 540 1115 561 1144 q 488 1072 519 1085 q 422 1058 457 1058 q 343 1088 367 1058 q 319 1164 319 1117 m 678 1164 q 720 1268 678 1236 q 815 1300 763 1300 q 895 1270 871 1300 q 919 1192 919 1240 q 899 1115 919 1144 q 847 1072 878 1085 q 781 1058 815 1058 q 701 1088 725 1058 q 678 1164 678 1117 z "},"Ė":{"ha":885,"x_min":-67,"x_max":960,"o":"m 336 481 l 342 508 l 639 508 l 633 481 l 336 481 m 485 508 q 549 521 518 508 q 606 556 581 533 q 652 606 632 578 q 683 664 672 633 l 714 664 q 687 574 696 610 q 667 494 678 539 q 654 445 660 467 q 644 397 649 424 q 631 325 639 371 l 600 325 q 594 376 600 349 q 572 426 588 403 q 531 465 557 450 q 465 481 504 481 l 485 508 m 858 733 q 840 863 860 815 q 783 931 821 911 q 690 951 746 951 l 686 951 q 615 944 640 951 q 575 912 589 936 q 547 836 561 888 l 364 147 q 353 72 351 97 q 376 40 354 47 q 443 32 397 32 l 461 32 q 579 56 528 32 q 676 133 631 79 q 765 278 721 186 l 796 278 q 781 233 789 260 q 767 178 774 207 q 749 102 760 151 q 731 0 738 53 q 573 3 660 3 q 417 4 486 4 q 322 4 379 4 q 198 3 265 4 q 63 2 131 3 q -67 0 -6 1 l -61 28 q 13 39 -14 31 q 54 72 39 47 q 82 147 69 97 l 265 836 q 276 912 279 888 q 252 945 274 936 q 183 956 231 954 l 190 983 q 318 981 250 982 q 453 980 386 981 q 578 979 521 979 q 672 979 635 979 q 815 980 736 979 q 960 983 894 981 q 930 901 942 935 q 907 819 918 867 q 897 772 901 794 q 889 733 892 750 l 858 733 m 474 1147 q 522 1258 474 1222 q 643 1294 571 1294 q 735 1271 704 1294 q 767 1200 767 1247 q 717 1095 767 1135 q 596 1056 668 1056 q 505 1079 536 1056 q 474 1147 474 1103 z "},"Ẹ":{"ha":885,"x_min":-67,"x_max":960,"o":"m 336 481 l 342 508 l 639 508 l 633 481 l 336 481 m 485 508 q 549 521 518 508 q 606 556 581 533 q 652 606 632 578 q 683 664 672 633 l 714 664 q 687 574 696 610 q 667 494 678 539 q 654 445 660 467 q 644 397 649 424 q 631 325 639 371 l 600 325 q 594 376 600 349 q 572 426 588 403 q 531 465 557 450 q 465 481 504 481 l 485 508 m 858 733 q 840 863 860 815 q 783 931 821 911 q 690 951 746 951 l 686 951 q 615 944 640 951 q 575 912 589 936 q 547 836 561 888 l 364 147 q 353 72 351 97 q 376 40 354 47 q 443 32 397 32 l 461 32 q 579 56 528 32 q 676 133 631 79 q 765 278 721 186 l 796 278 q 781 233 789 260 q 767 178 774 207 q 749 102 760 151 q 731 0 738 53 q 573 3 660 3 q 417 4 486 4 q 322 4 379 4 q 198 3 265 4 q 63 2 131 3 q -67 0 -6 1 l -61 28 q 13 39 -14 31 q 54 72 39 47 q 82 147 69 97 l 265 836 q 276 912 279 888 q 252 945 274 936 q 183 956 231 954 l 190 983 q 318 981 250 982 q 453 980 386 981 q 578 979 521 979 q 672 979 635 979 q 815 980 736 979 q 960 983 894 981 q 930 901 942 935 q 907 819 918 867 q 897 772 901 794 q 889 733 892 750 l 858 733 m 344 -265 q 268 -246 294 -265 q 242 -187 242 -226 q 279 -95 242 -128 q 382 -62 317 -62 q 458 -82 432 -62 q 485 -140 485 -101 q 447 -233 485 -200 q 344 -265 410 -265 z "},"È":{"ha":885,"x_min":-67,"x_max":960,"o":"m 336 481 l 342 508 l 639 508 l 633 481 l 336 481 m 485 508 q 549 521 518 508 q 606 556 581 533 q 652 606 632 578 q 683 664 672 633 l 714 664 q 687 574 696 610 q 667 494 678 539 q 654 445 660 467 q 644 397 649 424 q 631 325 639 371 l 600 325 q 594 376 600 349 q 572 426 588 403 q 531 465 557 450 q 465 481 504 481 l 485 508 m 858 733 q 840 863 860 815 q 783 931 821 911 q 690 951 746 951 l 686 951 q 615 944 640 951 q 575 912 589 936 q 547 836 561 888 l 364 147 q 353 72 351 97 q 376 40 354 47 q 443 32 397 32 l 461 32 q 579 56 528 32 q 676 133 631 79 q 765 278 721 186 l 796 278 q 781 233 789 260 q 767 178 774 207 q 749 102 760 151 q 731 0 738 53 q 573 3 660 3 q 417 4 486 4 q 322 4 379 4 q 198 3 265 4 q 63 2 131 3 q -67 0 -6 1 l -61 28 q 13 39 -14 31 q 54 72 39 47 q 82 147 69 97 l 265 836 q 276 912 279 888 q 252 945 274 936 q 183 956 231 954 l 190 983 q 318 981 250 982 q 453 980 386 981 q 578 979 521 979 q 672 979 635 979 q 815 980 736 979 q 960 983 894 981 q 930 901 942 935 q 907 819 918 867 q 897 772 901 794 q 889 733 892 750 l 858 733 m 681 1072 q 546 1106 600 1097 q 455 1121 492 1115 q 386 1143 418 1126 q 338 1195 351 1161 q 340 1263 324 1229 q 400 1310 360 1301 q 471 1304 440 1319 q 529 1260 506 1289 q 588 1190 553 1232 q 690 1089 624 1147 l 681 1072 z "},"Ẻ":{"ha":885,"x_min":-67,"x_max":960,"o":"m 336 481 l 342 508 l 639 508 l 633 481 l 336 481 m 485 508 q 549 521 518 508 q 606 556 581 533 q 652 606 632 578 q 683 664 672 633 l 714 664 q 687 574 696 610 q 667 494 678 539 q 654 445 660 467 q 644 397 649 424 q 631 325 639 371 l 600 325 q 594 376 600 349 q 572 426 588 403 q 531 465 557 450 q 465 481 504 481 l 485 508 m 858 733 q 840 863 860 815 q 783 931 821 911 q 690 951 746 951 l 686 951 q 615 944 640 951 q 575 912 589 936 q 547 836 561 888 l 364 147 q 353 72 351 97 q 376 40 354 47 q 443 32 397 32 l 461 32 q 579 56 528 32 q 676 133 631 79 q 765 278 721 186 l 796 278 q 781 233 789 260 q 767 178 774 207 q 749 102 760 151 q 731 0 738 53 q 573 3 660 3 q 417 4 486 4 q 322 4 379 4 q 198 3 265 4 q 63 2 131 3 q -67 0 -6 1 l -61 28 q 13 39 -14 31 q 54 72 39 47 q 82 147 69 97 l 265 836 q 276 912 279 888 q 252 945 274 936 q 183 956 231 954 l 190 983 q 318 981 250 982 q 453 980 386 981 q 578 979 521 979 q 672 979 635 979 q 815 980 736 979 q 960 983 894 981 q 930 901 942 935 q 907 819 918 867 q 897 772 901 794 q 889 733 892 750 l 858 733 m 588 1026 q 614 1094 594 1069 q 655 1135 633 1118 q 692 1176 676 1153 q 707 1240 707 1199 q 683 1309 707 1289 q 619 1329 660 1329 q 581 1325 597 1329 q 557 1317 564 1321 q 599 1288 583 1307 q 615 1239 615 1268 q 587 1176 615 1200 q 519 1153 558 1153 q 464 1172 485 1153 q 443 1224 443 1192 q 467 1283 443 1258 q 526 1325 492 1308 q 599 1349 560 1340 q 685 1357 639 1357 q 810 1331 763 1357 q 858 1249 858 1306 q 836 1186 858 1208 q 780 1151 814 1164 q 710 1124 746 1138 q 649 1089 675 1111 q 615 1026 622 1067 l 588 1026 z "},"Ē":{"ha":885,"x_min":-67,"x_max":960,"o":"m 336 481 l 342 508 l 639 508 l 633 481 l 336 481 m 485 508 q 549 521 518 508 q 606 556 581 533 q 652 606 632 578 q 683 664 672 633 l 714 664 q 687 574 696 610 q 667 494 678 539 q 654 445 660 467 q 644 397 649 424 q 631 325 639 371 l 600 325 q 594 376 600 349 q 572 426 588 403 q 531 465 557 450 q 465 481 504 481 l 485 508 m 858 733 q 840 863 860 815 q 783 931 821 911 q 690 951 746 951 l 686 951 q 615 944 640 951 q 575 912 589 936 q 547 836 561 888 l 364 147 q 353 72 351 97 q 376 40 354 47 q 443 32 397 32 l 461 32 q 579 56 528 32 q 676 133 631 79 q 765 278 721 186 l 796 278 q 781 233 789 260 q 767 178 774 207 q 749 102 760 151 q 731 0 738 53 q 573 3 660 3 q 417 4 486 4 q 322 4 379 4 q 198 3 265 4 q 63 2 131 3 q -67 0 -6 1 l -61 28 q 13 39 -14 31 q 54 72 39 47 q 82 147 69 97 l 265 836 q 276 912 279 888 q 252 945 274 936 q 183 956 231 954 l 190 983 q 318 981 250 982 q 453 980 386 981 q 578 979 521 979 q 672 979 635 979 q 815 980 736 979 q 960 983 894 981 q 930 901 942 935 q 907 819 918 867 q 897 772 901 794 q 889 733 892 750 l 858 733 m 908 1172 l 900 1138 l 300 1138 l 308 1172 l 908 1172 z "},"Ę":{"ha":885,"x_min":-67,"x_max":960,"o":"m 336 481 l 342 508 l 639 508 l 633 481 l 336 481 m 485 508 q 549 521 518 508 q 606 556 581 533 q 652 606 632 578 q 683 664 672 633 l 714 664 q 687 574 696 610 q 667 494 678 539 q 654 445 660 467 q 644 397 649 424 q 631 325 639 371 l 600 325 q 594 376 600 349 q 572 426 588 403 q 531 465 557 450 q 465 481 504 481 l 485 508 m 858 733 q 840 863 860 815 q 783 931 821 911 q 690 951 746 951 l 686 951 q 615 944 640 951 q 575 912 589 936 q 547 836 561 888 l 364 147 q 353 72 351 97 q 376 40 354 47 q 443 32 397 32 l 461 32 q 579 56 528 32 q 676 133 631 79 q 765 278 721 186 l 796 278 q 781 233 789 260 q 767 178 774 207 q 749 102 760 151 q 731 0 738 53 q 573 3 660 3 q 417 4 486 4 q 322 4 379 4 q 198 3 265 4 q 63 2 131 3 q -67 0 -6 1 l -61 28 q 13 39 -14 31 q 54 72 39 47 q 82 147 69 97 l 265 836 q 276 912 279 888 q 252 945 274 936 q 183 956 231 954 l 190 983 q 318 981 250 982 q 453 980 386 981 q 578 979 521 979 q 672 979 635 979 q 815 980 736 979 q 960 983 894 981 q 930 901 942 935 q 907 819 918 867 q 897 772 901 794 q 889 733 892 750 l 858 733 m 728 4 q 652 -42 682 -14 q 608 -99 622 -69 q 593 -154 593 -128 q 633 -190 593 -190 q 678 -184 653 -190 q 732 -164 704 -178 l 747 -187 q 639 -244 692 -226 q 529 -261 586 -261 q 438 -239 472 -261 q 403 -176 403 -217 q 445 -99 403 -133 q 556 -38 488 -64 q 703 4 625 -12 l 728 4 z "},"Ẽ":{"ha":885,"x_min":-67,"x_max":981,"o":"m 336 481 l 342 508 l 639 508 l 633 481 l 336 481 m 485 508 q 549 521 518 508 q 606 556 581 533 q 652 606 632 578 q 683 664 672 633 l 714 664 q 687 574 696 610 q 667 494 678 539 q 654 445 660 467 q 644 397 649 424 q 631 325 639 371 l 600 325 q 594 376 600 349 q 572 426 588 403 q 531 465 557 450 q 465 481 504 481 l 485 508 m 858 733 q 840 863 860 815 q 783 931 821 911 q 690 951 746 951 l 686 951 q 615 944 640 951 q 575 912 589 936 q 547 836 561 888 l 364 147 q 353 72 351 97 q 376 40 354 47 q 443 32 397 32 l 461 32 q 579 56 528 32 q 676 133 631 79 q 765 278 721 186 l 796 278 q 781 233 789 260 q 767 178 774 207 q 749 102 760 151 q 731 0 738 53 q 573 3 660 3 q 417 4 486 4 q 322 4 379 4 q 198 3 265 4 q 63 2 131 3 q -67 0 -6 1 l -61 28 q 13 39 -14 31 q 54 72 39 47 q 82 147 69 97 l 265 836 q 276 912 279 888 q 252 945 274 936 q 183 956 231 954 l 190 983 q 318 981 250 982 q 453 980 386 981 q 578 979 521 979 q 672 979 635 979 q 815 980 736 979 q 960 983 894 981 q 930 901 942 935 q 907 819 918 867 q 897 772 901 794 q 889 733 892 750 l 858 733 m 563 1317 q 653 1301 617 1317 q 717 1266 689 1286 q 773 1231 744 1246 q 842 1215 801 1215 q 901 1234 874 1215 q 956 1296 929 1253 l 981 1289 q 863 1115 936 1168 q 717 1063 790 1063 q 626 1078 663 1063 q 563 1113 590 1093 q 506 1149 535 1133 q 438 1164 478 1164 q 378 1146 406 1164 q 324 1083 351 1128 l 299 1090 q 416 1264 343 1211 q 563 1317 489 1317 z "},"Ʒ":{"ha":857,"x_min":-40,"x_max":946,"o":"m 946 983 l 939 956 l 601 474 l 578 553 q 742 447 688 506 q 797 297 797 389 q 736 134 797 206 q 572 22 675 63 q 340 -19 468 -19 q 188 -2 244 -19 q 99 31 131 15 q 65 46 79 40 q 39 51 50 51 q 14 36 25 51 q -8 -10 3 21 l -40 -10 q -14 74 -28 26 q 19 199 0 122 q 65 393 39 275 l 97 393 q 81 206 71 290 q 146 72 92 121 q 301 22 200 22 q 424 65 371 22 q 509 174 478 108 q 540 307 540 239 q 492 455 540 401 q 344 528 443 508 l 351 556 l 631 951 l 561 951 q 466 938 518 951 q 360 890 414 924 q 258 797 306 856 q 175 650 210 739 l 143 650 q 172 750 158 693 q 199 869 186 807 q 221 983 211 931 q 315 981 264 982 q 417 979 365 979 q 510 979 468 979 q 729 980 614 979 q 946 983 844 981 z "},"Ǯ":{"ha":857,"x_min":-40,"x_max":1032,"o":"m 946 983 l 939 956 l 601 474 l 578 553 q 742 447 688 506 q 797 297 797 389 q 736 134 797 206 q 572 22 675 63 q 340 -19 468 -19 q 188 -2 244 -19 q 99 31 131 15 q 65 46 79 40 q 39 51 50 51 q 14 36 25 51 q -8 -10 3 21 l -40 -10 q -14 74 -28 26 q 19 199 0 122 q 65 393 39 275 l 97 393 q 81 206 71 290 q 146 72 92 121 q 301 22 200 22 q 424 65 371 22 q 509 174 478 108 q 540 307 540 239 q 492 455 540 401 q 344 528 443 508 l 351 556 l 631 951 l 561 951 q 466 938 518 951 q 360 890 414 924 q 258 797 306 856 q 175 650 210 739 l 143 650 q 172 750 158 693 q 199 869 186 807 q 221 983 211 931 q 315 981 264 982 q 417 979 365 979 q 510 979 468 979 q 729 980 614 979 q 946 983 844 981 m 713 1239 q 857 1281 778 1261 q 1025 1314 936 1300 l 1032 1294 q 797 1190 906 1256 q 622 1056 688 1125 l 597 1056 q 528 1194 571 1138 q 404 1294 486 1250 l 410 1314 q 532 1291 479 1303 q 628 1267 585 1279 q 713 1239 672 1254 z "},"F":{"ha":838,"x_min":-67,"x_max":960,"o":"m 350 481 l 356 508 l 653 508 l 647 481 l 350 481 m 844 692 q 833 847 853 790 q 772 928 813 904 q 676 951 732 951 l 672 951 q 609 944 632 951 q 573 912 586 936 q 547 836 560 888 l 364 147 q 356 72 351 97 q 388 39 360 47 q 474 28 415 31 l 468 0 q 345 3 421 3 q 192 4 269 4 q 44 3 113 4 q -67 0 -25 3 l -61 28 q 13 39 -14 31 q 54 72 39 47 q 82 147 69 97 l 265 836 q 276 912 279 888 q 252 945 274 936 q 183 956 231 954 l 190 983 q 318 981 250 982 q 453 980 386 981 q 578 979 521 979 q 672 979 635 979 q 815 980 736 979 q 960 983 894 981 q 931 901 942 935 q 907 819 919 867 q 889 750 897 782 q 875 692 881 718 l 844 692 m 499 508 q 560 519 531 508 q 614 551 589 531 q 660 600 639 571 q 697 664 682 629 l 728 664 q 701 574 710 610 q 681 494 692 539 q 660 402 671 451 q 638 283 650 353 l 607 283 q 599 368 607 332 q 574 430 590 404 q 533 468 557 456 q 479 481 510 481 l 499 508 z "},"G":{"ha":1057,"x_min":42,"x_max":1085,"o":"m 494 8 q 532 13 513 8 q 567 28 551 17 q 597 67 588 43 q 619 139 607 92 l 651 261 q 663 346 667 318 q 633 383 660 374 q 547 394 606 393 l 554 422 q 632 420 586 421 q 727 419 678 419 q 818 418 776 418 q 949 419 889 418 q 1047 422 1010 421 l 1040 394 q 992 385 1010 393 q 963 351 975 376 q 938 275 951 326 l 864 0 l 836 0 q 824 62 838 44 q 782 79 810 79 q 701 58 743 79 q 622 21 658 36 q 528 -11 571 -3 q 444 -19 486 -19 q 149 64 257 -19 q 42 299 42 147 q 74 492 42 393 q 169 682 107 590 q 317 846 231 774 q 513 960 404 918 q 747 1003 621 1003 q 887 976 838 1003 q 975 913 936 950 q 1014 906 996 892 q 1054 983 1032 919 l 1085 983 q 1042 852 1064 929 q 996 664 1019 775 l 965 664 q 970 717 968 692 q 972 768 972 743 q 969 821 972 797 q 953 869 965 844 q 873 950 926 922 q 739 978 819 978 q 592 928 658 978 q 476 798 526 879 q 392 620 425 717 q 341 427 358 524 q 324 253 324 331 q 367 68 324 128 q 494 8 410 8 z "},"Ǵ":{"ha":1057,"x_min":42,"x_max":1146,"o":"m 494 8 q 532 13 513 8 q 567 28 551 17 q 597 67 588 43 q 619 139 607 92 l 651 261 q 663 346 667 318 q 633 383 660 374 q 547 394 606 393 l 554 422 q 632 420 586 421 q 727 419 678 419 q 818 418 776 418 q 949 419 889 418 q 1047 422 1010 421 l 1040 394 q 992 385 1010 393 q 963 351 975 376 q 938 275 951 326 l 864 0 l 836 0 q 824 62 838 44 q 782 79 810 79 q 701 58 743 79 q 622 21 658 36 q 528 -11 571 -3 q 444 -19 486 -19 q 149 64 257 -19 q 42 299 42 147 q 74 492 42 393 q 169 682 107 590 q 317 846 231 774 q 513 960 404 918 q 747 1003 621 1003 q 887 976 838 1003 q 975 913 936 950 q 1014 906 996 892 q 1054 983 1032 919 l 1085 983 q 1042 852 1064 929 q 996 664 1019 775 l 965 664 q 970 717 968 692 q 972 768 972 743 q 969 821 972 797 q 953 869 965 844 q 873 950 926 922 q 739 978 819 978 q 592 928 658 978 q 476 798 526 879 q 392 620 425 717 q 341 427 358 524 q 324 253 324 331 q 367 68 324 128 q 494 8 410 8 m 717 1089 q 825 1194 783 1147 q 901 1275 867 1240 q 975 1331 935 1310 q 1027 1346 999 1343 q 1083 1338 1056 1349 q 1125 1299 1110 1328 q 1126 1226 1146 1260 q 1063 1169 1106 1193 q 979 1138 1026 1150 q 870 1113 932 1126 q 726 1072 808 1099 l 717 1089 z "},"Ğ":{"ha":1057,"x_min":42,"x_max":1106,"o":"m 494 8 q 532 13 513 8 q 567 28 551 17 q 597 67 588 43 q 619 139 607 92 l 651 261 q 663 346 667 318 q 633 383 660 374 q 547 394 606 393 l 554 422 q 632 420 586 421 q 727 419 678 419 q 818 418 776 418 q 949 419 889 418 q 1047 422 1010 421 l 1040 394 q 992 385 1010 393 q 963 351 975 376 q 938 275 951 326 l 864 0 l 836 0 q 824 62 838 44 q 782 79 810 79 q 701 58 743 79 q 622 21 658 36 q 528 -11 571 -3 q 444 -19 486 -19 q 149 64 257 -19 q 42 299 42 147 q 74 492 42 393 q 169 682 107 590 q 317 846 231 774 q 513 960 404 918 q 747 1003 621 1003 q 887 976 838 1003 q 975 913 936 950 q 1014 906 996 892 q 1054 983 1032 919 l 1085 983 q 1042 852 1064 929 q 996 664 1019 775 l 965 664 q 970 717 968 692 q 972 768 972 743 q 969 821 972 797 q 953 869 965 844 q 873 950 926 922 q 739 978 819 978 q 592 928 658 978 q 476 798 526 879 q 392 620 425 717 q 341 427 358 524 q 324 253 324 331 q 367 68 324 128 q 494 8 410 8 m 765 1225 q 944 1244 867 1225 q 1089 1303 1022 1264 l 1106 1290 q 1012 1178 1069 1231 q 883 1092 954 1125 q 736 1060 813 1060 q 622 1090 668 1060 q 547 1172 575 1121 q 508 1286 519 1224 l 529 1297 q 626 1243 572 1261 q 765 1225 681 1225 z "},"Ǧ":{"ha":1057,"x_min":42,"x_max":1174,"o":"m 494 8 q 532 13 513 8 q 567 28 551 17 q 597 67 588 43 q 619 139 607 92 l 651 261 q 663 346 667 318 q 633 383 660 374 q 547 394 606 393 l 554 422 q 632 420 586 421 q 727 419 678 419 q 818 418 776 418 q 949 419 889 418 q 1047 422 1010 421 l 1040 394 q 992 385 1010 393 q 963 351 975 376 q 938 275 951 326 l 864 0 l 836 0 q 824 62 838 44 q 782 79 810 79 q 701 58 743 79 q 622 21 658 36 q 528 -11 571 -3 q 444 -19 486 -19 q 149 64 257 -19 q 42 299 42 147 q 74 492 42 393 q 169 682 107 590 q 317 846 231 774 q 513 960 404 918 q 747 1003 621 1003 q 887 976 838 1003 q 975 913 936 950 q 1014 906 996 892 q 1054 983 1032 919 l 1085 983 q 1042 852 1064 929 q 996 664 1019 775 l 965 664 q 970 717 968 692 q 972 768 972 743 q 969 821 972 797 q 953 869 965 844 q 873 950 926 922 q 739 978 819 978 q 592 928 658 978 q 476 798 526 879 q 392 620 425 717 q 341 427 358 524 q 324 253 324 331 q 367 68 324 128 q 494 8 410 8 m 854 1239 q 999 1281 919 1261 q 1167 1314 1078 1300 l 1174 1294 q 938 1190 1047 1256 q 764 1056 829 1125 l 739 1056 q 670 1194 713 1138 q 546 1294 628 1250 l 551 1314 q 674 1291 621 1303 q 770 1267 726 1279 q 854 1239 814 1254 z "},"Ĝ":{"ha":1057,"x_min":42,"x_max":1085,"o":"m 494 8 q 532 13 513 8 q 567 28 551 17 q 597 67 588 43 q 619 139 607 92 l 651 261 q 663 346 667 318 q 633 383 660 374 q 547 394 606 393 l 554 422 q 632 420 586 421 q 727 419 678 419 q 818 418 776 418 q 949 419 889 418 q 1047 422 1010 421 l 1040 394 q 992 385 1010 393 q 963 351 975 376 q 938 275 951 326 l 864 0 l 836 0 q 824 62 838 44 q 782 79 810 79 q 701 58 743 79 q 622 21 658 36 q 528 -11 571 -3 q 444 -19 486 -19 q 149 64 257 -19 q 42 299 42 147 q 74 492 42 393 q 169 682 107 590 q 317 846 231 774 q 513 960 404 918 q 747 1003 621 1003 q 887 976 838 1003 q 975 913 936 950 q 1014 906 996 892 q 1054 983 1032 919 l 1085 983 q 1042 852 1064 929 q 996 664 1019 775 l 965 664 q 970 717 968 692 q 972 768 972 743 q 969 821 972 797 q 953 869 965 844 q 873 950 926 922 q 739 978 819 978 q 592 928 658 978 q 476 798 526 879 q 392 620 425 717 q 341 427 358 524 q 324 253 324 331 q 367 68 324 128 q 494 8 410 8 m 740 1144 q 597 1103 676 1122 q 428 1069 517 1085 l 421 1089 q 656 1194 547 1129 q 831 1328 765 1258 l 856 1328 q 924 1190 882 1247 q 1049 1089 967 1133 l 1043 1069 q 921 1092 974 1081 q 825 1117 868 1104 q 740 1144 782 1129 z "},"Ģ":{"ha":1057,"x_min":42,"x_max":1085,"o":"m 494 8 q 532 13 513 8 q 567 28 551 17 q 597 67 588 43 q 619 139 607 92 l 651 261 q 663 346 667 318 q 633 383 660 374 q 547 394 606 393 l 554 422 q 632 420 586 421 q 727 419 678 419 q 818 418 776 418 q 949 419 889 418 q 1047 422 1010 421 l 1040 394 q 992 385 1010 393 q 963 351 975 376 q 938 275 951 326 l 864 0 l 836 0 q 824 62 838 44 q 782 79 810 79 q 701 58 743 79 q 622 21 658 36 q 528 -11 571 -3 q 444 -19 486 -19 q 149 64 257 -19 q 42 299 42 147 q 74 492 42 393 q 169 682 107 590 q 317 846 231 774 q 513 960 404 918 q 747 1003 621 1003 q 887 976 838 1003 q 975 913 936 950 q 1014 906 996 892 q 1054 983 1032 919 l 1085 983 q 1042 852 1064 929 q 996 664 1019 775 l 965 664 q 970 717 968 692 q 972 768 972 743 q 969 821 972 797 q 953 869 965 844 q 873 950 926 922 q 739 978 819 978 q 592 928 658 978 q 476 798 526 879 q 392 620 425 717 q 341 427 358 524 q 324 253 324 331 q 367 68 324 128 q 494 8 410 8 m 468 -58 q 540 -78 506 -58 q 575 -147 575 -99 q 510 -282 575 -232 q 347 -335 446 -332 l 347 -306 q 456 -284 413 -304 q 510 -231 500 -264 q 469 -249 492 -242 q 417 -256 446 -256 q 344 -237 369 -256 q 319 -182 319 -219 q 364 -92 319 -125 q 468 -58 408 -58 z "},"Ġ":{"ha":1057,"x_min":42,"x_max":1085,"o":"m 494 8 q 532 13 513 8 q 567 28 551 17 q 597 67 588 43 q 619 139 607 92 l 651 261 q 663 346 667 318 q 633 383 660 374 q 547 394 606 393 l 554 422 q 632 420 586 421 q 727 419 678 419 q 818 418 776 418 q 949 419 889 418 q 1047 422 1010 421 l 1040 394 q 992 385 1010 393 q 963 351 975 376 q 938 275 951 326 l 864 0 l 836 0 q 824 62 838 44 q 782 79 810 79 q 701 58 743 79 q 622 21 658 36 q 528 -11 571 -3 q 444 -19 486 -19 q 149 64 257 -19 q 42 299 42 147 q 74 492 42 393 q 169 682 107 590 q 317 846 231 774 q 513 960 404 918 q 747 1003 621 1003 q 887 976 838 1003 q 975 913 936 950 q 1014 906 996 892 q 1054 983 1032 919 l 1085 983 q 1042 852 1064 929 q 996 664 1019 775 l 965 664 q 970 717 968 692 q 972 768 972 743 q 969 821 972 797 q 953 869 965 844 q 873 950 926 922 q 739 978 819 978 q 592 928 658 978 q 476 798 526 879 q 392 620 425 717 q 341 427 358 524 q 324 253 324 331 q 367 68 324 128 q 494 8 410 8 m 613 1147 q 661 1258 613 1222 q 782 1294 710 1294 q 874 1271 843 1294 q 906 1200 906 1247 q 856 1095 906 1135 q 735 1056 807 1056 q 644 1079 675 1056 q 613 1147 613 1103 z "},"Ǥ":{"ha":1057,"x_min":42,"x_max":1085,"o":"m 444 -19 q 149 64 257 -19 q 42 299 42 147 q 74 492 42 393 q 169 682 107 590 q 317 846 231 774 q 513 960 404 918 q 747 1003 621 1003 q 887 976 838 1003 q 975 913 936 950 q 1014 906 996 892 q 1054 983 1032 919 l 1085 983 q 1042 852 1064 929 q 996 664 1019 775 l 965 664 q 970 717 968 692 q 972 768 972 743 q 969 821 972 797 q 953 869 965 844 q 873 950 926 922 q 739 978 819 978 q 592 928 658 978 q 476 798 526 879 q 392 620 425 717 q 341 427 358 524 q 324 253 324 331 q 367 68 324 128 q 494 8 410 8 q 532 13 513 8 q 567 28 551 17 q 597 68 588 43 q 619 139 607 93 l 663 303 q 674 386 678 358 q 644 424 671 414 q 558 436 617 435 l 565 464 q 643 462 597 463 q 738 460 689 461 q 829 460 788 460 q 960 461 900 460 q 1058 464 1021 463 l 1051 436 q 1003 426 1021 435 q 974 392 986 417 q 949 317 963 368 l 864 0 l 836 0 q 824 62 838 44 q 782 79 810 79 q 701 58 743 79 q 622 21 658 36 q 528 -11 571 -3 q 444 -19 486 -19 m 521 247 l 526 275 l 1033 275 l 1028 247 l 521 247 z "},"H":{"ha":1175,"x_min":-65,"x_max":1286,"o":"m 357 481 l 367 508 l 857 508 l 846 481 l 357 481 m 854 836 q 866 912 868 888 q 842 945 864 936 q 772 956 819 954 l 779 983 q 888 981 821 982 q 1024 979 956 979 q 1173 981 1103 979 q 1286 983 1243 982 l 1279 956 q 1206 945 1232 954 q 1165 912 1179 936 q 1136 836 1150 888 l 953 147 q 942 72 940 97 q 965 39 943 47 q 1035 28 988 31 l 1029 0 q 917 3 988 3 q 768 4 847 4 q 633 3 700 4 q 522 0 565 3 l 528 28 q 601 39 575 31 q 643 72 628 47 q 671 147 658 97 l 854 836 m 364 147 q 353 72 351 97 q 376 39 354 47 q 446 28 399 31 l 440 0 q 331 3 397 3 q 194 4 264 4 q 47 3 115 4 q -65 0 -22 3 l -58 28 q 13 39 -12 31 q 54 72 39 47 q 82 147 69 97 l 265 836 q 276 912 279 888 q 252 945 274 936 q 183 956 231 954 l 190 983 q 301 981 231 982 q 450 979 371 979 q 584 981 519 979 q 697 983 649 982 l 690 956 q 617 945 643 954 q 576 912 590 936 q 547 836 561 888 l 364 147 z "},"Ħ":{"ha":1175,"x_min":-65,"x_max":1286,"o":"m 357 481 l 367 508 l 857 508 l 846 481 l 357 481 m 854 836 q 866 912 868 888 q 842 945 864 936 q 772 956 819 954 l 779 983 q 888 981 821 982 q 1024 979 956 979 q 1173 981 1103 979 q 1286 983 1243 982 l 1279 956 q 1206 945 1232 954 q 1165 912 1179 936 q 1136 836 1150 888 l 953 147 q 942 72 940 97 q 965 39 943 47 q 1035 28 988 31 l 1029 0 q 917 3 988 3 q 768 4 847 4 q 633 3 700 4 q 522 0 565 3 l 528 28 q 601 39 575 31 q 643 72 628 47 q 671 147 658 97 l 854 836 m 364 147 q 353 72 351 97 q 376 39 354 47 q 446 28 399 31 l 440 0 q 331 3 397 3 q 194 4 264 4 q 47 3 115 4 q -65 0 -22 3 l -58 28 q 13 39 -12 31 q 54 72 39 47 q 82 147 69 97 l 265 836 q 276 912 279 888 q 252 945 274 936 q 183 956 231 954 l 190 983 q 301 981 231 982 q 450 979 371 979 q 584 981 519 979 q 697 983 649 982 l 690 956 q 617 945 643 954 q 576 912 590 936 q 547 836 561 888 l 364 147 m 1264 740 l 1257 713 l 86 713 l 93 740 l 1264 740 z "},"Ȟ":{"ha":1175,"x_min":-65,"x_max":1286,"o":"m 357 481 l 367 508 l 857 508 l 846 481 l 357 481 m 854 836 q 866 912 868 888 q 842 945 864 936 q 772 956 819 954 l 779 983 q 888 981 821 982 q 1024 979 956 979 q 1173 981 1103 979 q 1286 983 1243 982 l 1279 956 q 1206 945 1232 954 q 1165 912 1179 936 q 1136 836 1150 888 l 953 147 q 942 72 940 97 q 965 39 943 47 q 1035 28 988 31 l 1029 0 q 917 3 988 3 q 768 4 847 4 q 633 3 700 4 q 522 0 565 3 l 528 28 q 601 39 575 31 q 643 72 628 47 q 671 147 658 97 l 854 836 m 364 147 q 353 72 351 97 q 376 39 354 47 q 446 28 399 31 l 440 0 q 331 3 397 3 q 194 4 264 4 q 47 3 115 4 q -65 0 -22 3 l -58 28 q 13 39 -12 31 q 54 72 39 47 q 82 147 69 97 l 265 836 q 276 912 279 888 q 252 945 274 936 q 183 956 231 954 l 190 983 q 301 981 231 982 q 450 979 371 979 q 584 981 519 979 q 697 983 649 982 l 690 956 q 617 945 643 954 q 576 912 590 936 q 547 836 561 888 l 364 147 m 861 1239 q 1006 1281 926 1261 q 1174 1314 1085 1300 l 1181 1294 q 945 1190 1054 1256 q 771 1056 836 1125 l 746 1056 q 677 1194 719 1138 q 553 1294 635 1250 l 558 1314 q 681 1291 628 1303 q 777 1267 733 1279 q 861 1239 821 1254 z "},"Ĥ":{"ha":1175,"x_min":-65,"x_max":1286,"o":"m 357 481 l 367 508 l 857 508 l 846 481 l 357 481 m 854 836 q 866 912 868 888 q 842 945 864 936 q 772 956 819 954 l 779 983 q 888 981 821 982 q 1024 979 956 979 q 1173 981 1103 979 q 1286 983 1243 982 l 1279 956 q 1206 945 1232 954 q 1165 912 1179 936 q 1136 836 1150 888 l 953 147 q 942 72 940 97 q 965 39 943 47 q 1035 28 988 31 l 1029 0 q 917 3 988 3 q 768 4 847 4 q 633 3 700 4 q 522 0 565 3 l 528 28 q 601 39 575 31 q 643 72 628 47 q 671 147 658 97 l 854 836 m 364 147 q 353 72 351 97 q 376 39 354 47 q 446 28 399 31 l 440 0 q 331 3 397 3 q 194 4 264 4 q 47 3 115 4 q -65 0 -22 3 l -58 28 q 13 39 -12 31 q 54 72 39 47 q 82 147 69 97 l 265 836 q 276 912 279 888 q 252 945 274 936 q 183 956 231 954 l 190 983 q 301 981 231 982 q 450 979 371 979 q 584 981 519 979 q 697 983 649 982 l 690 956 q 617 945 643 954 q 576 912 590 936 q 547 836 561 888 l 364 147 m 747 1144 q 603 1103 683 1122 q 435 1069 524 1085 l 428 1089 q 663 1194 554 1129 q 838 1328 772 1258 l 863 1328 q 931 1190 889 1247 q 1056 1089 974 1133 l 1050 1069 q 928 1092 981 1081 q 832 1117 875 1104 q 747 1144 789 1129 z "},"I":{"ha":586,"x_min":-65,"x_max":697,"o":"m 364 147 q 353 72 351 97 q 376 39 354 47 q 446 28 399 31 l 440 0 q 325 3 396 3 q 181 4 254 4 q 40 3 106 4 q -65 0 -25 3 l -58 28 q 13 39 -12 31 q 54 72 39 47 q 82 147 69 97 l 265 836 q 276 912 279 888 q 252 945 274 936 q 183 956 231 954 l 190 983 q 295 981 229 982 q 436 979 361 979 q 578 981 510 979 q 697 983 646 982 l 690 956 q 617 945 643 954 q 576 912 590 936 q 547 836 561 888 l 364 147 z "},"Ĳ":{"ha":1219,"x_min":0,"x_max":1369,"o":"m 1192 508 q 1190 494 1192 508 q 1188 481 1188 481 l 589 481 q 591 494 589 481 q 593 508 593 508 l 1192 508 m 450 642 q 585 655 536 642 q 681 690 633 668 l 690 665 q 591 627 643 643 q 447 611 539 611 q 320 625 378 611 q 220 666 263 639 q 155 735 178 693 q 132 832 132 776 q 161 934 132 890 q 250 1002 190 978 q 399 1026 310 1026 q 530 1013 474 1026 q 634 979 586 999 q 728 940 682 960 q 827 906 774 919 q 950 892 881 892 q 1044 897 992 892 q 1149 912 1096 901 q 1247 940 1203 922 q 1304 1008 1276 985 q 1353 1014 1332 1032 q 1351 976 1369 1000 q 1260 925 1333 953 q 1160 797 1201 872 q 1089 628 1119 721 q 1031 426 1058 535 l 944 90 q 866 -85 921 -4 q 717 -213 811 -165 q 476 -261 622 -261 q 362 -249 414 -261 q 278 -210 310 -237 q 247 -137 247 -183 q 284 -51 247 -85 q 392 -17 321 -17 q 491 -42 450 -17 q 532 -118 532 -67 q 509 -186 532 -157 q 442 -235 486 -215 q 460 -237 453 -236 q 474 -237 467 -237 q 528 -222 506 -237 q 569 -175 551 -207 q 605 -92 588 -143 q 642 28 622 -42 l 738 364 q 813 548 768 469 q 916 687 857 626 q 1048 799 975 747 q 1206 903 1121 850 q 1071 859 1128 885 q 965 810 1014 833 q 860 770 915 786 q 732 754 806 754 q 634 764 681 754 q 542 786 588 774 q 452 808 497 799 q 358 818 407 818 q 285 801 311 818 q 258 747 258 785 q 278 693 258 717 q 341 656 299 669 q 450 642 383 642 m 301 639 l 583 639 l 429 147 q 416 72 414 97 q 441 39 418 47 q 511 28 464 31 l 506 0 q 390 3 461 3 q 246 4 319 4 q 106 3 171 4 q 0 0 40 3 l 7 28 q 77 39 53 31 q 117 72 101 47 q 147 147 132 97 l 301 639 z "},"Í":{"ha":586,"x_min":-65,"x_max":876,"o":"m 364 147 q 353 72 351 97 q 376 39 354 47 q 446 28 399 31 l 440 0 q 325 3 396 3 q 181 4 254 4 q 40 3 106 4 q -65 0 -25 3 l -58 28 q 13 39 -12 31 q 54 72 39 47 q 82 147 69 97 l 265 836 q 276 912 279 888 q 252 945 274 936 q 183 956 231 954 l 190 983 q 295 981 229 982 q 436 979 361 979 q 578 981 510 979 q 697 983 646 982 l 690 956 q 617 945 643 954 q 576 912 590 936 q 547 836 561 888 l 364 147 m 447 1089 q 556 1194 514 1147 q 631 1275 597 1240 q 706 1331 665 1310 q 758 1346 729 1343 q 813 1338 786 1349 q 856 1299 840 1328 q 856 1226 876 1260 q 793 1169 836 1193 q 710 1138 757 1150 q 601 1113 663 1126 q 457 1072 539 1099 l 447 1089 z "},"Ĭ":{"ha":586,"x_min":-65,"x_max":836,"o":"m 364 147 q 353 72 351 97 q 376 39 354 47 q 446 28 399 31 l 440 0 q 325 3 396 3 q 181 4 254 4 q 40 3 106 4 q -65 0 -25 3 l -58 28 q 13 39 -12 31 q 54 72 39 47 q 82 147 69 97 l 265 836 q 276 912 279 888 q 252 945 274 936 q 183 956 231 954 l 190 983 q 295 981 229 982 q 436 979 361 979 q 578 981 510 979 q 697 983 646 982 l 690 956 q 617 945 643 954 q 576 912 590 936 q 547 836 561 888 l 364 147 m 496 1225 q 675 1244 597 1225 q 819 1303 753 1264 l 836 1290 q 742 1178 800 1231 q 614 1092 685 1125 q 467 1060 543 1060 q 352 1090 399 1060 q 278 1172 306 1121 q 239 1286 250 1224 l 260 1297 q 357 1243 303 1261 q 496 1225 411 1225 z "},"Î":{"ha":586,"x_min":-65,"x_max":779,"o":"m 364 147 q 353 72 351 97 q 376 39 354 47 q 446 28 399 31 l 440 0 q 325 3 396 3 q 181 4 254 4 q 40 3 106 4 q -65 0 -25 3 l -58 28 q 13 39 -12 31 q 54 72 39 47 q 82 147 69 97 l 265 836 q 276 912 279 888 q 252 945 274 936 q 183 956 231 954 l 190 983 q 295 981 229 982 q 436 979 361 979 q 578 981 510 979 q 697 983 646 982 l 690 956 q 617 945 643 954 q 576 912 590 936 q 547 836 561 888 l 364 147 m 471 1144 q 327 1103 407 1122 q 158 1069 247 1085 l 151 1089 q 387 1194 278 1129 q 561 1328 496 1258 l 586 1328 q 655 1190 613 1247 q 779 1089 697 1133 l 774 1069 q 651 1092 704 1081 q 556 1117 599 1104 q 471 1144 513 1129 z "},"Ï":{"ha":586,"x_min":-65,"x_max":789,"o":"m 364 147 q 353 72 351 97 q 376 39 354 47 q 446 28 399 31 l 440 0 q 325 3 396 3 q 181 4 254 4 q 40 3 106 4 q -65 0 -25 3 l -58 28 q 13 39 -12 31 q 54 72 39 47 q 82 147 69 97 l 265 836 q 276 912 279 888 q 252 945 274 936 q 183 956 231 954 l 190 983 q 295 981 229 982 q 436 979 361 979 q 578 981 510 979 q 697 983 646 982 l 690 956 q 617 945 643 954 q 576 912 590 936 q 547 836 561 888 l 364 147 m 189 1164 q 231 1268 189 1236 q 326 1300 274 1300 q 406 1270 382 1300 q 431 1192 431 1240 q 410 1115 431 1144 q 358 1072 389 1085 q 292 1058 326 1058 q 213 1088 236 1058 q 189 1164 189 1117 m 547 1164 q 590 1268 547 1236 q 685 1300 632 1300 q 765 1270 740 1300 q 789 1192 789 1240 q 768 1115 789 1144 q 716 1072 747 1085 q 650 1058 685 1058 q 571 1088 594 1058 q 547 1164 547 1117 z "},"İ":{"ha":586,"x_min":-65,"x_max":697,"o":"m 364 147 q 353 72 351 97 q 376 39 354 47 q 446 28 399 31 l 440 0 q 325 3 396 3 q 181 4 254 4 q 40 3 106 4 q -65 0 -25 3 l -58 28 q 13 39 -12 31 q 54 72 39 47 q 82 147 69 97 l 265 836 q 276 912 279 888 q 252 945 274 936 q 183 956 231 954 l 190 983 q 295 981 229 982 q 436 979 361 979 q 578 981 510 979 q 697 983 646 982 l 690 956 q 617 945 643 954 q 576 912 590 936 q 547 836 561 888 l 364 147 m 343 1147 q 392 1258 343 1222 q 513 1294 440 1294 q 605 1271 574 1294 q 636 1200 636 1247 q 587 1095 636 1135 q 465 1056 538 1056 q 374 1079 406 1056 q 343 1147 343 1103 z "},"Ị":{"ha":586,"x_min":-65,"x_max":697,"o":"m 364 147 q 353 72 351 97 q 376 39 354 47 q 446 28 399 31 l 440 0 q 325 3 396 3 q 181 4 254 4 q 40 3 106 4 q -65 0 -25 3 l -58 28 q 13 39 -12 31 q 54 72 39 47 q 82 147 69 97 l 265 836 q 276 912 279 888 q 252 945 274 936 q 183 956 231 954 l 190 983 q 295 981 229 982 q 436 979 361 979 q 578 981 510 979 q 697 983 646 982 l 690 956 q 617 945 643 954 q 576 912 590 936 q 547 836 561 888 l 364 147 m 138 -265 q 61 -246 88 -265 q 35 -187 35 -226 q 72 -95 35 -128 q 175 -62 110 -62 q 251 -82 225 -62 q 278 -140 278 -101 q 240 -233 278 -200 q 138 -265 203 -265 z "},"Ì":{"ha":586,"x_min":-65,"x_max":697,"o":"m 364 147 q 353 72 351 97 q 376 39 354 47 q 446 28 399 31 l 440 0 q 325 3 396 3 q 181 4 254 4 q 40 3 106 4 q -65 0 -25 3 l -58 28 q 13 39 -12 31 q 54 72 39 47 q 82 147 69 97 l 265 836 q 276 912 279 888 q 252 945 274 936 q 183 956 231 954 l 190 983 q 295 981 229 982 q 436 979 361 979 q 578 981 510 979 q 697 983 646 982 l 690 956 q 617 945 643 954 q 576 912 590 936 q 547 836 561 888 l 364 147 m 550 1072 q 415 1106 469 1097 q 324 1121 361 1115 q 256 1143 288 1126 q 207 1195 221 1161 q 210 1263 193 1229 q 269 1310 229 1301 q 340 1304 310 1319 q 399 1260 375 1289 q 458 1190 422 1232 q 560 1089 493 1147 l 550 1072 z "},"Ỉ":{"ha":586,"x_min":-65,"x_max":728,"o":"m 364 147 q 353 72 351 97 q 376 39 354 47 q 446 28 399 31 l 440 0 q 325 3 396 3 q 181 4 254 4 q 40 3 106 4 q -65 0 -25 3 l -58 28 q 13 39 -12 31 q 54 72 39 47 q 82 147 69 97 l 265 836 q 276 912 279 888 q 252 945 274 936 q 183 956 231 954 l 190 983 q 295 981 229 982 q 436 979 361 979 q 578 981 510 979 q 697 983 646 982 l 690 956 q 617 945 643 954 q 576 912 590 936 q 547 836 561 888 l 364 147 m 457 1026 q 483 1094 464 1069 q 524 1135 503 1118 q 561 1176 546 1153 q 576 1240 576 1199 q 553 1309 576 1289 q 489 1329 529 1329 q 450 1325 467 1329 q 426 1317 433 1321 q 469 1288 453 1307 q 485 1239 485 1268 q 456 1176 485 1200 q 389 1153 428 1153 q 333 1172 354 1153 q 313 1224 313 1192 q 337 1283 313 1258 q 396 1325 361 1308 q 469 1349 429 1340 q 554 1357 508 1357 q 680 1331 632 1357 q 728 1249 728 1306 q 706 1186 728 1208 q 649 1151 683 1164 q 580 1124 615 1138 q 518 1089 544 1111 q 485 1026 492 1067 l 457 1026 z "},"Ī":{"ha":586,"x_min":-65,"x_max":778,"o":"m 364 147 q 353 72 351 97 q 376 39 354 47 q 446 28 399 31 l 440 0 q 325 3 396 3 q 181 4 254 4 q 40 3 106 4 q -65 0 -25 3 l -58 28 q 13 39 -12 31 q 54 72 39 47 q 82 147 69 97 l 265 836 q 276 912 279 888 q 252 945 274 936 q 183 956 231 954 l 190 983 q 295 981 229 982 q 436 979 361 979 q 578 981 510 979 q 697 983 646 982 l 690 956 q 617 945 643 954 q 576 912 590 936 q 547 836 561 888 l 364 147 m 778 1172 l 769 1138 l 169 1138 l 178 1172 l 778 1172 z "},"Į":{"ha":586,"x_min":-65,"x_max":697,"o":"m 364 147 q 353 72 351 97 q 376 39 354 47 q 446 28 399 31 l 440 0 q 325 3 396 3 q 181 4 254 4 q 40 3 106 4 q -65 0 -25 3 l -58 28 q 13 39 -12 31 q 54 72 39 47 q 82 147 69 97 l 265 836 q 276 912 279 888 q 252 945 274 936 q 183 956 231 954 l 190 983 q 295 981 229 982 q 436 979 361 979 q 578 981 510 979 q 697 983 646 982 l 690 956 q 617 945 643 954 q 576 912 590 936 q 547 836 561 888 l 364 147 m 424 4 q 348 -42 378 -14 q 303 -99 318 -69 q 289 -154 289 -128 q 329 -190 289 -190 q 374 -184 349 -190 q 428 -164 400 -178 l 443 -187 q 335 -244 388 -226 q 225 -261 282 -261 q 133 -239 168 -261 q 99 -176 99 -217 q 141 -99 99 -133 q 252 -38 183 -64 q 399 4 321 -12 l 424 4 z "},"Ĩ":{"ha":586,"x_min":-65,"x_max":850,"o":"m 364 147 q 353 72 351 97 q 376 39 354 47 q 446 28 399 31 l 440 0 q 325 3 396 3 q 181 4 254 4 q 40 3 106 4 q -65 0 -25 3 l -58 28 q 13 39 -12 31 q 54 72 39 47 q 82 147 69 97 l 265 836 q 276 912 279 888 q 252 945 274 936 q 183 956 231 954 l 190 983 q 295 981 229 982 q 436 979 361 979 q 578 981 510 979 q 697 983 646 982 l 690 956 q 617 945 643 954 q 576 912 590 936 q 547 836 561 888 l 364 147 m 432 1317 q 522 1301 486 1317 q 586 1266 558 1286 q 642 1231 614 1246 q 711 1215 671 1215 q 771 1234 743 1215 q 825 1296 799 1253 l 850 1289 q 733 1115 806 1168 q 586 1063 660 1063 q 496 1078 532 1063 q 432 1113 460 1093 q 376 1149 404 1133 q 307 1164 347 1164 q 248 1146 275 1164 q 193 1083 221 1128 l 168 1090 q 285 1264 213 1211 q 432 1317 358 1317 z "},"J":{"ha":993,"x_min":21,"x_max":1143,"o":"m 965 508 l 961 481 l 363 481 l 367 508 l 965 508 m 575 754 q 498 764 535 754 q 428 786 461 774 q 364 808 394 799 q 306 818 333 818 q 250 801 274 818 q 226 747 226 785 q 270 672 226 701 q 418 636 314 643 q 417 624 418 636 q 415 611 415 611 q 257 643 325 617 q 151 717 189 669 q 114 832 114 765 q 168 972 114 918 q 335 1026 222 1026 q 440 1013 394 1026 q 523 979 485 999 q 601 940 561 960 q 686 906 640 919 q 793 892 732 892 q 904 903 839 892 q 1021 940 969 914 q 1078 1008 1050 985 q 1126 1014 1106 1032 q 1125 976 1143 1000 q 1033 925 1107 953 q 896 717 946 846 q 804 426 846 588 l 718 90 q 640 -85 694 -4 q 490 -213 585 -165 q 250 -261 396 -261 q 135 -249 188 -261 q 52 -210 83 -237 q 21 -137 21 -183 q 58 -51 21 -85 q 165 -17 94 -17 q 265 -42 224 -17 q 306 -118 306 -67 q 283 -186 306 -157 q 215 -235 260 -215 q 233 -237 226 -236 q 247 -237 240 -237 q 302 -222 279 -237 q 343 -175 325 -207 q 378 -92 361 -143 q 415 28 396 -42 l 511 364 q 586 548 542 469 q 690 687 631 626 q 822 799 749 747 q 979 903 894 850 q 864 859 913 885 q 773 810 815 833 q 684 770 731 786 q 575 754 638 754 z "},"Ĵ":{"ha":993,"x_min":21,"x_max":1143,"o":"m 965 508 l 961 481 l 363 481 l 367 508 l 965 508 m 575 754 q 498 764 535 754 q 428 786 461 774 q 364 808 394 799 q 306 818 333 818 q 250 801 274 818 q 226 747 226 785 q 270 672 226 701 q 418 636 314 643 q 417 624 418 636 q 415 611 415 611 q 257 643 325 617 q 151 717 189 669 q 114 832 114 765 q 168 972 114 918 q 335 1026 222 1026 q 440 1013 394 1026 q 523 979 485 999 q 601 940 561 960 q 686 906 640 919 q 793 892 732 892 q 904 903 839 892 q 1021 940 969 914 q 1078 1008 1050 985 q 1126 1014 1106 1032 q 1125 976 1143 1000 q 1033 925 1107 953 q 896 717 946 846 q 804 426 846 588 l 718 90 q 640 -85 694 -4 q 490 -213 585 -165 q 250 -261 396 -261 q 135 -249 188 -261 q 52 -210 83 -237 q 21 -137 21 -183 q 58 -51 21 -85 q 165 -17 94 -17 q 265 -42 224 -17 q 306 -118 306 -67 q 283 -186 306 -157 q 215 -235 260 -215 q 233 -237 226 -236 q 247 -237 240 -237 q 302 -222 279 -237 q 343 -175 325 -207 q 378 -92 361 -143 q 415 28 396 -42 l 511 364 q 586 548 542 469 q 690 687 631 626 q 822 799 749 747 q 979 903 894 850 q 864 859 913 885 q 773 810 815 833 q 684 770 731 786 q 575 754 638 754 m 776 1144 q 633 1103 713 1122 q 464 1069 553 1085 l 457 1089 q 692 1194 583 1129 q 867 1328 801 1258 l 892 1328 q 960 1190 918 1247 q 1085 1089 1003 1133 l 1079 1069 q 957 1092 1010 1081 q 861 1117 904 1104 q 776 1144 818 1129 z "},"K":{"ha":1088,"x_min":-65,"x_max":1140,"o":"m 364 147 q 353 72 351 97 q 376 39 354 47 q 446 28 399 31 l 440 0 q 331 3 397 3 q 194 4 264 4 q 47 3 115 4 q -65 0 -22 3 l -58 28 q 13 39 -12 31 q 54 72 39 47 q 82 147 69 97 l 265 836 q 276 912 279 888 q 252 945 274 936 q 183 956 231 954 l 190 983 q 301 981 231 982 q 450 979 371 979 q 584 981 519 979 q 697 983 649 982 l 690 956 q 617 945 643 954 q 576 912 590 936 q 547 836 561 888 l 364 147 m 897 99 q 933 117 918 99 q 957 165 947 135 l 981 236 l 1008 236 l 972 129 q 892 16 946 51 q 775 -19 838 -19 q 623 33 671 -19 q 589 165 575 85 l 628 385 q 634 443 635 419 q 624 482 633 467 q 593 507 614 497 l 596 521 q 758 503 696 519 q 852 455 821 486 q 891 378 883 424 q 889 275 899 333 l 867 136 q 874 109 864 119 q 897 99 883 99 m 613 500 q 512 483 539 481 q 490 513 485 486 q 520 540 496 536 q 613 525 544 544 l 613 500 m 888 940 q 848 868 864 911 q 819 776 832 825 q 790 681 806 728 q 749 594 774 633 q 688 533 725 556 q 594 511 651 510 l 597 525 q 696 567 660 532 q 753 653 732 601 q 788 762 774 704 q 819 871 801 819 q 867 957 836 922 q 919 994 890 985 q 976 1003 949 1003 q 1094 960 1047 1003 q 1140 847 1140 918 q 1122 769 1140 807 q 1069 706 1104 731 q 983 681 1035 681 q 902 709 939 681 q 865 796 865 738 q 903 899 865 850 q 1008 972 942 949 q 994 977 1003 975 q 972 979 985 979 q 922 969 942 979 q 888 940 903 960 z "},"Ǩ":{"ha":1088,"x_min":-65,"x_max":1140,"o":"m 364 147 q 353 72 351 97 q 376 39 354 47 q 446 28 399 31 l 440 0 q 331 3 397 3 q 194 4 264 4 q 47 3 115 4 q -65 0 -22 3 l -58 28 q 13 39 -12 31 q 54 72 39 47 q 82 147 69 97 l 265 836 q 276 912 279 888 q 252 945 274 936 q 183 956 231 954 l 190 983 q 301 981 231 982 q 450 979 371 979 q 584 981 519 979 q 697 983 649 982 l 690 956 q 617 945 643 954 q 576 912 590 936 q 547 836 561 888 l 364 147 m 897 99 q 933 117 918 99 q 957 165 947 135 l 981 236 l 1008 236 l 972 129 q 892 16 946 51 q 775 -19 838 -19 q 623 33 671 -19 q 589 165 575 85 l 628 385 q 634 443 635 419 q 624 482 633 467 q 593 507 614 497 l 596 521 q 758 503 696 519 q 852 455 821 486 q 891 378 883 424 q 889 275 899 333 l 867 136 q 874 109 864 119 q 897 99 883 99 m 613 500 q 512 483 539 481 q 490 513 485 486 q 520 540 496 536 q 613 525 544 544 l 613 500 m 888 940 q 848 868 864 911 q 819 776 832 825 q 790 681 806 728 q 749 594 774 633 q 688 533 725 556 q 594 511 651 510 l 597 525 q 696 567 660 532 q 753 653 732 601 q 788 762 774 704 q 819 871 801 819 q 867 957 836 922 q 919 994 890 985 q 976 1003 949 1003 q 1094 960 1047 1003 q 1140 847 1140 918 q 1122 769 1140 807 q 1069 706 1104 731 q 983 681 1035 681 q 902 709 939 681 q 865 796 865 738 q 903 899 865 850 q 1008 972 942 949 q 994 977 1003 975 q 972 979 985 979 q 922 969 942 979 q 888 940 903 960 m 760 1239 q 904 1281 825 1261 q 1072 1314 983 1300 l 1079 1294 q 844 1190 953 1256 q 669 1056 735 1125 l 644 1056 q 576 1194 618 1138 q 451 1294 533 1250 l 457 1314 q 579 1291 526 1303 q 676 1267 632 1279 q 760 1239 719 1254 z "},"Ķ":{"ha":1088,"x_min":-65,"x_max":1140,"o":"m 364 147 q 353 72 351 97 q 376 39 354 47 q 446 28 399 31 l 440 0 q 331 3 397 3 q 194 4 264 4 q 47 3 115 4 q -65 0 -22 3 l -58 28 q 13 39 -12 31 q 54 72 39 47 q 82 147 69 97 l 265 836 q 276 912 279 888 q 252 945 274 936 q 183 956 231 954 l 190 983 q 301 981 231 982 q 450 979 371 979 q 584 981 519 979 q 697 983 649 982 l 690 956 q 617 945 643 954 q 576 912 590 936 q 547 836 561 888 l 364 147 m 897 99 q 933 117 918 99 q 957 165 947 135 l 981 236 l 1008 236 l 972 129 q 892 16 946 51 q 775 -19 838 -19 q 623 33 671 -19 q 589 165 575 85 l 628 385 q 634 443 635 419 q 624 482 633 467 q 593 507 614 497 l 596 521 q 758 503 696 519 q 852 455 821 486 q 891 378 883 424 q 889 275 899 333 l 867 136 q 874 109 864 119 q 897 99 883 99 m 613 500 q 512 483 539 481 q 490 513 485 486 q 520 540 496 536 q 613 525 544 544 l 613 500 m 888 940 q 848 868 864 911 q 819 776 832 825 q 790 681 806 728 q 749 594 774 633 q 688 533 725 556 q 594 511 651 510 l 597 525 q 696 567 660 532 q 753 653 732 601 q 788 762 774 704 q 819 871 801 819 q 867 957 836 922 q 919 994 890 985 q 976 1003 949 1003 q 1094 960 1047 1003 q 1140 847 1140 918 q 1122 769 1140 807 q 1069 706 1104 731 q 983 681 1035 681 q 902 709 939 681 q 865 796 865 738 q 903 899 865 850 q 1008 972 942 949 q 994 977 1003 975 q 972 979 985 979 q 922 969 942 979 q 888 940 903 960 m 422 -58 q 494 -78 460 -58 q 529 -147 529 -99 q 465 -282 529 -232 q 301 -335 400 -332 l 301 -306 q 410 -284 367 -304 q 464 -231 454 -264 q 423 -249 446 -242 q 371 -256 400 -256 q 299 -237 324 -256 q 274 -182 274 -219 q 318 -92 274 -125 q 422 -58 363 -58 z "},"L":{"ha":857,"x_min":-67,"x_max":806,"o":"m 806 292 q 789 240 797 269 q 772 178 781 211 q 754 102 765 151 q 736 0 743 53 q 578 3 665 3 q 422 4 492 4 q 327 4 385 4 q 201 3 269 4 q 63 2 132 3 q -67 0 -6 1 l -61 28 q 13 39 -14 31 q 54 72 39 47 q 82 147 69 97 l 265 836 q 276 912 279 888 q 252 945 274 936 q 183 956 231 954 l 190 983 q 302 981 231 982 q 453 979 374 979 q 585 981 522 979 q 696 983 647 982 l 689 956 q 615 945 642 954 q 574 912 589 936 q 546 836 560 888 l 363 147 q 351 72 350 97 q 374 40 353 47 q 442 32 396 32 l 467 32 q 570 57 514 32 q 681 139 626 82 q 775 292 736 196 l 806 292 z "},"Ĺ":{"ha":857,"x_min":-67,"x_max":865,"o":"m 806 292 q 789 240 797 269 q 772 178 781 211 q 754 102 765 151 q 736 0 743 53 q 578 3 665 3 q 422 4 492 4 q 327 4 385 4 q 201 3 269 4 q 63 2 132 3 q -67 0 -6 1 l -61 28 q 13 39 -14 31 q 54 72 39 47 q 82 147 69 97 l 265 836 q 276 912 279 888 q 252 945 274 936 q 183 956 231 954 l 190 983 q 302 981 231 982 q 453 979 374 979 q 585 981 522 979 q 696 983 647 982 l 689 956 q 615 945 642 954 q 574 912 589 936 q 546 836 560 888 l 363 147 q 351 72 350 97 q 374 40 353 47 q 442 32 396 32 l 467 32 q 570 57 514 32 q 681 139 626 82 q 775 292 736 196 l 806 292 m 436 1089 q 544 1194 503 1147 q 620 1275 586 1240 q 694 1331 654 1310 q 747 1346 718 1343 q 802 1338 775 1349 q 844 1299 829 1328 q 845 1226 865 1260 q 782 1169 825 1193 q 699 1138 746 1150 q 590 1113 651 1126 q 446 1072 528 1099 l 436 1089 z "},"Ľ":{"ha":857,"x_min":-67,"x_max":946,"o":"m 806 292 q 789 240 797 269 q 772 178 781 211 q 754 102 765 151 q 736 0 743 53 q 578 3 665 3 q 422 4 492 4 q 327 4 385 4 q 201 3 269 4 q 63 2 132 3 q -67 0 -6 1 l -61 28 q 13 39 -14 31 q 54 72 39 47 q 82 147 69 97 l 265 836 q 276 912 279 888 q 252 945 274 936 q 183 956 231 954 l 190 983 q 302 981 231 982 q 453 979 374 979 q 585 981 522 979 q 696 983 647 982 l 689 956 q 615 945 642 954 q 574 912 589 936 q 546 836 560 888 l 363 147 q 351 72 350 97 q 374 40 353 47 q 442 32 396 32 l 467 32 q 570 57 514 32 q 681 139 626 82 q 775 292 736 196 l 806 292 m 688 674 q 743 837 728 771 q 758 928 758 903 q 752 947 758 940 q 726 954 746 954 l 731 983 q 761 983 747 983 q 789 982 775 982 q 879 988 843 982 q 944 999 915 993 q 946 982 946 996 q 882 848 946 932 q 707 668 818 764 l 688 674 z "},"Ļ":{"ha":857,"x_min":-67,"x_max":806,"o":"m 806 292 q 789 240 797 269 q 772 178 781 211 q 754 102 765 151 q 736 0 743 53 q 578 3 665 3 q 422 4 492 4 q 327 4 385 4 q 201 3 269 4 q 63 2 132 3 q -67 0 -6 1 l -61 28 q 13 39 -14 31 q 54 72 39 47 q 82 147 69 97 l 265 836 q 276 912 279 888 q 252 945 274 936 q 183 956 231 954 l 190 983 q 302 981 231 982 q 453 979 374 979 q 585 981 522 979 q 696 983 647 982 l 689 956 q 615 945 642 954 q 574 912 589 936 q 546 836 560 888 l 363 147 q 351 72 350 97 q 374 40 353 47 q 442 32 396 32 l 467 32 q 570 57 514 32 q 681 139 626 82 q 775 292 736 196 l 806 292 m 403 -58 q 475 -78 440 -58 q 510 -147 510 -99 q 445 -282 510 -232 q 282 -335 381 -332 l 282 -306 q 391 -284 347 -304 q 444 -231 435 -264 q 403 -249 426 -242 q 351 -256 381 -256 q 279 -237 304 -256 q 254 -182 254 -219 q 299 -92 254 -125 q 403 -58 343 -58 z "},"Ŀ":{"ha":885,"x_min":-67,"x_max":897,"o":"m 806 292 q 789 240 797 269 q 772 178 781 211 q 754 102 765 151 q 736 0 743 53 q 578 3 665 3 q 422 4 492 4 q 327 4 385 4 q 201 3 269 4 q 63 2 132 3 q -67 0 -6 1 l -61 28 q 13 39 -14 31 q 54 72 39 47 q 82 147 69 97 l 265 836 q 276 912 279 888 q 252 945 274 936 q 183 956 231 954 l 190 983 q 302 981 231 982 q 453 979 374 979 q 585 981 522 979 q 696 983 647 982 l 689 956 q 615 945 642 954 q 574 912 589 936 q 546 836 560 888 l 363 147 q 351 72 350 97 q 374 40 353 47 q 442 32 396 32 l 467 32 q 570 57 514 32 q 681 139 626 82 q 775 292 736 196 l 806 292 m 632 496 q 676 602 632 561 q 788 643 721 643 q 869 619 840 643 q 897 549 897 596 q 876 478 897 511 q 820 425 856 446 q 740 404 785 404 q 660 428 688 404 q 632 496 632 451 z "},"Ł":{"ha":858,"x_min":-65,"x_max":807,"o":"m 264 428 l 719 657 l 711 625 l 256 396 l 264 428 m 258 410 l 24 292 l 32 324 l 267 442 l 258 410 m 807 292 q 790 240 799 269 q 774 178 782 211 q 756 102 767 151 q 738 0 744 53 q 580 3 667 3 q 424 4 493 4 q 328 4 386 4 q 202 3 271 4 q 65 2 133 3 q -65 0 -4 1 l -60 28 q 14 39 -12 31 q 56 72 40 47 q 83 147 71 97 l 267 836 q 278 912 281 888 q 253 945 275 936 q 185 956 232 954 l 192 983 q 303 981 232 982 q 454 979 375 979 q 586 981 524 979 q 697 983 649 982 l 690 956 q 617 945 643 954 q 576 912 590 936 q 547 836 561 888 l 364 147 q 353 72 351 97 q 376 40 354 47 q 443 32 397 32 l 468 32 q 572 57 515 32 q 683 139 628 82 q 776 292 738 196 l 807 292 z "},"M":{"ha":1318,"x_min":-65,"x_max":1429,"o":"m 1036 979 l 1172 979 q 1312 981 1246 979 q 1429 983 1378 982 l 1422 956 q 1349 945 1375 954 q 1308 912 1322 936 q 1279 836 1293 888 l 1096 147 q 1085 72 1083 97 q 1110 39 1088 47 q 1178 28 1132 31 l 1172 0 q 1056 3 1121 3 q 917 4 990 4 q 774 3 842 4 q 667 0 707 3 l 672 28 q 747 39 721 31 q 788 72 772 47 q 815 147 803 97 l 1017 896 l 440 -7 l 410 -7 l 286 804 l 125 190 q 116 115 115 151 q 143 54 117 78 q 238 28 169 31 l 232 0 q 185 2 215 1 q 124 3 156 3 q 67 4 92 4 q -6 3 31 4 q -65 0 -42 3 l -60 28 q 19 54 -11 31 q 67 115 49 78 q 94 190 85 151 l 267 836 q 278 912 281 888 q 253 945 275 936 q 185 956 232 954 l 192 983 q 294 981 231 982 q 426 979 357 979 q 494 981 461 979 q 554 983 528 982 l 635 350 l 1036 979 z "},"N":{"ha":1196,"x_min":-118,"x_max":1351,"o":"m 754 -7 l 382 671 q 385 696 382 671 q 390 753 388 721 q 396 811 393 786 q 399 836 399 836 q 406 912 410 888 q 378 945 403 936 q 300 956 354 954 l 307 983 q 362 981 329 982 q 431 979 394 979 q 543 983 496 979 l 854 378 q 849 350 854 378 q 836 278 844 322 q 819 185 828 235 q 803 92 811 136 q 790 21 794 49 q 785 -7 785 -7 l 754 -7 m 1182 1024 q 1117 1001 1147 1024 q 1064 947 1086 979 q 933 615 1000 853 q 785 -7 867 378 l 765 32 q 810 233 786 125 q 860 449 833 340 q 916 656 888 557 q 976 833 944 754 q 1039 958 1007 911 q 1101 1022 1065 996 q 1189 1047 1138 1047 q 1307 1004 1263 1047 q 1351 899 1351 961 q 1306 792 1351 832 q 1196 753 1261 753 q 1106 780 1140 753 q 1072 856 1072 807 q 1114 960 1072 918 q 1217 1013 1156 1003 q 1202 1021 1211 1018 q 1182 1024 1193 1024 m 51 -79 q 119 -58 90 -79 q 171 -1 149 -36 q 252 199 211 63 q 335 528 293 335 q 421 951 378 721 l 444 922 q 398 691 422 808 q 349 462 374 574 q 297 254 324 350 q 244 88 271 158 q 193 -15 218 18 q 134 -76 168 -49 q 44 -103 100 -103 q -74 -60 -29 -103 q -118 46 -118 -17 q -72 152 -118 113 q 38 192 -26 192 q 128 165 94 192 q 161 89 161 138 q 119 -15 161 26 q 17 -68 78 -57 q 31 -76 22 -74 q 51 -79 40 -79 z "},"Ń":{"ha":1196,"x_min":-118,"x_max":1351,"o":"m 754 -7 l 382 671 q 385 696 382 671 q 390 753 388 721 q 396 811 393 786 q 399 836 399 836 q 406 912 410 888 q 378 945 403 936 q 300 956 354 954 l 307 983 q 362 981 329 982 q 431 979 394 979 q 543 983 496 979 l 854 378 q 849 350 854 378 q 836 278 844 322 q 819 185 828 235 q 803 92 811 136 q 790 21 794 49 q 785 -7 785 -7 l 754 -7 m 1182 1024 q 1117 1001 1147 1024 q 1064 947 1086 979 q 933 615 1000 853 q 785 -7 867 378 l 765 32 q 810 233 786 125 q 860 449 833 340 q 916 656 888 557 q 976 833 944 754 q 1039 958 1007 911 q 1101 1022 1065 996 q 1189 1047 1138 1047 q 1307 1004 1263 1047 q 1351 899 1351 961 q 1306 792 1351 832 q 1196 753 1261 753 q 1106 780 1140 753 q 1072 856 1072 807 q 1114 960 1072 918 q 1217 1013 1156 1003 q 1202 1021 1211 1018 q 1182 1024 1193 1024 m 51 -79 q 119 -58 90 -79 q 171 -1 149 -36 q 252 199 211 63 q 335 528 293 335 q 421 951 378 721 l 444 922 q 398 691 422 808 q 349 462 374 574 q 297 254 324 350 q 244 88 271 158 q 193 -15 218 18 q 134 -76 168 -49 q 44 -103 100 -103 q -74 -60 -29 -103 q -118 46 -118 -17 q -72 152 -118 113 q 38 192 -26 192 q 128 165 94 192 q 161 89 161 138 q 119 -15 161 26 q 17 -68 78 -57 q 31 -76 22 -74 q 51 -79 40 -79 m 722 1089 q 831 1194 789 1147 q 906 1275 872 1240 q 981 1331 940 1310 q 1033 1346 1004 1343 q 1088 1338 1061 1349 q 1131 1299 1115 1328 q 1131 1226 1151 1260 q 1068 1169 1111 1193 q 985 1138 1032 1150 q 876 1113 938 1126 q 732 1072 814 1099 l 722 1089 z "},"Ň":{"ha":1196,"x_min":-118,"x_max":1351,"o":"m 754 -7 l 382 671 q 385 696 382 671 q 390 753 388 721 q 396 811 393 786 q 399 836 399 836 q 406 912 410 888 q 378 945 403 936 q 300 956 354 954 l 307 983 q 362 981 329 982 q 431 979 394 979 q 543 983 496 979 l 854 378 q 849 350 854 378 q 836 278 844 322 q 819 185 828 235 q 803 92 811 136 q 790 21 794 49 q 785 -7 785 -7 l 754 -7 m 1182 1024 q 1117 1001 1147 1024 q 1064 947 1086 979 q 933 615 1000 853 q 785 -7 867 378 l 765 32 q 810 233 786 125 q 860 449 833 340 q 916 656 888 557 q 976 833 944 754 q 1039 958 1007 911 q 1101 1022 1065 996 q 1189 1047 1138 1047 q 1307 1004 1263 1047 q 1351 899 1351 961 q 1306 792 1351 832 q 1196 753 1261 753 q 1106 780 1140 753 q 1072 856 1072 807 q 1114 960 1072 918 q 1217 1013 1156 1003 q 1202 1021 1211 1018 q 1182 1024 1193 1024 m 51 -79 q 119 -58 90 -79 q 171 -1 149 -36 q 252 199 211 63 q 335 528 293 335 q 421 951 378 721 l 444 922 q 398 691 422 808 q 349 462 374 574 q 297 254 324 350 q 244 88 271 158 q 193 -15 218 18 q 134 -76 168 -49 q 44 -103 100 -103 q -74 -60 -29 -103 q -118 46 -118 -17 q -72 152 -118 113 q 38 192 -26 192 q 128 165 94 192 q 161 89 161 138 q 119 -15 161 26 q 17 -68 78 -57 q 31 -76 22 -74 q 51 -79 40 -79 m 860 1239 q 1004 1281 925 1261 q 1172 1314 1083 1300 l 1179 1294 q 944 1190 1053 1256 q 769 1056 835 1125 l 744 1056 q 676 1194 718 1138 q 551 1294 633 1250 l 557 1314 q 679 1291 626 1303 q 776 1267 732 1279 q 860 1239 819 1254 z "},"Ņ":{"ha":1196,"x_min":-118,"x_max":1351,"o":"m 754 -7 l 382 671 q 385 696 382 671 q 390 753 388 721 q 396 811 393 786 q 399 836 399 836 q 406 912 410 888 q 378 945 403 936 q 300 956 354 954 l 307 983 q 362 981 329 982 q 431 979 394 979 q 543 983 496 979 l 854 378 q 849 350 854 378 q 836 278 844 322 q 819 185 828 235 q 803 92 811 136 q 790 21 794 49 q 785 -7 785 -7 l 754 -7 m 1182 1024 q 1117 1001 1147 1024 q 1064 947 1086 979 q 933 615 1000 853 q 785 -7 867 378 l 765 32 q 810 233 786 125 q 860 449 833 340 q 916 656 888 557 q 976 833 944 754 q 1039 958 1007 911 q 1101 1022 1065 996 q 1189 1047 1138 1047 q 1307 1004 1263 1047 q 1351 899 1351 961 q 1306 792 1351 832 q 1196 753 1261 753 q 1106 780 1140 753 q 1072 856 1072 807 q 1114 960 1072 918 q 1217 1013 1156 1003 q 1202 1021 1211 1018 q 1182 1024 1193 1024 m 51 -79 q 119 -58 90 -79 q 171 -1 149 -36 q 252 199 211 63 q 335 528 293 335 q 421 951 378 721 l 444 922 q 398 691 422 808 q 349 462 374 574 q 297 254 324 350 q 244 88 271 158 q 193 -15 218 18 q 134 -76 168 -49 q 44 -103 100 -103 q -74 -60 -29 -103 q -118 46 -118 -17 q -72 152 -118 113 q 38 192 -26 192 q 128 165 94 192 q 161 89 161 138 q 119 -15 161 26 q 17 -68 78 -57 q 31 -76 22 -74 q 51 -79 40 -79 m 463 -58 q 535 -78 500 -58 q 569 -147 569 -99 q 505 -282 569 -232 q 342 -335 440 -332 l 342 -306 q 451 -284 407 -304 q 504 -231 494 -264 q 463 -249 486 -242 q 411 -256 440 -256 q 339 -237 364 -256 q 314 -182 314 -219 q 358 -92 314 -125 q 463 -58 403 -58 z "},"Ŋ":{"ha":1021,"x_min":-62,"x_max":1143,"o":"m 963 836 q 974 912 976 888 q 949 945 971 936 q 881 956 928 954 l 888 983 q 946 981 911 982 q 1017 979 981 979 q 1086 981 1053 979 q 1143 983 1119 982 l 1136 956 q 1063 945 1089 954 q 1022 912 1036 936 q 993 836 1007 888 l 771 -7 l 740 -7 l 254 658 l 117 147 q 105 72 103 97 q 130 39 107 47 q 199 28 153 31 l 193 0 q 137 3 168 3 q 69 4 106 4 q -3 3 33 4 q -62 0 -39 3 l -57 28 q 17 39 -8 31 q 58 72 43 47 q 86 147 74 97 l 269 836 q 280 911 283 886 q 251 945 276 936 q 171 956 225 954 l 178 983 q 233 981 200 982 q 301 979 265 979 q 414 983 367 979 l 843 382 l 963 836 m 772 1 q 735 -131 758 -71 q 668 -226 711 -190 q 550 -261 625 -261 q 459 -249 504 -261 q 385 -210 414 -237 q 356 -137 356 -183 q 392 -51 356 -85 q 500 -17 429 -17 q 599 -42 558 -17 q 640 -118 640 -67 q 616 -186 640 -157 q 547 -235 592 -215 q 556 -237 551 -236 q 565 -237 560 -237 q 646 -211 614 -237 q 697 -144 678 -185 q 728 -57 717 -103 q 747 28 739 -11 l 772 1 z "},"Ñ":{"ha":1196,"x_min":-118,"x_max":1351,"o":"m 754 -7 l 382 671 q 385 696 382 671 q 390 753 388 721 q 396 811 393 786 q 399 836 399 836 q 406 912 410 888 q 378 945 403 936 q 300 956 354 954 l 307 983 q 362 981 329 982 q 431 979 394 979 q 543 983 496 979 l 854 378 q 849 350 854 378 q 836 278 844 322 q 819 185 828 235 q 803 92 811 136 q 790 21 794 49 q 785 -7 785 -7 l 754 -7 m 1182 1024 q 1117 1001 1147 1024 q 1064 947 1086 979 q 933 615 1000 853 q 785 -7 867 378 l 765 32 q 810 233 786 125 q 860 449 833 340 q 916 656 888 557 q 976 833 944 754 q 1039 958 1007 911 q 1101 1022 1065 996 q 1189 1047 1138 1047 q 1307 1004 1263 1047 q 1351 899 1351 961 q 1306 792 1351 832 q 1196 753 1261 753 q 1106 780 1140 753 q 1072 856 1072 807 q 1114 960 1072 918 q 1217 1013 1156 1003 q 1202 1021 1211 1018 q 1182 1024 1193 1024 m 51 -79 q 119 -58 90 -79 q 171 -1 149 -36 q 252 199 211 63 q 335 528 293 335 q 421 951 378 721 l 444 922 q 398 691 422 808 q 349 462 374 574 q 297 254 324 350 q 244 88 271 158 q 193 -15 218 18 q 134 -76 168 -49 q 44 -103 100 -103 q -74 -60 -29 -103 q -118 46 -118 -17 q -72 152 -118 113 q 38 192 -26 192 q 128 165 94 192 q 161 89 161 138 q 119 -15 161 26 q 17 -68 78 -57 q 31 -76 22 -74 q 51 -79 40 -79 m 707 1317 q 797 1301 761 1317 q 861 1266 833 1286 q 917 1231 889 1246 q 986 1215 946 1215 q 1046 1234 1018 1215 q 1100 1296 1074 1253 l 1125 1289 q 1008 1115 1081 1168 q 861 1063 935 1063 q 771 1078 807 1063 q 707 1113 735 1093 q 651 1149 679 1133 q 582 1164 622 1164 q 523 1146 550 1164 q 468 1083 496 1128 l 443 1090 q 560 1264 488 1211 q 707 1317 633 1317 z "},"O":{"ha":1124,"x_min":47,"x_max":1121,"o":"m 697 978 q 592 940 643 978 q 496 834 540 901 q 418 680 451 767 q 366 494 385 593 q 347 296 347 396 q 382 83 347 160 q 469 6 417 6 q 575 44 524 6 q 671 149 626 82 q 749 303 715 217 q 801 489 782 390 q 819 688 819 588 q 785 901 819 824 q 697 978 750 978 m 47 314 q 78 503 47 406 q 165 689 108 600 q 303 849 222 778 q 488 961 385 919 q 710 1003 590 1003 q 1011 916 901 1003 q 1121 668 1121 829 q 1090 480 1121 576 q 1002 294 1060 383 q 863 135 944 206 q 678 22 781 64 q 457 -19 576 -19 q 156 67 265 -19 q 47 314 47 154 z "},"Ó":{"ha":1124,"x_min":47,"x_max":1121,"o":"m 697 978 q 592 940 643 978 q 496 834 540 901 q 418 680 451 767 q 366 494 385 593 q 347 296 347 396 q 382 83 347 160 q 469 6 417 6 q 575 44 524 6 q 671 149 626 82 q 749 303 715 217 q 801 489 782 390 q 819 688 819 588 q 785 901 819 824 q 697 978 750 978 m 47 314 q 78 503 47 406 q 165 689 108 600 q 303 849 222 778 q 488 961 385 919 q 710 1003 590 1003 q 1011 916 901 1003 q 1121 668 1121 829 q 1090 480 1121 576 q 1002 294 1060 383 q 863 135 944 206 q 678 22 781 64 q 457 -19 576 -19 q 156 67 265 -19 q 47 314 47 154 m 686 1089 q 794 1194 753 1147 q 870 1275 836 1240 q 944 1331 904 1310 q 997 1346 968 1343 q 1052 1338 1025 1349 q 1094 1299 1079 1328 q 1095 1226 1115 1260 q 1032 1169 1075 1193 q 949 1138 996 1150 q 840 1113 901 1126 q 696 1072 778 1099 l 686 1089 z "},"Ŏ":{"ha":1124,"x_min":47,"x_max":1121,"o":"m 697 978 q 592 940 643 978 q 496 834 540 901 q 418 680 451 767 q 366 494 385 593 q 347 296 347 396 q 382 83 347 160 q 469 6 417 6 q 575 44 524 6 q 671 149 626 82 q 749 303 715 217 q 801 489 782 390 q 819 688 819 588 q 785 901 819 824 q 697 978 750 978 m 47 314 q 78 503 47 406 q 165 689 108 600 q 303 849 222 778 q 488 961 385 919 q 710 1003 590 1003 q 1011 916 901 1003 q 1121 668 1121 829 q 1090 480 1121 576 q 1002 294 1060 383 q 863 135 944 206 q 678 22 781 64 q 457 -19 576 -19 q 156 67 265 -19 q 47 314 47 154 m 735 1225 q 914 1244 836 1225 q 1058 1303 992 1264 l 1075 1290 q 981 1178 1039 1231 q 853 1092 924 1125 q 706 1060 782 1060 q 591 1090 638 1060 q 517 1172 544 1121 q 478 1286 489 1224 l 499 1297 q 596 1243 542 1261 q 735 1225 650 1225 z "},"Ô":{"ha":1124,"x_min":47,"x_max":1121,"o":"m 697 978 q 592 940 643 978 q 496 834 540 901 q 418 680 451 767 q 366 494 385 593 q 347 296 347 396 q 382 83 347 160 q 469 6 417 6 q 575 44 524 6 q 671 149 626 82 q 749 303 715 217 q 801 489 782 390 q 819 688 819 588 q 785 901 819 824 q 697 978 750 978 m 47 314 q 78 503 47 406 q 165 689 108 600 q 303 849 222 778 q 488 961 385 919 q 710 1003 590 1003 q 1011 916 901 1003 q 1121 668 1121 829 q 1090 480 1121 576 q 1002 294 1060 383 q 863 135 944 206 q 678 22 781 64 q 457 -19 576 -19 q 156 67 265 -19 q 47 314 47 154 m 710 1144 q 566 1103 646 1122 q 397 1069 486 1085 l 390 1089 q 626 1194 517 1129 q 800 1328 735 1258 l 825 1328 q 894 1190 851 1247 q 1018 1089 936 1133 l 1013 1069 q 890 1092 943 1081 q 794 1117 838 1104 q 710 1144 751 1129 z "},"Ố":{"ha":1124,"x_min":47,"x_max":1192,"o":"m 697 978 q 592 940 643 978 q 496 834 540 901 q 418 680 451 767 q 366 494 385 593 q 347 296 347 396 q 382 83 347 160 q 469 6 417 6 q 575 44 524 6 q 671 149 626 82 q 749 303 715 217 q 801 489 782 390 q 819 688 819 588 q 785 901 819 824 q 697 978 750 978 m 47 314 q 78 503 47 406 q 165 689 108 600 q 303 849 222 778 q 488 961 385 919 q 710 1003 590 1003 q 1011 916 901 1003 q 1121 668 1121 829 q 1090 480 1121 576 q 1002 294 1060 383 q 863 135 944 206 q 678 22 781 64 q 457 -19 576 -19 q 156 67 265 -19 q 47 314 47 154 m 710 1144 q 566 1103 646 1122 q 397 1069 486 1085 l 390 1089 q 626 1194 517 1129 q 800 1328 735 1258 l 825 1328 q 894 1190 851 1247 q 1018 1089 936 1133 l 1013 1069 q 890 1092 943 1081 q 794 1117 838 1104 q 710 1144 751 1129 m 763 1394 q 871 1499 829 1453 q 947 1581 913 1546 q 1021 1636 981 1615 q 1073 1651 1044 1649 q 1128 1644 1101 1654 q 1171 1604 1156 1633 q 1172 1532 1192 1565 q 1108 1475 1151 1499 q 1025 1444 1072 1456 q 916 1418 978 1432 q 772 1378 854 1404 l 763 1394 z "},"Ộ":{"ha":1124,"x_min":47,"x_max":1121,"o":"m 697 978 q 592 940 643 978 q 496 834 540 901 q 418 680 451 767 q 366 494 385 593 q 347 296 347 396 q 382 83 347 160 q 469 6 417 6 q 575 44 524 6 q 671 149 626 82 q 749 303 715 217 q 801 489 782 390 q 819 688 819 588 q 785 901 819 824 q 697 978 750 978 m 47 314 q 78 503 47 406 q 165 689 108 600 q 303 849 222 778 q 488 961 385 919 q 710 1003 590 1003 q 1011 916 901 1003 q 1121 668 1121 829 q 1090 480 1121 576 q 1002 294 1060 383 q 863 135 944 206 q 678 22 781 64 q 457 -19 576 -19 q 156 67 265 -19 q 47 314 47 154 m 710 1144 q 566 1103 646 1122 q 397 1069 486 1085 l 390 1089 q 626 1194 517 1129 q 800 1328 735 1258 l 825 1328 q 894 1190 851 1247 q 1018 1089 936 1133 l 1013 1069 q 890 1092 943 1081 q 794 1117 838 1104 q 710 1144 751 1129 m 422 -265 q 346 -246 372 -265 q 319 -187 319 -226 q 357 -95 319 -128 q 460 -62 394 -62 q 536 -82 510 -62 q 563 -140 563 -101 q 525 -233 563 -200 q 422 -265 488 -265 z "},"Ồ":{"ha":1124,"x_min":47,"x_max":1121,"o":"m 697 978 q 592 940 643 978 q 496 834 540 901 q 418 680 451 767 q 366 494 385 593 q 347 296 347 396 q 382 83 347 160 q 469 6 417 6 q 575 44 524 6 q 671 149 626 82 q 749 303 715 217 q 801 489 782 390 q 819 688 819 588 q 785 901 819 824 q 697 978 750 978 m 47 314 q 78 503 47 406 q 165 689 108 600 q 303 849 222 778 q 488 961 385 919 q 710 1003 590 1003 q 1011 916 901 1003 q 1121 668 1121 829 q 1090 480 1121 576 q 1002 294 1060 383 q 863 135 944 206 q 678 22 781 64 q 457 -19 576 -19 q 156 67 265 -19 q 47 314 47 154 m 710 1144 q 566 1103 646 1122 q 397 1069 486 1085 l 390 1089 q 626 1194 517 1129 q 800 1328 735 1258 l 825 1328 q 894 1190 851 1247 q 1018 1089 936 1133 l 1013 1069 q 890 1092 943 1081 q 794 1117 838 1104 q 710 1144 751 1129 m 865 1378 q 731 1412 785 1403 q 640 1426 676 1421 q 571 1449 603 1432 q 522 1501 536 1467 q 525 1568 508 1535 q 585 1616 544 1607 q 656 1610 625 1625 q 714 1566 690 1594 q 773 1495 738 1538 q 875 1394 808 1453 l 865 1378 z "},"Ổ":{"ha":1124,"x_min":47,"x_max":1322,"o":"m 697 978 q 592 940 643 978 q 496 834 540 901 q 418 680 451 767 q 366 494 385 593 q 347 296 347 396 q 382 83 347 160 q 469 6 417 6 q 575 44 524 6 q 671 149 626 82 q 749 303 715 217 q 801 489 782 390 q 819 688 819 588 q 785 901 819 824 q 697 978 750 978 m 47 314 q 78 503 47 406 q 165 689 108 600 q 303 849 222 778 q 488 961 385 919 q 710 1003 590 1003 q 1011 916 901 1003 q 1121 668 1121 829 q 1090 480 1121 576 q 1002 294 1060 383 q 863 135 944 206 q 678 22 781 64 q 457 -19 576 -19 q 156 67 265 -19 q 47 314 47 154 m 710 1144 q 566 1103 646 1122 q 397 1069 486 1085 l 390 1089 q 626 1194 517 1129 q 800 1328 735 1258 l 825 1328 q 894 1190 851 1247 q 1018 1089 936 1133 l 1013 1069 q 890 1092 943 1081 q 794 1117 838 1104 q 710 1144 751 1129 m 1051 1271 q 1078 1338 1058 1314 q 1119 1380 1097 1363 q 1156 1420 1140 1397 q 1171 1485 1171 1443 q 1147 1553 1171 1533 q 1083 1574 1124 1574 q 1044 1569 1061 1574 q 1021 1561 1028 1565 q 1063 1532 1047 1551 q 1079 1483 1079 1513 q 1051 1421 1079 1444 q 983 1397 1022 1397 q 928 1417 949 1397 q 907 1468 907 1436 q 931 1528 907 1503 q 990 1569 956 1553 q 1063 1593 1024 1585 q 1149 1601 1103 1601 q 1274 1576 1226 1601 q 1322 1493 1322 1550 q 1300 1431 1322 1453 q 1244 1395 1278 1408 q 1174 1369 1210 1382 q 1113 1333 1139 1356 q 1079 1271 1086 1311 l 1051 1271 z "},"Ỗ":{"ha":1124,"x_min":47,"x_max":1165,"o":"m 697 978 q 592 940 643 978 q 496 834 540 901 q 418 680 451 767 q 366 494 385 593 q 347 296 347 396 q 382 83 347 160 q 469 6 417 6 q 575 44 524 6 q 671 149 626 82 q 749 303 715 217 q 801 489 782 390 q 819 688 819 588 q 785 901 819 824 q 697 978 750 978 m 47 314 q 78 503 47 406 q 165 689 108 600 q 303 849 222 778 q 488 961 385 919 q 710 1003 590 1003 q 1011 916 901 1003 q 1121 668 1121 829 q 1090 480 1121 576 q 1002 294 1060 383 q 863 135 944 206 q 678 22 781 64 q 457 -19 576 -19 q 156 67 265 -19 q 47 314 47 154 m 710 1144 q 566 1103 646 1122 q 397 1069 486 1085 l 390 1089 q 626 1194 517 1129 q 800 1328 735 1258 l 825 1328 q 894 1190 851 1247 q 1018 1089 936 1133 l 1013 1069 q 890 1092 943 1081 q 794 1117 838 1104 q 710 1144 751 1129 m 747 1622 q 838 1607 801 1622 q 901 1572 874 1592 q 958 1536 929 1551 q 1026 1521 986 1521 q 1086 1540 1058 1521 q 1140 1601 1114 1558 l 1165 1594 q 1048 1421 1121 1474 q 901 1368 975 1368 q 811 1383 847 1368 q 747 1419 775 1399 q 691 1454 719 1439 q 622 1469 663 1469 q 563 1451 590 1469 q 508 1389 536 1433 l 483 1396 q 601 1569 528 1517 q 747 1622 674 1622 z "},"Ö":{"ha":1124,"x_min":47,"x_max":1121,"o":"m 697 978 q 592 940 643 978 q 496 834 540 901 q 418 680 451 767 q 366 494 385 593 q 347 296 347 396 q 382 83 347 160 q 469 6 417 6 q 575 44 524 6 q 671 149 626 82 q 749 303 715 217 q 801 489 782 390 q 819 688 819 588 q 785 901 819 824 q 697 978 750 978 m 47 314 q 78 503 47 406 q 165 689 108 600 q 303 849 222 778 q 488 961 385 919 q 710 1003 590 1003 q 1011 916 901 1003 q 1121 668 1121 829 q 1090 480 1121 576 q 1002 294 1060 383 q 863 135 944 206 q 678 22 781 64 q 457 -19 576 -19 q 156 67 265 -19 q 47 314 47 154 m 428 1164 q 470 1268 428 1236 q 565 1300 513 1300 q 645 1270 621 1300 q 669 1192 669 1240 q 649 1115 669 1144 q 597 1072 628 1085 q 531 1058 565 1058 q 451 1088 475 1058 q 428 1164 428 1117 m 786 1164 q 828 1268 786 1236 q 924 1300 871 1300 q 1003 1270 979 1300 q 1028 1192 1028 1240 q 1007 1115 1028 1144 q 955 1072 986 1085 q 889 1058 924 1058 q 810 1088 833 1058 q 786 1164 786 1117 z "},"Ọ":{"ha":1124,"x_min":47,"x_max":1121,"o":"m 697 978 q 592 940 643 978 q 496 834 540 901 q 418 680 451 767 q 366 494 385 593 q 347 296 347 396 q 382 83 347 160 q 469 6 417 6 q 575 44 524 6 q 671 149 626 82 q 749 303 715 217 q 801 489 782 390 q 819 688 819 588 q 785 901 819 824 q 697 978 750 978 m 47 314 q 78 503 47 406 q 165 689 108 600 q 303 849 222 778 q 488 961 385 919 q 710 1003 590 1003 q 1011 916 901 1003 q 1121 668 1121 829 q 1090 480 1121 576 q 1002 294 1060 383 q 863 135 944 206 q 678 22 781 64 q 457 -19 576 -19 q 156 67 265 -19 q 47 314 47 154 m 422 -265 q 346 -246 372 -265 q 319 -187 319 -226 q 357 -95 319 -128 q 460 -62 394 -62 q 536 -82 510 -62 q 563 -140 563 -101 q 525 -233 563 -200 q 422 -265 488 -265 z "},"Ò":{"ha":1124,"x_min":47,"x_max":1121,"o":"m 697 978 q 592 940 643 978 q 496 834 540 901 q 418 680 451 767 q 366 494 385 593 q 347 296 347 396 q 382 83 347 160 q 469 6 417 6 q 575 44 524 6 q 671 149 626 82 q 749 303 715 217 q 801 489 782 390 q 819 688 819 588 q 785 901 819 824 q 697 978 750 978 m 47 314 q 78 503 47 406 q 165 689 108 600 q 303 849 222 778 q 488 961 385 919 q 710 1003 590 1003 q 1011 916 901 1003 q 1121 668 1121 829 q 1090 480 1121 576 q 1002 294 1060 383 q 863 135 944 206 q 678 22 781 64 q 457 -19 576 -19 q 156 67 265 -19 q 47 314 47 154 m 789 1072 q 654 1106 708 1097 q 563 1121 600 1115 q 494 1143 526 1126 q 446 1195 460 1161 q 449 1263 432 1229 q 508 1310 468 1301 q 579 1304 549 1319 q 638 1260 614 1289 q 697 1190 661 1232 q 799 1089 732 1147 l 789 1072 z "},"Ỏ":{"ha":1124,"x_min":47,"x_max":1121,"o":"m 697 978 q 592 940 643 978 q 496 834 540 901 q 418 680 451 767 q 366 494 385 593 q 347 296 347 396 q 382 83 347 160 q 469 6 417 6 q 575 44 524 6 q 671 149 626 82 q 749 303 715 217 q 801 489 782 390 q 819 688 819 588 q 785 901 819 824 q 697 978 750 978 m 47 314 q 78 503 47 406 q 165 689 108 600 q 303 849 222 778 q 488 961 385 919 q 710 1003 590 1003 q 1011 916 901 1003 q 1121 668 1121 829 q 1090 480 1121 576 q 1002 294 1060 383 q 863 135 944 206 q 678 22 781 64 q 457 -19 576 -19 q 156 67 265 -19 q 47 314 47 154 m 703 1096 q 729 1163 710 1139 q 770 1205 749 1188 q 807 1245 792 1222 q 822 1310 822 1268 q 799 1378 822 1358 q 735 1399 775 1399 q 696 1394 713 1399 q 672 1386 679 1390 q 715 1357 699 1376 q 731 1308 731 1338 q 702 1246 731 1269 q 635 1222 674 1222 q 579 1242 600 1222 q 558 1293 558 1261 q 583 1353 558 1328 q 642 1394 607 1378 q 715 1418 675 1410 q 800 1426 754 1426 q 926 1401 878 1426 q 974 1318 974 1375 q 951 1256 974 1278 q 895 1220 929 1233 q 826 1194 861 1207 q 764 1158 790 1181 q 731 1096 738 1136 l 703 1096 z "},"Ơ":{"ha":1124,"x_min":47,"x_max":1308,"o":"m 842 953 l 835 981 q 1043 971 963 964 q 1189 1000 1124 978 l 1185 988 q 1120 1034 1150 1003 q 1090 1111 1090 1065 q 1122 1188 1090 1160 q 1197 1217 1154 1217 q 1275 1187 1242 1217 q 1308 1103 1308 1157 q 1288 1033 1308 1064 q 1222 982 1267 1001 q 1078 946 1176 961 q 842 953 981 931 m 697 978 q 592 940 643 978 q 496 834 540 901 q 418 680 451 767 q 366 494 385 593 q 347 296 347 396 q 382 83 347 160 q 469 6 417 6 q 575 44 524 6 q 671 149 626 82 q 749 303 715 217 q 801 489 782 390 q 819 688 819 588 q 785 901 819 824 q 697 978 750 978 m 47 314 q 78 503 47 406 q 165 689 108 600 q 303 849 222 778 q 488 961 385 919 q 710 1003 590 1003 q 1011 916 901 1003 q 1121 668 1121 829 q 1090 480 1121 576 q 1002 294 1060 383 q 863 135 944 206 q 678 22 781 64 q 457 -19 576 -19 q 156 67 265 -19 q 47 314 47 154 z "},"Ớ":{"ha":1124,"x_min":47,"x_max":1308,"o":"m 842 953 l 835 981 q 1043 971 963 964 q 1189 1000 1124 978 l 1185 988 q 1120 1034 1150 1003 q 1090 1111 1090 1065 q 1122 1188 1090 1160 q 1197 1217 1154 1217 q 1275 1187 1242 1217 q 1308 1103 1308 1157 q 1288 1033 1308 1064 q 1222 982 1267 1001 q 1078 946 1176 961 q 842 953 981 931 m 697 978 q 592 940 643 978 q 496 834 540 901 q 418 680 451 767 q 366 494 385 593 q 347 296 347 396 q 382 83 347 160 q 469 6 417 6 q 575 44 524 6 q 671 149 626 82 q 749 303 715 217 q 801 489 782 390 q 819 688 819 588 q 785 901 819 824 q 697 978 750 978 m 47 314 q 78 503 47 406 q 165 689 108 600 q 303 849 222 778 q 488 961 385 919 q 710 1003 590 1003 q 1011 916 901 1003 q 1121 668 1121 829 q 1090 480 1121 576 q 1002 294 1060 383 q 863 135 944 206 q 678 22 781 64 q 457 -19 576 -19 q 156 67 265 -19 q 47 314 47 154 m 686 1089 q 794 1194 753 1147 q 870 1275 836 1240 q 944 1331 904 1310 q 997 1346 968 1343 q 1052 1338 1025 1349 q 1094 1299 1079 1328 q 1095 1226 1115 1260 q 1032 1169 1075 1193 q 949 1138 996 1150 q 840 1113 901 1126 q 696 1072 778 1099 l 686 1089 z "},"Ợ":{"ha":1124,"x_min":47,"x_max":1308,"o":"m 842 953 l 835 981 q 1043 971 963 964 q 1189 1000 1124 978 l 1185 988 q 1120 1034 1150 1003 q 1090 1111 1090 1065 q 1122 1188 1090 1160 q 1197 1217 1154 1217 q 1275 1187 1242 1217 q 1308 1103 1308 1157 q 1288 1033 1308 1064 q 1222 982 1267 1001 q 1078 946 1176 961 q 842 953 981 931 m 697 978 q 592 940 643 978 q 496 834 540 901 q 418 680 451 767 q 366 494 385 593 q 347 296 347 396 q 382 83 347 160 q 469 6 417 6 q 575 44 524 6 q 671 149 626 82 q 749 303 715 217 q 801 489 782 390 q 819 688 819 588 q 785 901 819 824 q 697 978 750 978 m 47 314 q 78 503 47 406 q 165 689 108 600 q 303 849 222 778 q 488 961 385 919 q 710 1003 590 1003 q 1011 916 901 1003 q 1121 668 1121 829 q 1090 480 1121 576 q 1002 294 1060 383 q 863 135 944 206 q 678 22 781 64 q 457 -19 576 -19 q 156 67 265 -19 q 47 314 47 154 m 422 -265 q 346 -246 372 -265 q 319 -187 319 -226 q 357 -95 319 -128 q 460 -62 394 -62 q 536 -82 510 -62 q 563 -140 563 -101 q 525 -233 563 -200 q 422 -265 488 -265 z "},"Ờ":{"ha":1124,"x_min":47,"x_max":1308,"o":"m 842 953 l 835 981 q 1043 971 963 964 q 1189 1000 1124 978 l 1185 988 q 1120 1034 1150 1003 q 1090 1111 1090 1065 q 1122 1188 1090 1160 q 1197 1217 1154 1217 q 1275 1187 1242 1217 q 1308 1103 1308 1157 q 1288 1033 1308 1064 q 1222 982 1267 1001 q 1078 946 1176 961 q 842 953 981 931 m 697 978 q 592 940 643 978 q 496 834 540 901 q 418 680 451 767 q 366 494 385 593 q 347 296 347 396 q 382 83 347 160 q 469 6 417 6 q 575 44 524 6 q 671 149 626 82 q 749 303 715 217 q 801 489 782 390 q 819 688 819 588 q 785 901 819 824 q 697 978 750 978 m 47 314 q 78 503 47 406 q 165 689 108 600 q 303 849 222 778 q 488 961 385 919 q 710 1003 590 1003 q 1011 916 901 1003 q 1121 668 1121 829 q 1090 480 1121 576 q 1002 294 1060 383 q 863 135 944 206 q 678 22 781 64 q 457 -19 576 -19 q 156 67 265 -19 q 47 314 47 154 m 789 1072 q 654 1106 708 1097 q 563 1121 600 1115 q 494 1143 526 1126 q 446 1195 460 1161 q 449 1263 432 1229 q 508 1310 468 1301 q 579 1304 549 1319 q 638 1260 614 1289 q 697 1190 661 1232 q 799 1089 732 1147 l 789 1072 z "},"Ở":{"ha":1124,"x_min":47,"x_max":1308,"o":"m 842 953 l 835 981 q 1043 971 963 964 q 1189 1000 1124 978 l 1185 988 q 1120 1034 1150 1003 q 1090 1111 1090 1065 q 1122 1188 1090 1160 q 1197 1217 1154 1217 q 1275 1187 1242 1217 q 1308 1103 1308 1157 q 1288 1033 1308 1064 q 1222 982 1267 1001 q 1078 946 1176 961 q 842 953 981 931 m 697 978 q 592 940 643 978 q 496 834 540 901 q 418 680 451 767 q 366 494 385 593 q 347 296 347 396 q 382 83 347 160 q 469 6 417 6 q 575 44 524 6 q 671 149 626 82 q 749 303 715 217 q 801 489 782 390 q 819 688 819 588 q 785 901 819 824 q 697 978 750 978 m 47 314 q 78 503 47 406 q 165 689 108 600 q 303 849 222 778 q 488 961 385 919 q 710 1003 590 1003 q 1011 916 901 1003 q 1121 668 1121 829 q 1090 480 1121 576 q 1002 294 1060 383 q 863 135 944 206 q 678 22 781 64 q 457 -19 576 -19 q 156 67 265 -19 q 47 314 47 154 m 696 1026 q 722 1094 703 1069 q 763 1135 742 1118 q 800 1176 785 1153 q 815 1240 815 1199 q 792 1309 815 1289 q 728 1329 768 1329 q 689 1325 706 1329 q 665 1317 672 1321 q 708 1288 692 1307 q 724 1239 724 1268 q 695 1176 724 1200 q 628 1153 667 1153 q 572 1172 593 1153 q 551 1224 551 1192 q 576 1283 551 1258 q 635 1325 600 1308 q 708 1349 668 1340 q 793 1357 747 1357 q 919 1331 871 1357 q 967 1249 967 1306 q 944 1186 967 1208 q 888 1151 922 1164 q 819 1124 854 1138 q 757 1089 783 1111 q 724 1026 731 1067 l 696 1026 z "},"Ỡ":{"ha":1124,"x_min":47,"x_max":1308,"o":"m 842 953 l 835 981 q 1043 971 963 964 q 1189 1000 1124 978 l 1185 988 q 1120 1034 1150 1003 q 1090 1111 1090 1065 q 1122 1188 1090 1160 q 1197 1217 1154 1217 q 1275 1187 1242 1217 q 1308 1103 1308 1157 q 1288 1033 1308 1064 q 1222 982 1267 1001 q 1078 946 1176 961 q 842 953 981 931 m 697 978 q 592 940 643 978 q 496 834 540 901 q 418 680 451 767 q 366 494 385 593 q 347 296 347 396 q 382 83 347 160 q 469 6 417 6 q 575 44 524 6 q 671 149 626 82 q 749 303 715 217 q 801 489 782 390 q 819 688 819 588 q 785 901 819 824 q 697 978 750 978 m 47 314 q 78 503 47 406 q 165 689 108 600 q 303 849 222 778 q 488 961 385 919 q 710 1003 590 1003 q 1011 916 901 1003 q 1121 668 1121 829 q 1090 480 1121 576 q 1002 294 1060 383 q 863 135 944 206 q 678 22 781 64 q 457 -19 576 -19 q 156 67 265 -19 q 47 314 47 154 m 671 1317 q 761 1301 725 1317 q 825 1266 797 1286 q 881 1231 853 1246 q 950 1215 910 1215 q 1010 1234 982 1215 q 1064 1296 1038 1253 l 1089 1289 q 972 1115 1044 1168 q 825 1063 899 1063 q 735 1078 771 1063 q 671 1113 699 1093 q 615 1149 643 1133 q 546 1164 586 1164 q 487 1146 514 1164 q 432 1083 460 1128 l 407 1090 q 524 1264 451 1211 q 671 1317 597 1317 z "},"Ő":{"ha":1124,"x_min":47,"x_max":1121,"o":"m 697 978 q 592 940 643 978 q 496 834 540 901 q 418 680 451 767 q 366 494 385 593 q 347 296 347 396 q 382 83 347 160 q 469 6 417 6 q 575 44 524 6 q 671 149 626 82 q 749 303 715 217 q 801 489 782 390 q 819 688 819 588 q 785 901 819 824 q 697 978 750 978 m 47 314 q 78 503 47 406 q 165 689 108 600 q 303 849 222 778 q 488 961 385 919 q 710 1003 590 1003 q 1011 916 901 1003 q 1121 668 1121 829 q 1090 480 1121 576 q 1002 294 1060 383 q 863 135 944 206 q 678 22 781 64 q 457 -19 576 -19 q 156 67 265 -19 q 47 314 47 154 m 778 1086 q 850 1188 824 1144 q 897 1261 876 1231 q 940 1310 917 1292 q 1011 1325 971 1332 q 1074 1282 1051 1318 q 1086 1217 1096 1251 q 1043 1160 1076 1182 q 985 1134 1019 1144 q 904 1110 951 1124 q 790 1072 857 1097 l 778 1086 m 463 1086 q 535 1188 508 1144 q 581 1261 561 1231 q 625 1310 601 1292 q 695 1325 656 1332 q 758 1282 735 1318 q 770 1217 779 1251 q 728 1160 761 1182 q 670 1134 704 1144 q 589 1110 636 1124 q 475 1072 542 1097 l 463 1086 z "},"Ō":{"ha":1124,"x_min":47,"x_max":1121,"o":"m 697 978 q 592 940 643 978 q 496 834 540 901 q 418 680 451 767 q 366 494 385 593 q 347 296 347 396 q 382 83 347 160 q 469 6 417 6 q 575 44 524 6 q 671 149 626 82 q 749 303 715 217 q 801 489 782 390 q 819 688 819 588 q 785 901 819 824 q 697 978 750 978 m 47 314 q 78 503 47 406 q 165 689 108 600 q 303 849 222 778 q 488 961 385 919 q 710 1003 590 1003 q 1011 916 901 1003 q 1121 668 1121 829 q 1090 480 1121 576 q 1002 294 1060 383 q 863 135 944 206 q 678 22 781 64 q 457 -19 576 -19 q 156 67 265 -19 q 47 314 47 154 m 1017 1172 l 1008 1138 l 408 1138 l 417 1172 l 1017 1172 z "},"Ø":{"ha":1124,"x_min":13,"x_max":1133,"o":"m 697 978 q 592 940 643 978 q 496 834 540 901 q 418 680 451 767 q 366 494 385 593 q 347 296 347 396 q 382 83 347 160 q 469 6 417 6 q 575 44 524 6 q 671 149 626 82 q 749 303 715 217 q 801 489 782 390 q 819 688 819 588 q 785 901 819 824 q 697 978 750 978 m 47 314 q 78 503 47 406 q 165 689 108 600 q 303 849 222 778 q 488 961 385 919 q 710 1003 590 1003 q 1011 916 901 1003 q 1121 668 1121 829 q 1090 480 1121 576 q 1002 294 1060 383 q 863 135 944 206 q 678 22 781 64 q 457 -19 576 -19 q 156 67 265 -19 q 47 314 47 154 m 925 878 l 1113 1074 l 1133 1056 l 939 850 l 925 878 m 236 103 l 36 -101 l 13 -82 l 218 128 l 236 103 m 276 133 l 901 878 l 915 850 l 294 108 l 276 133 z "},"Ǿ":{"ha":1124,"x_min":13,"x_max":1133,"o":"m 697 978 q 592 940 643 978 q 496 834 540 901 q 418 680 451 767 q 366 494 385 593 q 347 296 347 396 q 382 83 347 160 q 469 6 417 6 q 575 44 524 6 q 671 149 626 82 q 749 303 715 217 q 801 489 782 390 q 819 688 819 588 q 785 901 819 824 q 697 978 750 978 m 47 314 q 78 503 47 406 q 165 689 108 600 q 303 849 222 778 q 488 961 385 919 q 710 1003 590 1003 q 1011 916 901 1003 q 1121 668 1121 829 q 1090 480 1121 576 q 1002 294 1060 383 q 863 135 944 206 q 678 22 781 64 q 457 -19 576 -19 q 156 67 265 -19 q 47 314 47 154 m 925 878 l 1113 1074 l 1133 1056 l 939 850 l 925 878 m 236 103 l 36 -101 l 13 -82 l 218 128 l 236 103 m 276 133 l 901 878 l 915 850 l 294 108 l 276 133 m 686 1089 q 794 1194 753 1147 q 870 1275 836 1240 q 944 1331 904 1310 q 997 1346 968 1343 q 1052 1338 1025 1349 q 1094 1299 1079 1328 q 1095 1226 1115 1260 q 1032 1169 1075 1193 q 949 1138 996 1150 q 840 1113 901 1126 q 696 1072 778 1099 l 686 1089 z "},"Õ":{"ha":1124,"x_min":47,"x_max":1121,"o":"m 697 978 q 592 940 643 978 q 496 834 540 901 q 418 680 451 767 q 366 494 385 593 q 347 296 347 396 q 382 83 347 160 q 469 6 417 6 q 575 44 524 6 q 671 149 626 82 q 749 303 715 217 q 801 489 782 390 q 819 688 819 588 q 785 901 819 824 q 697 978 750 978 m 47 314 q 78 503 47 406 q 165 689 108 600 q 303 849 222 778 q 488 961 385 919 q 710 1003 590 1003 q 1011 916 901 1003 q 1121 668 1121 829 q 1090 480 1121 576 q 1002 294 1060 383 q 863 135 944 206 q 678 22 781 64 q 457 -19 576 -19 q 156 67 265 -19 q 47 314 47 154 m 671 1317 q 761 1301 725 1317 q 825 1266 797 1286 q 881 1231 853 1246 q 950 1215 910 1215 q 1010 1234 982 1215 q 1064 1296 1038 1253 l 1089 1289 q 972 1115 1044 1168 q 825 1063 899 1063 q 735 1078 771 1063 q 671 1113 699 1093 q 615 1149 643 1133 q 546 1164 586 1164 q 487 1146 514 1164 q 432 1083 460 1128 l 407 1090 q 524 1264 451 1211 q 671 1317 597 1317 z "},"Œ":{"ha":1417,"x_min":47,"x_max":1492,"o":"m 868 481 l 874 508 l 1171 508 l 1165 481 l 868 481 m 1072 508 q 1140 531 1114 508 q 1183 588 1165 553 q 1215 664 1200 624 l 1246 664 q 1219 574 1228 610 q 1199 494 1210 539 q 1183 429 1190 464 q 1163 325 1175 394 l 1132 325 q 1136 375 1132 349 q 1139 424 1140 401 q 1122 463 1138 447 q 1067 481 1106 478 l 1072 508 m 492 6 q 557 20 529 6 q 596 76 585 35 l 797 836 q 808 922 813 892 q 782 965 804 953 q 715 978 760 978 q 601 940 656 978 q 500 834 546 901 q 419 680 454 767 q 366 494 385 593 q 347 296 347 396 q 385 83 347 160 q 492 6 422 6 m 1390 733 q 1387 904 1413 857 q 1278 951 1361 951 l 1218 951 q 1147 944 1172 951 q 1107 912 1121 936 q 1079 836 1093 888 l 896 147 q 885 72 883 97 q 908 40 886 47 q 975 32 929 32 l 1049 32 q 1159 56 1115 32 q 1235 133 1203 79 q 1297 278 1267 186 l 1328 278 q 1313 233 1321 260 q 1299 178 1306 207 q 1281 102 1292 151 q 1263 0 1269 53 q 1105 3 1192 3 q 949 4 1018 4 q 858 4 918 4 q 731 4 799 4 q 606 3 663 4 q 533 -13 571 -7 q 457 -19 496 -19 q 156 67 265 -19 q 47 314 47 154 q 78 503 47 406 q 165 689 108 600 q 303 849 222 778 q 488 961 385 919 q 710 1003 590 1003 q 774 997 742 1003 q 832 979 806 990 q 966 979 893 979 q 1104 979 1039 979 q 1204 979 1169 979 q 1347 980 1268 979 q 1492 983 1426 981 q 1462 901 1474 935 q 1439 819 1450 867 q 1428 772 1433 794 q 1421 733 1424 750 l 1390 733 z "},"P":{"ha":943,"x_min":-67,"x_max":1007,"o":"m 344 394 l 351 422 l 414 422 q 556 460 499 422 q 649 556 614 497 q 699 683 683 615 q 714 810 714 750 q 689 917 714 879 q 607 956 664 956 q 578 946 588 956 q 564 910 569 936 q 546 836 558 885 l 363 147 q 354 83 353 108 q 377 44 356 57 q 444 28 399 31 l 439 0 q 329 3 392 3 q 197 4 267 4 q 47 3 118 4 q -67 0 -25 3 l -61 28 q 13 39 -14 31 q 54 72 39 47 q 82 147 69 97 l 265 836 q 274 903 274 878 q 256 940 275 928 q 183 956 236 953 l 190 983 q 302 981 231 982 q 444 979 374 979 q 545 981 494 979 q 647 982 596 982 q 919 931 831 982 q 1007 772 1007 879 q 931 578 1007 664 q 717 444 854 493 q 400 394 581 394 l 344 394 z "},"Þ":{"ha":969,"x_min":-65,"x_max":975,"o":"m 413 768 q 513 769 463 768 q 615 771 564 771 q 887 713 799 771 q 975 561 975 656 q 899 367 975 453 q 685 233 822 282 q 368 183 549 183 l 313 183 q 316 197 313 183 q 319 211 319 211 l 382 211 q 513 243 457 211 q 607 328 569 275 q 663 449 644 382 q 682 583 682 515 q 647 699 682 653 q 547 744 613 744 q 494 743 514 744 q 457 740 474 742 q 414 736 440 739 l 413 768 m 364 147 q 353 72 351 97 q 376 39 354 47 q 446 28 399 31 l 440 0 q 325 3 396 3 q 181 4 254 4 q 40 3 106 4 q -65 0 -25 3 l -58 28 q 13 39 -12 31 q 54 72 39 47 q 82 147 69 97 l 265 836 q 276 912 279 888 q 252 945 274 936 q 183 956 231 954 l 190 983 q 295 981 229 982 q 436 979 361 979 q 578 981 510 979 q 697 983 646 982 l 690 956 q 617 945 643 954 q 576 912 590 936 q 547 836 561 888 l 364 147 z "},"Q":{"ha":1201,"x_min":-47,"x_max":1192,"o":"m 442 338 q 272 366 347 338 q 151 450 196 394 q 107 588 107 506 q 158 752 107 676 q 299 884 210 828 q 501 972 388 940 q 738 1003 614 1003 q 971 968 868 1003 q 1133 871 1074 933 q 1192 725 1192 808 q 1149 574 1192 654 q 1032 413 1106 494 q 864 256 958 332 q 665 112 769 179 q 456 -6 560 44 q 260 -85 353 -57 q 97 -114 167 -114 q -7 -86 33 -114 q -47 4 -47 -58 q -19 95 -47 56 q 56 158 8 135 q 164 182 104 182 q 309 151 238 182 q 452 74 381 119 q 595 -18 524 28 q 739 -95 667 -64 q 883 -126 811 -126 q 970 -110 938 -126 q 1021 -69 1003 -93 q 1047 -25 1039 -44 q 992 -59 1024 -47 q 929 -71 961 -71 q 834 -39 874 -71 q 794 53 794 -7 q 838 153 794 114 q 949 192 881 192 q 1051 157 1010 192 q 1093 51 1093 122 q 1065 -60 1093 -4 q 984 -160 1038 -115 q 856 -233 931 -206 q 685 -261 781 -261 q 531 -240 599 -261 q 408 -183 463 -218 q 308 -110 354 -149 q 222 -37 263 -72 q 140 19 181 -3 q 54 40 100 40 q 2 26 19 40 q -15 -12 -15 13 q 16 -69 -15 -47 q 106 -90 47 -90 q 218 -72 153 -90 q 353 -24 283 -53 q 482 35 422 4 q 619 122 556 72 q 733 232 682 171 q 820 364 785 293 q 875 517 856 435 q 894 689 894 599 q 846 903 894 828 q 704 978 797 978 q 578 939 635 978 q 483 835 522 900 q 422 693 443 771 q 401 538 401 615 q 412 458 401 493 q 451 403 422 422 q 533 383 479 383 q 633 403 588 383 q 713 456 679 422 q 764 531 747 489 q 775 567 771 549 q 781 604 779 586 q 723 528 765 549 q 644 507 681 507 q 556 544 589 507 q 522 636 522 581 q 568 749 522 704 q 678 793 614 793 q 777 748 742 793 q 813 628 813 703 q 765 475 813 540 q 634 374 718 410 q 442 338 550 338 z "},"R":{"ha":1031,"x_min":-67,"x_max":1007,"o":"m 432 494 q 465 492 449 493 q 498 489 482 490 q 531 486 514 488 q 665 474 601 482 q 775 445 728 465 q 844 388 822 425 q 857 290 867 351 l 833 146 q 838 80 826 100 q 875 60 849 60 q 925 83 904 60 q 961 149 946 106 l 968 168 l 1000 168 l 994 150 q 910 22 968 63 q 751 -19 851 -19 q 588 29 636 -19 q 554 161 540 78 l 581 319 q 581 401 589 367 q 538 456 572 436 q 429 475 503 475 l 432 494 m 404 476 l 411 499 l 446 499 q 542 517 493 499 q 634 575 592 536 q 702 675 676 614 q 728 819 728 736 q 702 923 728 890 q 631 956 676 956 q 586 941 603 956 q 558 883 569 926 l 364 147 q 351 81 353 106 q 369 43 349 56 q 444 28 390 31 l 439 0 q 328 3 392 3 q 192 4 265 4 q 47 3 118 4 q -67 0 -25 3 l -61 28 q 13 39 -14 31 q 54 72 39 47 q 82 147 69 97 l 264 836 q 276 903 275 878 q 256 940 276 928 q 183 956 236 953 l 190 983 q 260 981 218 982 q 347 980 301 981 q 426 979 392 979 q 548 981 500 979 q 639 982 596 982 q 917 939 828 982 q 1007 790 1007 896 q 938 624 1007 693 q 747 517 869 554 q 460 479 624 479 l 404 476 z "},"Ŕ":{"ha":1031,"x_min":-67,"x_max":1008,"o":"m 432 494 q 465 492 449 493 q 498 489 482 490 q 531 486 514 488 q 665 474 601 482 q 775 445 728 465 q 844 388 822 425 q 857 290 867 351 l 833 146 q 838 80 826 100 q 875 60 849 60 q 925 83 904 60 q 961 149 946 106 l 968 168 l 1000 168 l 994 150 q 910 22 968 63 q 751 -19 851 -19 q 588 29 636 -19 q 554 161 540 78 l 581 319 q 581 401 589 367 q 538 456 572 436 q 429 475 503 475 l 432 494 m 404 476 l 411 499 l 446 499 q 542 517 493 499 q 634 575 592 536 q 702 675 676 614 q 728 819 728 736 q 702 923 728 890 q 631 956 676 956 q 586 941 603 956 q 558 883 569 926 l 364 147 q 351 81 353 106 q 369 43 349 56 q 444 28 390 31 l 439 0 q 328 3 392 3 q 192 4 265 4 q 47 3 118 4 q -67 0 -25 3 l -61 28 q 13 39 -14 31 q 54 72 39 47 q 82 147 69 97 l 264 836 q 276 903 275 878 q 256 940 276 928 q 183 956 236 953 l 190 983 q 260 981 218 982 q 347 980 301 981 q 426 979 392 979 q 548 981 500 979 q 639 982 596 982 q 917 939 828 982 q 1007 790 1007 896 q 938 624 1007 693 q 747 517 869 554 q 460 479 624 479 l 404 476 m 579 1089 q 688 1194 646 1147 q 763 1275 729 1240 q 838 1331 797 1310 q 890 1346 861 1343 q 945 1338 918 1349 q 988 1299 972 1328 q 988 1226 1008 1260 q 925 1169 968 1193 q 842 1138 889 1150 q 733 1113 794 1126 q 589 1072 671 1099 l 579 1089 z "},"Ř":{"ha":1031,"x_min":-67,"x_max":1036,"o":"m 432 494 q 465 492 449 493 q 498 489 482 490 q 531 486 514 488 q 665 474 601 482 q 775 445 728 465 q 844 388 822 425 q 857 290 867 351 l 833 146 q 838 80 826 100 q 875 60 849 60 q 925 83 904 60 q 961 149 946 106 l 968 168 l 1000 168 l 994 150 q 910 22 968 63 q 751 -19 851 -19 q 588 29 636 -19 q 554 161 540 78 l 581 319 q 581 401 589 367 q 538 456 572 436 q 429 475 503 475 l 432 494 m 404 476 l 411 499 l 446 499 q 542 517 493 499 q 634 575 592 536 q 702 675 676 614 q 728 819 728 736 q 702 923 728 890 q 631 956 676 956 q 586 941 603 956 q 558 883 569 926 l 364 147 q 351 81 353 106 q 369 43 349 56 q 444 28 390 31 l 439 0 q 328 3 392 3 q 192 4 265 4 q 47 3 118 4 q -67 0 -25 3 l -61 28 q 13 39 -14 31 q 54 72 39 47 q 82 147 69 97 l 264 836 q 276 903 275 878 q 256 940 276 928 q 183 956 236 953 l 190 983 q 260 981 218 982 q 347 980 301 981 q 426 979 392 979 q 548 981 500 979 q 639 982 596 982 q 917 939 828 982 q 1007 790 1007 896 q 938 624 1007 693 q 747 517 869 554 q 460 479 624 479 l 404 476 m 717 1239 q 861 1281 782 1261 q 1029 1314 940 1300 l 1036 1294 q 801 1190 910 1256 q 626 1056 692 1125 l 601 1056 q 533 1194 575 1138 q 408 1294 490 1250 l 414 1314 q 536 1291 483 1303 q 633 1267 589 1279 q 717 1239 676 1254 z "},"Ŗ":{"ha":1031,"x_min":-67,"x_max":1007,"o":"m 432 494 q 465 492 449 493 q 498 489 482 490 q 531 486 514 488 q 665 474 601 482 q 775 445 728 465 q 844 388 822 425 q 857 290 867 351 l 833 146 q 838 80 826 100 q 875 60 849 60 q 925 83 904 60 q 961 149 946 106 l 968 168 l 1000 168 l 994 150 q 910 22 968 63 q 751 -19 851 -19 q 588 29 636 -19 q 554 161 540 78 l 581 319 q 581 401 589 367 q 538 456 572 436 q 429 475 503 475 l 432 494 m 404 476 l 411 499 l 446 499 q 542 517 493 499 q 634 575 592 536 q 702 675 676 614 q 728 819 728 736 q 702 923 728 890 q 631 956 676 956 q 586 941 603 956 q 558 883 569 926 l 364 147 q 351 81 353 106 q 369 43 349 56 q 444 28 390 31 l 439 0 q 328 3 392 3 q 192 4 265 4 q 47 3 118 4 q -67 0 -25 3 l -61 28 q 13 39 -14 31 q 54 72 39 47 q 82 147 69 97 l 264 836 q 276 903 275 878 q 256 940 276 928 q 183 956 236 953 l 190 983 q 260 981 218 982 q 347 980 301 981 q 426 979 392 979 q 548 981 500 979 q 639 982 596 982 q 917 939 828 982 q 1007 790 1007 896 q 938 624 1007 693 q 747 517 869 554 q 460 479 624 479 l 404 476 m 451 -58 q 524 -78 489 -58 q 558 -147 558 -99 q 494 -282 558 -232 q 331 -335 429 -332 l 331 -306 q 440 -284 396 -304 q 493 -231 483 -264 q 452 -249 475 -242 q 400 -256 429 -256 q 328 -237 353 -256 q 303 -182 303 -219 q 347 -92 303 -125 q 451 -58 392 -58 z "},"S":{"ha":846,"x_min":-49,"x_max":901,"o":"m 901 993 q 864 888 888 957 q 819 710 840 819 l 792 710 q 798 750 796 729 q 800 786 800 771 q 776 883 800 843 q 707 944 751 922 q 600 965 663 965 q 495 935 540 965 q 450 831 450 904 q 472 738 450 783 q 530 649 494 693 q 605 559 565 604 q 680 467 644 514 q 738 369 715 421 q 760 261 760 318 q 719 131 760 185 q 617 44 679 78 q 485 -4 554 11 q 356 -19 415 -19 q 238 -12 283 -19 q 158 9 192 -6 q 86 44 125 24 q 60 59 72 53 q 39 65 47 65 q 10 50 21 65 q -21 -10 -1 35 l -49 -10 q -22 61 -36 21 q 8 165 -8 101 q 46 324 25 228 l 74 324 q 63 272 67 303 q 61 215 60 240 q 125 63 65 114 q 288 13 185 13 q 417 49 385 13 q 450 140 450 86 q 430 249 450 199 q 378 345 410 300 q 310 434 346 390 q 243 522 275 478 q 191 616 211 567 q 171 721 171 665 q 205 847 171 794 q 294 935 239 900 q 414 986 350 969 q 536 1003 478 1003 q 693 978 635 1003 q 782 939 751 954 q 807 926 793 933 q 828 919 821 919 q 874 993 847 919 l 901 993 z "},"Ś":{"ha":846,"x_min":-49,"x_max":978,"o":"m 901 993 q 864 888 888 957 q 819 710 840 819 l 792 710 q 798 750 796 729 q 800 786 800 771 q 776 883 800 843 q 707 944 751 922 q 600 965 663 965 q 495 935 540 965 q 450 831 450 904 q 472 738 450 783 q 530 649 494 693 q 605 559 565 604 q 680 467 644 514 q 738 369 715 421 q 760 261 760 318 q 719 131 760 185 q 617 44 679 78 q 485 -4 554 11 q 356 -19 415 -19 q 238 -12 283 -19 q 158 9 192 -6 q 86 44 125 24 q 60 59 72 53 q 39 65 47 65 q 10 50 21 65 q -21 -10 -1 35 l -49 -10 q -22 61 -36 21 q 8 165 -8 101 q 46 324 25 228 l 74 324 q 63 272 67 303 q 61 215 60 240 q 125 63 65 114 q 288 13 185 13 q 417 49 385 13 q 450 140 450 86 q 430 249 450 199 q 378 345 410 300 q 310 434 346 390 q 243 522 275 478 q 191 616 211 567 q 171 721 171 665 q 205 847 171 794 q 294 935 239 900 q 414 986 350 969 q 536 1003 478 1003 q 693 978 635 1003 q 782 939 751 954 q 807 926 793 933 q 828 919 821 919 q 874 993 847 919 l 901 993 m 549 1089 q 657 1194 615 1147 q 733 1275 699 1240 q 807 1331 767 1310 q 859 1346 831 1343 q 915 1338 888 1349 q 957 1299 942 1328 q 958 1226 978 1260 q 894 1169 938 1193 q 811 1138 858 1150 q 702 1113 764 1126 q 558 1072 640 1099 l 549 1089 z "},"Š":{"ha":846,"x_min":-49,"x_max":1006,"o":"m 901 993 q 864 888 888 957 q 819 710 840 819 l 792 710 q 798 750 796 729 q 800 786 800 771 q 776 883 800 843 q 707 944 751 922 q 600 965 663 965 q 495 935 540 965 q 450 831 450 904 q 472 738 450 783 q 530 649 494 693 q 605 559 565 604 q 680 467 644 514 q 738 369 715 421 q 760 261 760 318 q 719 131 760 185 q 617 44 679 78 q 485 -4 554 11 q 356 -19 415 -19 q 238 -12 283 -19 q 158 9 192 -6 q 86 44 125 24 q 60 59 72 53 q 39 65 47 65 q 10 50 21 65 q -21 -10 -1 35 l -49 -10 q -22 61 -36 21 q 8 165 -8 101 q 46 324 25 228 l 74 324 q 63 272 67 303 q 61 215 60 240 q 125 63 65 114 q 288 13 185 13 q 417 49 385 13 q 450 140 450 86 q 430 249 450 199 q 378 345 410 300 q 310 434 346 390 q 243 522 275 478 q 191 616 211 567 q 171 721 171 665 q 205 847 171 794 q 294 935 239 900 q 414 986 350 969 q 536 1003 478 1003 q 693 978 635 1003 q 782 939 751 954 q 807 926 793 933 q 828 919 821 919 q 874 993 847 919 l 901 993 m 686 1239 q 831 1281 751 1261 q 999 1314 910 1300 l 1006 1294 q 770 1190 879 1256 q 596 1056 661 1125 l 571 1056 q 502 1194 544 1138 q 378 1294 460 1250 l 383 1314 q 506 1291 453 1303 q 602 1267 558 1279 q 686 1239 646 1254 z "},"Ş":{"ha":846,"x_min":-49,"x_max":901,"o":"m 901 993 q 864 888 888 957 q 819 710 840 819 l 792 710 q 798 750 796 729 q 800 786 800 771 q 776 883 800 843 q 707 944 751 922 q 600 965 663 965 q 495 935 540 965 q 450 831 450 904 q 472 738 450 783 q 530 649 494 693 q 605 559 565 604 q 680 467 644 514 q 738 369 715 421 q 760 261 760 318 q 719 131 760 185 q 617 44 679 78 q 485 -4 554 11 q 356 -19 415 -19 q 238 -12 283 -19 q 158 9 192 -6 q 86 44 125 24 q 60 59 72 53 q 39 65 47 65 q 10 50 21 65 q -21 -10 -1 35 l -49 -10 q -22 61 -36 21 q 8 165 -8 101 q 46 324 25 228 l 74 324 q 63 272 67 303 q 61 215 60 240 q 125 63 65 114 q 288 13 185 13 q 417 49 385 13 q 450 140 450 86 q 430 249 450 199 q 378 345 410 300 q 310 434 346 390 q 243 522 275 478 q 191 616 211 567 q 171 721 171 665 q 205 847 171 794 q 294 935 239 900 q 414 986 350 969 q 536 1003 478 1003 q 693 978 635 1003 q 782 939 751 954 q 807 926 793 933 q 828 919 821 919 q 874 993 847 919 l 901 993 m 353 10 l 314 -79 q 356 -67 333 -72 q 400 -62 379 -62 q 477 -80 447 -62 q 507 -136 507 -97 q 469 -209 507 -182 q 374 -249 432 -236 q 256 -261 317 -261 q 159 -252 203 -261 q 94 -236 115 -243 l 103 -214 q 150 -222 115 -217 q 215 -228 185 -228 q 264 -224 238 -228 q 310 -207 290 -219 q 329 -169 329 -194 q 290 -137 329 -137 q 271 -140 283 -137 q 247 -147 258 -142 l 315 10 l 353 10 z "},"Ŝ":{"ha":846,"x_min":-49,"x_max":901,"o":"m 901 993 q 864 888 888 957 q 819 710 840 819 l 792 710 q 798 750 796 729 q 800 786 800 771 q 776 883 800 843 q 707 944 751 922 q 600 965 663 965 q 495 935 540 965 q 450 831 450 904 q 472 738 450 783 q 530 649 494 693 q 605 559 565 604 q 680 467 644 514 q 738 369 715 421 q 760 261 760 318 q 719 131 760 185 q 617 44 679 78 q 485 -4 554 11 q 356 -19 415 -19 q 238 -12 283 -19 q 158 9 192 -6 q 86 44 125 24 q 60 59 72 53 q 39 65 47 65 q 10 50 21 65 q -21 -10 -1 35 l -49 -10 q -22 61 -36 21 q 8 165 -8 101 q 46 324 25 228 l 74 324 q 63 272 67 303 q 61 215 60 240 q 125 63 65 114 q 288 13 185 13 q 417 49 385 13 q 450 140 450 86 q 430 249 450 199 q 378 345 410 300 q 310 434 346 390 q 243 522 275 478 q 191 616 211 567 q 171 721 171 665 q 205 847 171 794 q 294 935 239 900 q 414 986 350 969 q 536 1003 478 1003 q 693 978 635 1003 q 782 939 751 954 q 807 926 793 933 q 828 919 821 919 q 874 993 847 919 l 901 993 m 572 1144 q 428 1103 508 1122 q 260 1069 349 1085 l 253 1089 q 488 1194 379 1129 q 663 1328 597 1258 l 688 1328 q 756 1190 714 1247 q 881 1089 799 1133 l 875 1069 q 753 1092 806 1081 q 657 1117 700 1104 q 572 1144 614 1129 z "},"Ș":{"ha":846,"x_min":-49,"x_max":901,"o":"m 901 993 q 864 888 888 957 q 819 710 840 819 l 792 710 q 798 750 796 729 q 800 786 800 771 q 776 883 800 843 q 707 944 751 922 q 600 965 663 965 q 495 935 540 965 q 450 831 450 904 q 472 738 450 783 q 530 649 494 693 q 605 559 565 604 q 680 467 644 514 q 738 369 715 421 q 760 261 760 318 q 719 131 760 185 q 617 44 679 78 q 485 -4 554 11 q 356 -19 415 -19 q 238 -12 283 -19 q 158 9 192 -6 q 86 44 125 24 q 60 59 72 53 q 39 65 47 65 q 10 50 21 65 q -21 -10 -1 35 l -49 -10 q -22 61 -36 21 q 8 165 -8 101 q 46 324 25 228 l 74 324 q 63 272 67 303 q 61 215 60 240 q 125 63 65 114 q 288 13 185 13 q 417 49 385 13 q 450 140 450 86 q 430 249 450 199 q 378 345 410 300 q 310 434 346 390 q 243 522 275 478 q 191 616 211 567 q 171 721 171 665 q 205 847 171 794 q 294 935 239 900 q 414 986 350 969 q 536 1003 478 1003 q 693 978 635 1003 q 782 939 751 954 q 807 926 793 933 q 828 919 821 919 q 874 993 847 919 l 901 993 m 313 -58 q 385 -78 350 -58 q 419 -147 419 -99 q 355 -282 419 -232 q 192 -335 290 -332 l 192 -306 q 301 -284 257 -304 q 354 -231 344 -264 q 313 -249 336 -242 q 261 -256 290 -256 q 189 -237 214 -256 q 164 -182 164 -219 q 208 -92 164 -125 q 313 -58 253 -58 z "},"ẞ":{"ha":988,"x_min":-93,"x_max":960,"o":"m 188 -239 q 38 -246 104 -240 q -93 -261 -28 -251 l 146 635 q 258 853 182 772 q 438 968 333 933 q 668 1003 543 1003 q 881 958 803 1003 q 960 813 960 914 q 904 684 960 742 q 759 585 849 626 q 567 519 669 543 q 783 471 706 510 q 893 380 861 432 q 925 281 925 328 q 892 153 925 210 q 798 59 858 97 q 656 1 738 21 q 478 -19 575 -19 q 364 8 408 -19 q 319 103 319 36 q 336 178 319 142 q 384 240 353 215 q 461 264 415 264 q 538 236 508 264 q 567 164 567 208 q 526 63 567 108 q 429 6 486 17 q 448 3 436 4 q 464 3 460 3 q 553 39 514 3 q 616 141 593 75 q 639 296 639 207 q 627 390 639 340 q 593 473 615 439 q 539 507 571 507 q 499 495 517 500 q 467 490 482 490 q 439 507 439 490 q 451 527 439 519 q 476 535 464 535 q 510 531 494 535 q 547 522 526 528 q 610 620 582 557 q 656 755 639 683 q 674 888 674 826 q 665 961 674 940 q 624 982 656 982 q 565 965 593 982 q 515 913 538 947 q 478 822 493 878 l 188 -239 z "},"Ə":{"ha":1097,"x_min":47,"x_max":1093,"o":"m 411 -19 q 219 21 301 -19 q 92 136 138 61 q 47 314 47 211 q 56 408 47 356 q 79 508 64 460 l 854 508 l 851 482 l 363 482 q 345 386 351 435 q 339 289 339 338 q 367 84 339 163 q 451 6 396 6 q 545 43 497 6 q 636 146 593 81 q 714 296 679 211 q 769 476 749 381 q 789 668 789 571 q 738 882 789 810 q 564 954 686 954 q 482 946 522 954 q 406 919 442 938 q 292 819 338 885 q 211 650 247 753 l 179 650 q 213 769 199 711 q 239 881 228 826 q 257 983 250 935 l 289 983 q 286 954 288 965 q 285 935 285 943 q 301 901 285 901 q 333 913 311 901 q 399 946 356 924 q 512 986 443 968 q 679 1004 581 1004 q 988 911 882 1004 q 1093 656 1093 818 q 1062 472 1093 567 q 971 289 1031 376 q 827 132 911 201 q 638 22 743 63 q 411 -19 533 -19 z "},"T":{"ha":965,"x_min":108,"x_max":1233,"o":"m 1097 1231 q 1197 1194 1160 1231 q 1233 1111 1233 1157 q 1203 1022 1233 1060 q 1117 960 1174 983 q 1010 932 1071 942 q 876 922 950 922 q 771 926 831 922 q 645 936 711 931 q 516 946 579 942 q 403 950 453 950 q 312 944 353 950 q 244 926 271 939 q 333 884 297 919 q 368 792 368 849 q 329 692 368 732 q 233 653 290 653 q 141 694 174 653 q 108 788 108 735 q 129 869 108 825 q 210 942 150 913 q 278 965 243 958 q 345 974 314 972 q 396 975 376 975 q 571 969 483 975 q 740 956 658 963 q 890 950 822 950 q 972 954 939 950 q 1031 964 1004 958 l 1026 951 q 981 1007 1001 971 q 960 1092 960 1043 q 999 1193 960 1156 q 1097 1231 1038 1231 m 564 954 q 592 952 564 954 q 660 947 619 950 q 742 942 701 944 q 811 937 783 939 q 839 935 839 935 l 635 161 q 626 85 622 113 q 658 44 631 57 q 739 28 685 32 l 733 0 q 606 3 685 3 q 443 4 528 4 q 289 3 363 4 q 171 0 215 3 l 176 28 q 269 42 235 31 q 322 83 303 54 q 353 161 340 111 l 564 954 z "},"Ŧ":{"ha":965,"x_min":108,"x_max":1233,"o":"m 1097 1231 q 1197 1194 1160 1231 q 1233 1111 1233 1157 q 1203 1022 1233 1060 q 1117 960 1174 983 q 1010 932 1071 942 q 876 922 950 922 q 771 926 831 922 q 645 936 711 931 q 516 946 579 942 q 403 950 453 950 q 312 944 353 950 q 244 926 271 939 q 333 884 297 919 q 368 792 368 849 q 329 692 368 732 q 233 653 290 653 q 141 694 174 653 q 108 788 108 735 q 129 869 108 825 q 210 942 150 913 q 278 965 243 958 q 345 974 314 972 q 396 975 376 975 q 571 969 483 975 q 740 956 658 963 q 890 950 822 950 q 972 954 939 950 q 1031 964 1004 958 l 1026 951 q 981 1007 1001 971 q 960 1092 960 1043 q 999 1193 960 1156 q 1097 1231 1038 1231 m 564 954 q 592 952 564 954 q 660 947 619 950 q 742 942 701 944 q 811 937 783 939 q 839 935 839 935 l 635 161 q 626 85 622 113 q 658 44 631 57 q 739 28 685 32 l 733 0 q 606 3 685 3 q 443 4 528 4 q 289 3 363 4 q 171 0 215 3 l 176 28 q 269 42 235 31 q 322 83 303 54 q 353 161 340 111 l 564 954 m 872 508 l 864 474 l 264 474 l 272 508 l 872 508 z "},"Ť":{"ha":965,"x_min":108,"x_max":1233,"o":"m 1097 1231 q 1197 1194 1160 1231 q 1233 1111 1233 1157 q 1203 1022 1233 1060 q 1117 960 1174 983 q 1010 932 1071 942 q 876 922 950 922 q 771 926 831 922 q 645 936 711 931 q 516 946 579 942 q 403 950 453 950 q 312 944 353 950 q 244 926 271 939 q 333 884 297 919 q 368 792 368 849 q 329 692 368 732 q 233 653 290 653 q 141 694 174 653 q 108 788 108 735 q 129 869 108 825 q 210 942 150 913 q 278 965 243 958 q 345 974 314 972 q 396 975 376 975 q 571 969 483 975 q 740 956 658 963 q 890 950 822 950 q 972 954 939 950 q 1031 964 1004 958 l 1026 951 q 981 1007 1001 971 q 960 1092 960 1043 q 999 1193 960 1156 q 1097 1231 1038 1231 m 564 954 q 592 952 564 954 q 660 947 619 950 q 742 942 701 944 q 811 937 783 939 q 839 935 839 935 l 635 161 q 626 85 622 113 q 658 44 631 57 q 739 28 685 32 l 733 0 q 606 3 685 3 q 443 4 528 4 q 289 3 363 4 q 171 0 215 3 l 176 28 q 269 42 235 31 q 322 83 303 54 q 353 161 340 111 l 564 954 m 796 1239 q 940 1281 861 1261 q 1108 1314 1019 1300 l 1115 1294 q 880 1190 989 1256 q 706 1056 771 1125 l 681 1056 q 612 1194 654 1138 q 488 1294 569 1250 l 493 1314 q 615 1291 563 1303 q 712 1267 668 1279 q 796 1239 756 1254 z "},"Ţ":{"ha":965,"x_min":108,"x_max":1233,"o":"m 1097 1231 q 1197 1194 1160 1231 q 1233 1111 1233 1157 q 1203 1022 1233 1060 q 1117 960 1174 983 q 1010 932 1071 942 q 876 922 950 922 q 771 926 831 922 q 645 936 711 931 q 516 946 579 942 q 403 950 453 950 q 312 944 353 950 q 244 926 271 939 q 333 884 297 919 q 368 792 368 849 q 329 692 368 732 q 233 653 290 653 q 141 694 174 653 q 108 788 108 735 q 129 869 108 825 q 210 942 150 913 q 278 965 243 958 q 345 974 314 972 q 396 975 376 975 q 571 969 483 975 q 740 956 658 963 q 890 950 822 950 q 972 954 939 950 q 1031 964 1004 958 l 1026 951 q 981 1007 1001 971 q 960 1092 960 1043 q 999 1193 960 1156 q 1097 1231 1038 1231 m 564 954 q 592 952 564 954 q 660 947 619 950 q 742 942 701 944 q 811 937 783 939 q 839 935 839 935 l 635 161 q 626 85 622 113 q 658 44 631 57 q 739 28 685 32 l 733 0 q 606 3 685 3 q 443 4 528 4 q 289 3 363 4 q 171 0 215 3 l 176 28 q 269 42 235 31 q 322 83 303 54 q 353 161 340 111 l 564 954 m 467 10 l 428 -79 q 470 -67 447 -72 q 514 -62 493 -62 q 591 -80 561 -62 q 621 -136 621 -97 q 583 -209 621 -182 q 488 -249 546 -236 q 369 -261 431 -261 q 273 -252 317 -261 q 208 -236 229 -243 l 217 -214 q 264 -222 229 -217 q 329 -228 299 -228 q 378 -224 351 -228 q 424 -207 404 -219 q 443 -169 443 -194 q 404 -137 443 -137 q 385 -140 397 -137 q 361 -147 372 -142 l 429 10 l 467 10 z "},"Ț":{"ha":965,"x_min":108,"x_max":1233,"o":"m 1097 1231 q 1197 1194 1160 1231 q 1233 1111 1233 1157 q 1203 1022 1233 1060 q 1117 960 1174 983 q 1010 932 1071 942 q 876 922 950 922 q 771 926 831 922 q 645 936 711 931 q 516 946 579 942 q 403 950 453 950 q 312 944 353 950 q 244 926 271 939 q 333 884 297 919 q 368 792 368 849 q 329 692 368 732 q 233 653 290 653 q 141 694 174 653 q 108 788 108 735 q 129 869 108 825 q 210 942 150 913 q 278 965 243 958 q 345 974 314 972 q 396 975 376 975 q 571 969 483 975 q 740 956 658 963 q 890 950 822 950 q 972 954 939 950 q 1031 964 1004 958 l 1026 951 q 981 1007 1001 971 q 960 1092 960 1043 q 999 1193 960 1156 q 1097 1231 1038 1231 m 564 954 q 592 952 564 954 q 660 947 619 950 q 742 942 701 944 q 811 937 783 939 q 839 935 839 935 l 635 161 q 626 85 622 113 q 658 44 631 57 q 739 28 685 32 l 733 0 q 606 3 685 3 q 443 4 528 4 q 289 3 363 4 q 171 0 215 3 l 176 28 q 269 42 235 31 q 322 83 303 54 q 353 161 340 111 l 564 954 m 426 -58 q 499 -78 464 -58 q 533 -147 533 -99 q 469 -282 533 -232 q 306 -335 404 -332 l 306 -306 q 415 -284 371 -304 q 468 -231 458 -264 q 427 -249 450 -242 q 375 -256 404 -256 q 303 -237 328 -256 q 278 -182 278 -219 q 322 -92 278 -125 q 426 -58 367 -58 z "},"U":{"ha":975,"x_min":97,"x_max":1106,"o":"m 904 711 q 934 853 929 804 q 915 925 939 903 q 826 956 890 947 l 835 983 q 906 981 863 982 q 989 979 950 979 q 1052 981 1021 979 q 1106 983 1083 982 l 1097 956 q 1026 926 1053 947 q 981 862 1000 906 q 942 739 963 818 l 856 404 q 719 110 806 213 q 595 16 669 51 q 435 -19 521 -19 q 233 18 308 -19 q 126 113 158 56 q 98 234 99 165 q 124 400 97 303 l 239 836 q 250 912 253 888 q 226 945 247 936 q 157 956 204 954 l 165 983 q 277 981 206 982 q 428 979 349 979 q 560 981 497 979 q 671 983 622 982 l 663 956 q 589 945 615 954 q 548 912 563 936 q 519 836 533 888 l 397 376 q 365 215 372 281 q 369 108 358 149 q 403 48 379 67 q 461 29 426 29 q 635 76 565 29 q 749 204 704 122 q 819 389 793 286 l 904 711 z "},"Ú":{"ha":975,"x_min":97,"x_max":1106,"o":"m 904 711 q 934 853 929 804 q 915 925 939 903 q 826 956 890 947 l 835 983 q 906 981 863 982 q 989 979 950 979 q 1052 981 1021 979 q 1106 983 1083 982 l 1097 956 q 1026 926 1053 947 q 981 862 1000 906 q 942 739 963 818 l 856 404 q 719 110 806 213 q 595 16 669 51 q 435 -19 521 -19 q 233 18 308 -19 q 126 113 158 56 q 98 234 99 165 q 124 400 97 303 l 239 836 q 250 912 253 888 q 226 945 247 936 q 157 956 204 954 l 165 983 q 277 981 206 982 q 428 979 349 979 q 560 981 497 979 q 671 983 622 982 l 663 956 q 589 945 615 954 q 548 912 563 936 q 519 836 533 888 l 397 376 q 365 215 372 281 q 369 108 358 149 q 403 48 379 67 q 461 29 426 29 q 635 76 565 29 q 749 204 704 122 q 819 389 793 286 l 904 711 m 671 1089 q 779 1194 738 1147 q 855 1275 821 1240 q 929 1331 889 1310 q 981 1346 953 1343 q 1037 1338 1010 1349 q 1079 1299 1064 1328 q 1080 1226 1100 1260 q 1017 1169 1060 1193 q 933 1138 981 1150 q 824 1113 886 1126 q 681 1072 763 1099 l 671 1089 z "},"Ŭ":{"ha":975,"x_min":97,"x_max":1106,"o":"m 904 711 q 934 853 929 804 q 915 925 939 903 q 826 956 890 947 l 835 983 q 906 981 863 982 q 989 979 950 979 q 1052 981 1021 979 q 1106 983 1083 982 l 1097 956 q 1026 926 1053 947 q 981 862 1000 906 q 942 739 963 818 l 856 404 q 719 110 806 213 q 595 16 669 51 q 435 -19 521 -19 q 233 18 308 -19 q 126 113 158 56 q 98 234 99 165 q 124 400 97 303 l 239 836 q 250 912 253 888 q 226 945 247 936 q 157 956 204 954 l 165 983 q 277 981 206 982 q 428 979 349 979 q 560 981 497 979 q 671 983 622 982 l 663 956 q 589 945 615 954 q 548 912 563 936 q 519 836 533 888 l 397 376 q 365 215 372 281 q 369 108 358 149 q 403 48 379 67 q 461 29 426 29 q 635 76 565 29 q 749 204 704 122 q 819 389 793 286 l 904 711 m 719 1225 q 899 1244 821 1225 q 1043 1303 976 1264 l 1060 1290 q 966 1178 1024 1231 q 838 1092 908 1125 q 690 1060 767 1060 q 576 1090 622 1060 q 501 1172 529 1121 q 463 1286 474 1224 l 483 1297 q 581 1243 526 1261 q 719 1225 635 1225 z "},"Ǔ":{"ha":975,"x_min":97,"x_max":1128,"o":"m 904 711 q 934 853 929 804 q 915 925 939 903 q 826 956 890 947 l 835 983 q 906 981 863 982 q 989 979 950 979 q 1052 981 1021 979 q 1106 983 1083 982 l 1097 956 q 1026 926 1053 947 q 981 862 1000 906 q 942 739 963 818 l 856 404 q 719 110 806 213 q 595 16 669 51 q 435 -19 521 -19 q 233 18 308 -19 q 126 113 158 56 q 98 234 99 165 q 124 400 97 303 l 239 836 q 250 912 253 888 q 226 945 247 936 q 157 956 204 954 l 165 983 q 277 981 206 982 q 428 979 349 979 q 560 981 497 979 q 671 983 622 982 l 663 956 q 589 945 615 954 q 548 912 563 936 q 519 836 533 888 l 397 376 q 365 215 372 281 q 369 108 358 149 q 403 48 379 67 q 461 29 426 29 q 635 76 565 29 q 749 204 704 122 q 819 389 793 286 l 904 711 m 808 1239 q 953 1281 874 1261 q 1121 1314 1032 1300 l 1128 1294 q 892 1190 1001 1256 q 718 1056 783 1125 l 693 1056 q 624 1194 667 1138 q 500 1294 582 1250 l 506 1314 q 628 1291 575 1303 q 724 1267 681 1279 q 808 1239 768 1254 z "},"Û":{"ha":975,"x_min":97,"x_max":1106,"o":"m 904 711 q 934 853 929 804 q 915 925 939 903 q 826 956 890 947 l 835 983 q 906 981 863 982 q 989 979 950 979 q 1052 981 1021 979 q 1106 983 1083 982 l 1097 956 q 1026 926 1053 947 q 981 862 1000 906 q 942 739 963 818 l 856 404 q 719 110 806 213 q 595 16 669 51 q 435 -19 521 -19 q 233 18 308 -19 q 126 113 158 56 q 98 234 99 165 q 124 400 97 303 l 239 836 q 250 912 253 888 q 226 945 247 936 q 157 956 204 954 l 165 983 q 277 981 206 982 q 428 979 349 979 q 560 981 497 979 q 671 983 622 982 l 663 956 q 589 945 615 954 q 548 912 563 936 q 519 836 533 888 l 397 376 q 365 215 372 281 q 369 108 358 149 q 403 48 379 67 q 461 29 426 29 q 635 76 565 29 q 749 204 704 122 q 819 389 793 286 l 904 711 m 694 1144 q 551 1103 631 1122 q 382 1069 471 1085 l 375 1089 q 610 1194 501 1129 q 785 1328 719 1258 l 810 1328 q 878 1190 836 1247 q 1003 1089 921 1133 l 997 1069 q 875 1092 928 1081 q 779 1117 822 1104 q 694 1144 736 1129 z "},"Ü":{"ha":975,"x_min":97,"x_max":1106,"o":"m 904 711 q 934 853 929 804 q 915 925 939 903 q 826 956 890 947 l 835 983 q 906 981 863 982 q 989 979 950 979 q 1052 981 1021 979 q 1106 983 1083 982 l 1097 956 q 1026 926 1053 947 q 981 862 1000 906 q 942 739 963 818 l 856 404 q 719 110 806 213 q 595 16 669 51 q 435 -19 521 -19 q 233 18 308 -19 q 126 113 158 56 q 98 234 99 165 q 124 400 97 303 l 239 836 q 250 912 253 888 q 226 945 247 936 q 157 956 204 954 l 165 983 q 277 981 206 982 q 428 979 349 979 q 560 981 497 979 q 671 983 622 982 l 663 956 q 589 945 615 954 q 548 912 563 936 q 519 836 533 888 l 397 376 q 365 215 372 281 q 369 108 358 149 q 403 48 379 67 q 461 29 426 29 q 635 76 565 29 q 749 204 704 122 q 819 389 793 286 l 904 711 m 413 1164 q 455 1268 413 1236 q 550 1300 497 1300 q 630 1270 606 1300 q 654 1192 654 1240 q 633 1115 654 1144 q 581 1072 613 1085 q 515 1058 550 1058 q 436 1088 460 1058 q 413 1164 413 1117 m 771 1164 q 813 1268 771 1236 q 908 1300 856 1300 q 988 1270 964 1300 q 1013 1192 1013 1240 q 992 1115 1013 1144 q 940 1072 971 1085 q 874 1058 908 1058 q 794 1088 818 1058 q 771 1164 771 1117 z "},"Ụ":{"ha":975,"x_min":97,"x_max":1106,"o":"m 904 711 q 934 853 929 804 q 915 925 939 903 q 826 956 890 947 l 835 983 q 906 981 863 982 q 989 979 950 979 q 1052 981 1021 979 q 1106 983 1083 982 l 1097 956 q 1026 926 1053 947 q 981 862 1000 906 q 942 739 963 818 l 856 404 q 719 110 806 213 q 595 16 669 51 q 435 -19 521 -19 q 233 18 308 -19 q 126 113 158 56 q 98 234 99 165 q 124 400 97 303 l 239 836 q 250 912 253 888 q 226 945 247 936 q 157 956 204 954 l 165 983 q 277 981 206 982 q 428 979 349 979 q 560 981 497 979 q 671 983 622 982 l 663 956 q 589 945 615 954 q 548 912 563 936 q 519 836 533 888 l 397 376 q 365 215 372 281 q 369 108 358 149 q 403 48 379 67 q 461 29 426 29 q 635 76 565 29 q 749 204 704 122 q 819 389 793 286 l 904 711 m 406 -265 q 329 -246 356 -265 q 303 -187 303 -226 q 340 -95 303 -128 q 443 -62 378 -62 q 519 -82 493 -62 q 546 -140 546 -101 q 508 -233 546 -200 q 406 -265 471 -265 z "},"Ù":{"ha":975,"x_min":97,"x_max":1106,"o":"m 904 711 q 934 853 929 804 q 915 925 939 903 q 826 956 890 947 l 835 983 q 906 981 863 982 q 989 979 950 979 q 1052 981 1021 979 q 1106 983 1083 982 l 1097 956 q 1026 926 1053 947 q 981 862 1000 906 q 942 739 963 818 l 856 404 q 719 110 806 213 q 595 16 669 51 q 435 -19 521 -19 q 233 18 308 -19 q 126 113 158 56 q 98 234 99 165 q 124 400 97 303 l 239 836 q 250 912 253 888 q 226 945 247 936 q 157 956 204 954 l 165 983 q 277 981 206 982 q 428 979 349 979 q 560 981 497 979 q 671 983 622 982 l 663 956 q 589 945 615 954 q 548 912 563 936 q 519 836 533 888 l 397 376 q 365 215 372 281 q 369 108 358 149 q 403 48 379 67 q 461 29 426 29 q 635 76 565 29 q 749 204 704 122 q 819 389 793 286 l 904 711 m 774 1072 q 639 1106 693 1097 q 548 1121 585 1115 q 479 1143 511 1126 q 431 1195 444 1161 q 433 1263 417 1229 q 493 1310 453 1301 q 564 1304 533 1319 q 622 1260 599 1289 q 681 1190 646 1232 q 783 1089 717 1147 l 774 1072 z "},"Ủ":{"ha":975,"x_min":97,"x_max":1106,"o":"m 904 711 q 934 853 929 804 q 915 925 939 903 q 826 956 890 947 l 835 983 q 906 981 863 982 q 989 979 950 979 q 1052 981 1021 979 q 1106 983 1083 982 l 1097 956 q 1026 926 1053 947 q 981 862 1000 906 q 942 739 963 818 l 856 404 q 719 110 806 213 q 595 16 669 51 q 435 -19 521 -19 q 233 18 308 -19 q 126 113 158 56 q 98 234 99 165 q 124 400 97 303 l 239 836 q 250 912 253 888 q 226 945 247 936 q 157 956 204 954 l 165 983 q 277 981 206 982 q 428 979 349 979 q 560 981 497 979 q 671 983 622 982 l 663 956 q 589 945 615 954 q 548 912 563 936 q 519 836 533 888 l 397 376 q 365 215 372 281 q 369 108 358 149 q 403 48 379 67 q 461 29 426 29 q 635 76 565 29 q 749 204 704 122 q 819 389 793 286 l 904 711 m 681 1026 q 707 1094 688 1069 q 748 1135 726 1118 q 785 1176 769 1153 q 800 1240 800 1199 q 776 1309 800 1289 q 713 1329 753 1329 q 674 1325 690 1329 q 650 1317 657 1321 q 692 1288 676 1307 q 708 1239 708 1268 q 680 1176 708 1200 q 613 1153 651 1153 q 557 1172 578 1153 q 536 1224 536 1192 q 560 1283 536 1258 q 619 1325 585 1308 q 692 1349 653 1340 q 778 1357 732 1357 q 903 1331 856 1357 q 951 1249 951 1306 q 929 1186 951 1208 q 873 1151 907 1164 q 803 1124 839 1138 q 742 1089 768 1111 q 708 1026 715 1067 l 681 1026 z "},"Ư":{"ha":975,"x_min":96,"x_max":1214,"o":"m 418 -19 q 235 17 310 -19 q 126 113 160 54 q 98 238 96 165 q 124 400 100 310 l 239 836 q 250 912 253 888 q 226 945 247 936 q 157 956 204 954 l 165 983 q 277 981 206 982 q 422 979 349 979 q 559 981 496 979 q 671 983 622 982 l 663 956 q 589 945 615 954 q 548 912 563 936 q 519 836 533 888 l 397 376 q 361 169 363 246 q 392 61 360 93 q 486 29 424 29 q 639 78 574 29 q 749 208 704 126 q 819 389 794 289 l 967 958 l 969 950 q 897 951 933 950 q 825 956 860 951 l 832 983 q 883 980 864 982 q 933 978 903 978 q 1024 983 986 978 q 1094 1007 1061 989 l 1090 996 q 1026 1042 1056 1011 q 996 1119 996 1074 q 1028 1197 996 1168 q 1103 1225 1060 1225 q 1181 1195 1147 1225 q 1214 1113 1214 1165 q 1190 1040 1214 1069 q 1128 990 1165 1010 q 1058 963 1093 972 q 988 951 1022 954 l 999 958 l 854 404 q 801 244 832 321 q 719 110 769 168 q 597 16 669 51 q 418 -19 524 -19 z "},"Ứ":{"ha":975,"x_min":96,"x_max":1214,"o":"m 418 -19 q 235 17 310 -19 q 126 113 160 54 q 98 238 96 165 q 124 400 100 310 l 239 836 q 250 912 253 888 q 226 945 247 936 q 157 956 204 954 l 165 983 q 277 981 206 982 q 422 979 349 979 q 559 981 496 979 q 671 983 622 982 l 663 956 q 589 945 615 954 q 548 912 563 936 q 519 836 533 888 l 397 376 q 361 169 363 246 q 392 61 360 93 q 486 29 424 29 q 639 78 574 29 q 749 208 704 126 q 819 389 794 289 l 967 958 l 969 950 q 897 951 933 950 q 825 956 860 951 l 832 983 q 883 980 864 982 q 933 978 903 978 q 1024 983 986 978 q 1094 1007 1061 989 l 1090 996 q 1026 1042 1056 1011 q 996 1119 996 1074 q 1028 1197 996 1168 q 1103 1225 1060 1225 q 1181 1195 1147 1225 q 1214 1113 1214 1165 q 1190 1040 1214 1069 q 1128 990 1165 1010 q 1058 963 1093 972 q 988 951 1022 954 l 999 958 l 854 404 q 801 244 832 321 q 719 110 769 168 q 597 16 669 51 q 418 -19 524 -19 m 671 1089 q 779 1194 738 1147 q 855 1275 821 1240 q 929 1331 889 1310 q 981 1346 953 1343 q 1037 1338 1010 1349 q 1079 1299 1064 1328 q 1080 1226 1100 1260 q 1017 1169 1060 1193 q 933 1138 981 1150 q 824 1113 886 1126 q 681 1072 763 1099 l 671 1089 z "},"Ự":{"ha":975,"x_min":96,"x_max":1214,"o":"m 418 -19 q 235 17 310 -19 q 126 113 160 54 q 98 238 96 165 q 124 400 100 310 l 239 836 q 250 912 253 888 q 226 945 247 936 q 157 956 204 954 l 165 983 q 277 981 206 982 q 422 979 349 979 q 559 981 496 979 q 671 983 622 982 l 663 956 q 589 945 615 954 q 548 912 563 936 q 519 836 533 888 l 397 376 q 361 169 363 246 q 392 61 360 93 q 486 29 424 29 q 639 78 574 29 q 749 208 704 126 q 819 389 794 289 l 967 958 l 969 950 q 897 951 933 950 q 825 956 860 951 l 832 983 q 883 980 864 982 q 933 978 903 978 q 1024 983 986 978 q 1094 1007 1061 989 l 1090 996 q 1026 1042 1056 1011 q 996 1119 996 1074 q 1028 1197 996 1168 q 1103 1225 1060 1225 q 1181 1195 1147 1225 q 1214 1113 1214 1165 q 1190 1040 1214 1069 q 1128 990 1165 1010 q 1058 963 1093 972 q 988 951 1022 954 l 999 958 l 854 404 q 801 244 832 321 q 719 110 769 168 q 597 16 669 51 q 418 -19 524 -19 m 406 -265 q 329 -246 356 -265 q 303 -187 303 -226 q 340 -95 303 -128 q 443 -62 378 -62 q 519 -82 493 -62 q 546 -140 546 -101 q 508 -233 546 -200 q 406 -265 471 -265 z "},"Ừ":{"ha":975,"x_min":96,"x_max":1214,"o":"m 418 -19 q 235 17 310 -19 q 126 113 160 54 q 98 238 96 165 q 124 400 100 310 l 239 836 q 250 912 253 888 q 226 945 247 936 q 157 956 204 954 l 165 983 q 277 981 206 982 q 422 979 349 979 q 559 981 496 979 q 671 983 622 982 l 663 956 q 589 945 615 954 q 548 912 563 936 q 519 836 533 888 l 397 376 q 361 169 363 246 q 392 61 360 93 q 486 29 424 29 q 639 78 574 29 q 749 208 704 126 q 819 389 794 289 l 967 958 l 969 950 q 897 951 933 950 q 825 956 860 951 l 832 983 q 883 980 864 982 q 933 978 903 978 q 1024 983 986 978 q 1094 1007 1061 989 l 1090 996 q 1026 1042 1056 1011 q 996 1119 996 1074 q 1028 1197 996 1168 q 1103 1225 1060 1225 q 1181 1195 1147 1225 q 1214 1113 1214 1165 q 1190 1040 1214 1069 q 1128 990 1165 1010 q 1058 963 1093 972 q 988 951 1022 954 l 999 958 l 854 404 q 801 244 832 321 q 719 110 769 168 q 597 16 669 51 q 418 -19 524 -19 m 774 1072 q 639 1106 693 1097 q 548 1121 585 1115 q 479 1143 511 1126 q 431 1195 444 1161 q 433 1263 417 1229 q 493 1310 453 1301 q 564 1304 533 1319 q 622 1260 599 1289 q 681 1190 646 1232 q 783 1089 717 1147 l 774 1072 z "},"Ử":{"ha":975,"x_min":96,"x_max":1214,"o":"m 418 -19 q 235 17 310 -19 q 126 113 160 54 q 98 238 96 165 q 124 400 100 310 l 239 836 q 250 912 253 888 q 226 945 247 936 q 157 956 204 954 l 165 983 q 277 981 206 982 q 422 979 349 979 q 559 981 496 979 q 671 983 622 982 l 663 956 q 589 945 615 954 q 548 912 563 936 q 519 836 533 888 l 397 376 q 361 169 363 246 q 392 61 360 93 q 486 29 424 29 q 639 78 574 29 q 749 208 704 126 q 819 389 794 289 l 967 958 l 969 950 q 897 951 933 950 q 825 956 860 951 l 832 983 q 883 980 864 982 q 933 978 903 978 q 1024 983 986 978 q 1094 1007 1061 989 l 1090 996 q 1026 1042 1056 1011 q 996 1119 996 1074 q 1028 1197 996 1168 q 1103 1225 1060 1225 q 1181 1195 1147 1225 q 1214 1113 1214 1165 q 1190 1040 1214 1069 q 1128 990 1165 1010 q 1058 963 1093 972 q 988 951 1022 954 l 999 958 l 854 404 q 801 244 832 321 q 719 110 769 168 q 597 16 669 51 q 418 -19 524 -19 m 681 1026 q 707 1094 688 1069 q 748 1135 726 1118 q 785 1176 769 1153 q 800 1240 800 1199 q 776 1309 800 1289 q 713 1329 753 1329 q 674 1325 690 1329 q 650 1317 657 1321 q 692 1288 676 1307 q 708 1239 708 1268 q 680 1176 708 1200 q 613 1153 651 1153 q 557 1172 578 1153 q 536 1224 536 1192 q 560 1283 536 1258 q 619 1325 585 1308 q 692 1349 653 1340 q 778 1357 732 1357 q 903 1331 856 1357 q 951 1249 951 1306 q 929 1186 951 1208 q 873 1151 907 1164 q 803 1124 839 1138 q 742 1089 768 1111 q 708 1026 715 1067 l 681 1026 z "},"Ữ":{"ha":975,"x_min":96,"x_max":1214,"o":"m 418 -19 q 235 17 310 -19 q 126 113 160 54 q 98 238 96 165 q 124 400 100 310 l 239 836 q 250 912 253 888 q 226 945 247 936 q 157 956 204 954 l 165 983 q 277 981 206 982 q 422 979 349 979 q 559 981 496 979 q 671 983 622 982 l 663 956 q 589 945 615 954 q 548 912 563 936 q 519 836 533 888 l 397 376 q 361 169 363 246 q 392 61 360 93 q 486 29 424 29 q 639 78 574 29 q 749 208 704 126 q 819 389 794 289 l 967 958 l 969 950 q 897 951 933 950 q 825 956 860 951 l 832 983 q 883 980 864 982 q 933 978 903 978 q 1024 983 986 978 q 1094 1007 1061 989 l 1090 996 q 1026 1042 1056 1011 q 996 1119 996 1074 q 1028 1197 996 1168 q 1103 1225 1060 1225 q 1181 1195 1147 1225 q 1214 1113 1214 1165 q 1190 1040 1214 1069 q 1128 990 1165 1010 q 1058 963 1093 972 q 988 951 1022 954 l 999 958 l 854 404 q 801 244 832 321 q 719 110 769 168 q 597 16 669 51 q 418 -19 524 -19 m 656 1317 q 746 1301 710 1317 q 810 1266 782 1286 q 866 1231 838 1246 q 935 1215 894 1215 q 994 1234 967 1215 q 1049 1296 1022 1253 l 1074 1289 q 956 1115 1029 1168 q 810 1063 883 1063 q 719 1078 756 1063 q 656 1113 683 1093 q 599 1149 628 1133 q 531 1164 571 1164 q 472 1146 499 1164 q 417 1083 444 1128 l 392 1090 q 509 1264 436 1211 q 656 1317 582 1317 z "},"Ű":{"ha":975,"x_min":97,"x_max":1106,"o":"m 904 711 q 934 853 929 804 q 915 925 939 903 q 826 956 890 947 l 835 983 q 906 981 863 982 q 989 979 950 979 q 1052 981 1021 979 q 1106 983 1083 982 l 1097 956 q 1026 926 1053 947 q 981 862 1000 906 q 942 739 963 818 l 856 404 q 719 110 806 213 q 595 16 669 51 q 435 -19 521 -19 q 233 18 308 -19 q 126 113 158 56 q 98 234 99 165 q 124 400 97 303 l 239 836 q 250 912 253 888 q 226 945 247 936 q 157 956 204 954 l 165 983 q 277 981 206 982 q 428 979 349 979 q 560 981 497 979 q 671 983 622 982 l 663 956 q 589 945 615 954 q 548 912 563 936 q 519 836 533 888 l 397 376 q 365 215 372 281 q 369 108 358 149 q 403 48 379 67 q 461 29 426 29 q 635 76 565 29 q 749 204 704 122 q 819 389 793 286 l 904 711 m 763 1086 q 835 1188 808 1144 q 881 1261 861 1231 q 925 1310 901 1292 q 996 1325 956 1332 q 1058 1282 1036 1318 q 1071 1217 1081 1251 q 1028 1160 1061 1182 q 970 1134 1004 1144 q 889 1110 936 1124 q 775 1072 842 1097 l 763 1086 m 447 1086 q 519 1188 493 1144 q 566 1261 546 1231 q 610 1310 586 1292 q 680 1325 640 1332 q 743 1282 719 1318 q 755 1217 764 1251 q 713 1160 746 1182 q 655 1134 689 1144 q 574 1110 621 1124 q 460 1072 526 1097 l 447 1086 z "},"Ū":{"ha":975,"x_min":97,"x_max":1106,"o":"m 904 711 q 934 853 929 804 q 915 925 939 903 q 826 956 890 947 l 835 983 q 906 981 863 982 q 989 979 950 979 q 1052 981 1021 979 q 1106 983 1083 982 l 1097 956 q 1026 926 1053 947 q 981 862 1000 906 q 942 739 963 818 l 856 404 q 719 110 806 213 q 595 16 669 51 q 435 -19 521 -19 q 233 18 308 -19 q 126 113 158 56 q 98 234 99 165 q 124 400 97 303 l 239 836 q 250 912 253 888 q 226 945 247 936 q 157 956 204 954 l 165 983 q 277 981 206 982 q 428 979 349 979 q 560 981 497 979 q 671 983 622 982 l 663 956 q 589 945 615 954 q 548 912 563 936 q 519 836 533 888 l 397 376 q 365 215 372 281 q 369 108 358 149 q 403 48 379 67 q 461 29 426 29 q 635 76 565 29 q 749 204 704 122 q 819 389 793 286 l 904 711 m 1001 1172 l 993 1138 l 393 1138 l 401 1172 l 1001 1172 z "},"Ų":{"ha":975,"x_min":97,"x_max":1106,"o":"m 904 711 q 934 853 929 804 q 915 925 939 903 q 826 956 890 947 l 835 983 q 906 981 863 982 q 989 979 950 979 q 1052 981 1021 979 q 1106 983 1083 982 l 1097 956 q 1026 926 1053 947 q 981 862 1000 906 q 942 739 963 818 l 856 404 q 719 110 806 213 q 595 16 669 51 q 435 -19 521 -19 q 233 18 308 -19 q 126 113 158 56 q 98 234 99 165 q 124 400 97 303 l 239 836 q 250 912 253 888 q 226 945 247 936 q 157 956 204 954 l 165 983 q 277 981 206 982 q 428 979 349 979 q 560 981 497 979 q 671 983 622 982 l 663 956 q 589 945 615 954 q 548 912 563 936 q 519 836 533 888 l 397 376 q 365 215 372 281 q 369 108 358 149 q 403 48 379 67 q 461 29 426 29 q 635 76 565 29 q 749 204 704 122 q 819 389 793 286 l 904 711 m 565 4 q 490 -42 519 -14 q 445 -99 460 -69 q 431 -154 431 -128 q 471 -190 431 -190 q 516 -184 490 -190 q 569 -164 542 -178 l 585 -187 q 476 -244 529 -226 q 367 -261 424 -261 q 275 -239 310 -261 q 240 -176 240 -217 q 283 -99 240 -133 q 394 -38 325 -64 q 540 4 463 -12 l 565 4 z "},"Ů":{"ha":975,"x_min":97,"x_max":1106,"o":"m 904 711 q 934 853 929 804 q 915 925 939 903 q 826 956 890 947 l 835 983 q 906 981 863 982 q 989 979 950 979 q 1052 981 1021 979 q 1106 983 1083 982 l 1097 956 q 1026 926 1053 947 q 981 862 1000 906 q 942 739 963 818 l 856 404 q 719 110 806 213 q 595 16 669 51 q 435 -19 521 -19 q 233 18 308 -19 q 126 113 158 56 q 98 234 99 165 q 124 400 97 303 l 239 836 q 250 912 253 888 q 226 945 247 936 q 157 956 204 954 l 165 983 q 277 981 206 982 q 428 979 349 979 q 560 981 497 979 q 671 983 622 982 l 663 956 q 589 945 615 954 q 548 912 563 936 q 519 836 533 888 l 397 376 q 365 215 372 281 q 369 108 358 149 q 403 48 379 67 q 461 29 426 29 q 635 76 565 29 q 749 204 704 122 q 819 389 793 286 l 904 711 m 732 1313 q 837 1279 794 1313 q 879 1189 879 1246 q 853 1110 879 1146 q 785 1052 828 1074 q 694 1031 743 1031 q 594 1064 635 1031 q 553 1156 553 1097 q 576 1235 553 1200 q 641 1292 600 1271 q 732 1313 682 1313 m 701 1060 q 770 1076 738 1060 q 823 1122 803 1093 q 843 1186 843 1151 q 806 1260 843 1236 q 728 1283 768 1283 q 631 1244 672 1283 q 590 1156 590 1206 q 625 1084 590 1108 q 701 1060 660 1060 z "},"Ũ":{"ha":975,"x_min":97,"x_max":1106,"o":"m 904 711 q 934 853 929 804 q 915 925 939 903 q 826 956 890 947 l 835 983 q 906 981 863 982 q 989 979 950 979 q 1052 981 1021 979 q 1106 983 1083 982 l 1097 956 q 1026 926 1053 947 q 981 862 1000 906 q 942 739 963 818 l 856 404 q 719 110 806 213 q 595 16 669 51 q 435 -19 521 -19 q 233 18 308 -19 q 126 113 158 56 q 98 234 99 165 q 124 400 97 303 l 239 836 q 250 912 253 888 q 226 945 247 936 q 157 956 204 954 l 165 983 q 277 981 206 982 q 428 979 349 979 q 560 981 497 979 q 671 983 622 982 l 663 956 q 589 945 615 954 q 548 912 563 936 q 519 836 533 888 l 397 376 q 365 215 372 281 q 369 108 358 149 q 403 48 379 67 q 461 29 426 29 q 635 76 565 29 q 749 204 704 122 q 819 389 793 286 l 904 711 m 656 1317 q 746 1301 710 1317 q 810 1266 782 1286 q 866 1231 838 1246 q 935 1215 894 1215 q 994 1234 967 1215 q 1049 1296 1022 1253 l 1074 1289 q 956 1115 1029 1168 q 810 1063 883 1063 q 719 1078 756 1063 q 656 1113 683 1093 q 599 1149 628 1133 q 531 1164 571 1164 q 472 1146 499 1164 q 417 1083 444 1128 l 392 1090 q 509 1264 436 1211 q 656 1317 582 1317 z "},"V":{"ha":944,"x_min":125,"x_max":1119,"o":"m 906 801 q 937 889 942 857 q 899 936 932 921 q 811 956 865 951 l 818 983 q 869 981 832 982 q 948 980 906 981 q 1015 979 990 979 q 1071 981 1044 979 q 1119 983 1097 982 l 1113 956 q 1052 930 1079 946 q 996 881 1025 914 q 929 790 967 849 l 411 -7 q 359 -4 385 -4 q 307 -7 333 -4 l 197 867 q 168 935 192 917 q 125 956 144 954 l 132 983 q 237 981 172 982 q 365 979 301 979 q 503 981 440 979 q 607 983 567 982 l 600 956 q 529 944 556 954 q 494 911 503 935 q 489 839 485 888 l 556 226 l 493 168 l 906 801 z "},"W":{"ha":1438,"x_min":119,"x_max":1604,"o":"m 846 714 l 406 -7 l 301 -7 l 192 867 q 163 935 186 917 q 119 956 139 954 l 126 983 q 231 981 167 982 q 360 979 296 979 q 474 981 422 979 q 560 983 525 982 l 553 956 q 495 932 511 953 q 483 839 479 911 l 547 249 l 486 182 l 839 751 l 846 714 m 1390 801 q 1419 892 1424 860 q 1383 938 1415 924 q 1296 956 1350 951 l 1303 983 q 1353 981 1317 982 q 1433 980 1390 981 q 1500 979 1475 979 q 1556 981 1529 979 q 1604 983 1582 982 l 1597 956 q 1535 931 1564 946 q 1478 883 1507 915 q 1414 790 1449 851 l 960 -7 l 856 -7 l 746 867 q 722 935 740 917 q 688 956 703 954 l 694 983 q 793 981 732 982 q 914 979 854 979 q 1052 981 989 979 q 1156 983 1115 982 l 1149 956 q 1056 932 1082 953 q 1038 839 1031 911 l 1101 249 l 1038 186 l 1390 801 z "},"Ẃ":{"ha":1438,"x_min":119,"x_max":1604,"o":"m 846 714 l 406 -7 l 301 -7 l 192 867 q 163 935 186 917 q 119 956 139 954 l 126 983 q 231 981 167 982 q 360 979 296 979 q 474 981 422 979 q 560 983 525 982 l 553 956 q 495 932 511 953 q 483 839 479 911 l 547 249 l 486 182 l 839 751 l 846 714 m 1390 801 q 1419 892 1424 860 q 1383 938 1415 924 q 1296 956 1350 951 l 1303 983 q 1353 981 1317 982 q 1433 980 1390 981 q 1500 979 1475 979 q 1556 981 1529 979 q 1604 983 1582 982 l 1597 956 q 1535 931 1564 946 q 1478 883 1507 915 q 1414 790 1449 851 l 960 -7 l 856 -7 l 746 867 q 722 935 740 917 q 688 956 703 954 l 694 983 q 793 981 732 982 q 914 979 854 979 q 1052 981 989 979 q 1156 983 1115 982 l 1149 956 q 1056 932 1082 953 q 1038 839 1031 911 l 1101 249 l 1038 186 l 1390 801 m 897 1085 q 1006 1190 964 1143 q 1081 1271 1047 1236 q 1156 1326 1115 1306 q 1208 1342 1179 1339 q 1263 1334 1236 1344 q 1306 1294 1290 1324 q 1306 1222 1326 1256 q 1243 1165 1286 1189 q 1160 1134 1207 1146 q 1051 1108 1113 1122 q 907 1068 989 1094 l 897 1085 z "},"Ŵ":{"ha":1438,"x_min":119,"x_max":1604,"o":"m 846 714 l 406 -7 l 301 -7 l 192 867 q 163 935 186 917 q 119 956 139 954 l 126 983 q 231 981 167 982 q 360 979 296 979 q 474 981 422 979 q 560 983 525 982 l 553 956 q 495 932 511 953 q 483 839 479 911 l 547 249 l 486 182 l 839 751 l 846 714 m 1390 801 q 1419 892 1424 860 q 1383 938 1415 924 q 1296 956 1350 951 l 1303 983 q 1353 981 1317 982 q 1433 980 1390 981 q 1500 979 1475 979 q 1556 981 1529 979 q 1604 983 1582 982 l 1597 956 q 1535 931 1564 946 q 1478 883 1507 915 q 1414 790 1449 851 l 960 -7 l 856 -7 l 746 867 q 722 935 740 917 q 688 956 703 954 l 694 983 q 793 981 732 982 q 914 979 854 979 q 1052 981 989 979 q 1156 983 1115 982 l 1149 956 q 1056 932 1082 953 q 1038 839 1031 911 l 1101 249 l 1038 186 l 1390 801 m 921 1140 q 777 1099 857 1118 q 608 1065 697 1081 l 601 1085 q 837 1190 728 1125 q 1011 1324 946 1254 l 1036 1324 q 1105 1186 1063 1243 q 1229 1085 1147 1129 l 1224 1065 q 1101 1088 1154 1076 q 1006 1113 1049 1100 q 921 1140 963 1125 z "},"Ẅ":{"ha":1438,"x_min":119,"x_max":1604,"o":"m 846 714 l 406 -7 l 301 -7 l 192 867 q 163 935 186 917 q 119 956 139 954 l 126 983 q 231 981 167 982 q 360 979 296 979 q 474 981 422 979 q 560 983 525 982 l 553 956 q 495 932 511 953 q 483 839 479 911 l 547 249 l 486 182 l 839 751 l 846 714 m 1390 801 q 1419 892 1424 860 q 1383 938 1415 924 q 1296 956 1350 951 l 1303 983 q 1353 981 1317 982 q 1433 980 1390 981 q 1500 979 1475 979 q 1556 981 1529 979 q 1604 983 1582 982 l 1597 956 q 1535 931 1564 946 q 1478 883 1507 915 q 1414 790 1449 851 l 960 -7 l 856 -7 l 746 867 q 722 935 740 917 q 688 956 703 954 l 694 983 q 793 981 732 982 q 914 979 854 979 q 1052 981 989 979 q 1156 983 1115 982 l 1149 956 q 1056 932 1082 953 q 1038 839 1031 911 l 1101 249 l 1038 186 l 1390 801 m 639 1160 q 681 1264 639 1232 q 776 1296 724 1296 q 856 1266 832 1296 q 881 1188 881 1236 q 860 1110 881 1140 q 808 1067 839 1081 q 742 1054 776 1054 q 663 1083 686 1054 q 639 1160 639 1113 m 997 1160 q 1040 1264 997 1232 q 1135 1296 1082 1296 q 1215 1266 1190 1296 q 1239 1188 1239 1236 q 1218 1110 1239 1140 q 1166 1067 1197 1081 q 1100 1054 1135 1054 q 1021 1083 1044 1054 q 997 1160 997 1113 z "},"Ẁ":{"ha":1438,"x_min":119,"x_max":1604,"o":"m 846 714 l 406 -7 l 301 -7 l 192 867 q 163 935 186 917 q 119 956 139 954 l 126 983 q 231 981 167 982 q 360 979 296 979 q 474 981 422 979 q 560 983 525 982 l 553 956 q 495 932 511 953 q 483 839 479 911 l 547 249 l 486 182 l 839 751 l 846 714 m 1390 801 q 1419 892 1424 860 q 1383 938 1415 924 q 1296 956 1350 951 l 1303 983 q 1353 981 1317 982 q 1433 980 1390 981 q 1500 979 1475 979 q 1556 981 1529 979 q 1604 983 1582 982 l 1597 956 q 1535 931 1564 946 q 1478 883 1507 915 q 1414 790 1449 851 l 960 -7 l 856 -7 l 746 867 q 722 935 740 917 q 688 956 703 954 l 694 983 q 793 981 732 982 q 914 979 854 979 q 1052 981 989 979 q 1156 983 1115 982 l 1149 956 q 1056 932 1082 953 q 1038 839 1031 911 l 1101 249 l 1038 186 l 1390 801 m 1000 1068 q 865 1102 919 1093 q 774 1117 811 1111 q 706 1139 738 1122 q 657 1191 671 1157 q 660 1258 643 1225 q 719 1306 679 1297 q 790 1300 760 1315 q 849 1256 825 1285 q 908 1185 872 1228 q 1010 1085 943 1143 l 1000 1068 z "},"X":{"ha":1068,"x_min":-62,"x_max":1169,"o":"m 750 146 q 768 106 754 119 q 808 93 782 93 q 856 110 836 93 q 890 165 876 126 l 914 236 l 942 236 l 906 129 q 823 14 875 47 q 697 -19 771 -19 q 565 6 614 -19 q 493 79 517 31 q 460 197 469 128 l 379 844 q 362 888 375 875 q 324 900 349 900 q 276 881 297 900 q 239 818 254 861 l 215 747 l 188 747 l 224 854 q 312 969 254 936 q 450 1003 369 1003 q 569 980 524 1003 q 639 909 614 957 q 672 786 664 861 l 750 146 m 1013 979 q 967 970 990 979 q 921 944 944 961 q 829 836 882 911 q 720 648 776 761 q 614 386 664 535 l 629 492 q 704 672 660 582 q 799 837 749 763 q 893 953 849 911 q 1019 1003 956 1003 q 1129 956 1089 1003 q 1169 842 1169 910 q 1125 724 1169 768 q 1018 681 1081 681 q 935 711 967 681 q 904 797 904 742 q 944 907 904 860 q 1049 968 985 954 q 1035 976 1043 974 q 1013 979 1026 979 m 94 4 q 142 14 119 4 q 189 39 165 24 q 289 138 231 69 q 409 310 347 206 q 524 550 471 414 l 503 444 q 423 283 471 364 q 322 135 375 201 q 218 26 269 68 q 88 -19 156 -19 q -22 27 19 -19 q -62 142 -62 74 q -18 259 -62 215 q 89 303 26 303 q 172 272 142 303 q 203 186 203 242 q 163 77 203 124 q 58 15 122 31 q 72 7 64 10 q 94 4 81 4 z "},"Y":{"ha":1078,"x_min":101,"x_max":1186,"o":"m 586 147 q 583 72 574 97 q 620 39 592 47 q 696 28 649 31 l 689 0 q 612 2 660 1 q 509 3 564 3 q 406 4 454 4 q 263 3 331 4 q 154 0 194 3 l 161 28 q 235 39 208 31 q 276 72 261 47 q 304 147 292 97 l 400 528 l 518 440 l 647 467 l 694 578 l 586 147 m 1017 979 q 974 972 994 979 q 928 946 954 965 q 841 846 893 921 q 736 651 789 771 q 643 375 683 532 l 382 368 q 367 504 376 433 q 342 642 357 575 q 309 765 328 710 q 268 851 290 819 q 218 883 246 883 q 177 862 192 883 q 156 818 163 840 l 132 747 q 117 747 132 747 q 101 747 101 747 l 131 836 q 228 967 163 932 q 365 1003 293 1003 q 528 947 472 1003 q 609 781 583 890 q 653 513 635 671 q 749 748 696 644 q 858 919 801 851 q 931 980 890 957 q 1024 1003 972 1003 q 1142 960 1097 1003 q 1186 854 1186 917 q 1141 748 1186 788 q 1031 708 1096 708 q 941 735 975 708 q 907 811 907 763 q 949 916 907 874 q 1051 968 990 958 q 1037 976 1046 974 q 1017 979 1028 979 z "},"Ý":{"ha":1078,"x_min":101,"x_max":1186,"o":"m 586 147 q 583 72 574 97 q 620 39 592 47 q 696 28 649 31 l 689 0 q 612 2 660 1 q 509 3 564 3 q 406 4 454 4 q 263 3 331 4 q 154 0 194 3 l 161 28 q 235 39 208 31 q 276 72 261 47 q 304 147 292 97 l 400 528 l 518 440 l 647 467 l 694 578 l 586 147 m 1017 979 q 974 972 994 979 q 928 946 954 965 q 841 846 893 921 q 736 651 789 771 q 643 375 683 532 l 382 368 q 367 504 376 433 q 342 642 357 575 q 309 765 328 710 q 268 851 290 819 q 218 883 246 883 q 177 862 192 883 q 156 818 163 840 l 132 747 q 117 747 132 747 q 101 747 101 747 l 131 836 q 228 967 163 932 q 365 1003 293 1003 q 528 947 472 1003 q 609 781 583 890 q 653 513 635 671 q 749 748 696 644 q 858 919 801 851 q 931 980 890 957 q 1024 1003 972 1003 q 1142 960 1097 1003 q 1186 854 1186 917 q 1141 748 1186 788 q 1031 708 1096 708 q 941 735 975 708 q 907 811 907 763 q 949 916 907 874 q 1051 968 990 958 q 1037 976 1046 974 q 1017 979 1028 979 m 657 1089 q 765 1194 724 1147 q 841 1275 807 1240 q 915 1331 875 1310 q 967 1346 939 1343 q 1023 1338 996 1349 q 1065 1299 1050 1328 q 1066 1226 1086 1260 q 1003 1169 1046 1193 q 919 1138 967 1150 q 810 1113 872 1126 q 667 1072 749 1099 l 657 1089 z "},"Ŷ":{"ha":1078,"x_min":101,"x_max":1186,"o":"m 586 147 q 583 72 574 97 q 620 39 592 47 q 696 28 649 31 l 689 0 q 612 2 660 1 q 509 3 564 3 q 406 4 454 4 q 263 3 331 4 q 154 0 194 3 l 161 28 q 235 39 208 31 q 276 72 261 47 q 304 147 292 97 l 400 528 l 518 440 l 647 467 l 694 578 l 586 147 m 1017 979 q 974 972 994 979 q 928 946 954 965 q 841 846 893 921 q 736 651 789 771 q 643 375 683 532 l 382 368 q 367 504 376 433 q 342 642 357 575 q 309 765 328 710 q 268 851 290 819 q 218 883 246 883 q 177 862 192 883 q 156 818 163 840 l 132 747 q 117 747 132 747 q 101 747 101 747 l 131 836 q 228 967 163 932 q 365 1003 293 1003 q 528 947 472 1003 q 609 781 583 890 q 653 513 635 671 q 749 748 696 644 q 858 919 801 851 q 931 980 890 957 q 1024 1003 972 1003 q 1142 960 1097 1003 q 1186 854 1186 917 q 1141 748 1186 788 q 1031 708 1096 708 q 941 735 975 708 q 907 811 907 763 q 949 916 907 874 q 1051 968 990 958 q 1037 976 1046 974 q 1017 979 1028 979 m 681 1144 q 537 1103 617 1122 q 368 1069 457 1085 l 361 1089 q 597 1194 488 1129 q 771 1328 706 1258 l 796 1328 q 865 1190 822 1247 q 989 1089 907 1133 l 983 1069 q 861 1092 914 1081 q 765 1117 808 1104 q 681 1144 722 1129 z "},"Ÿ":{"ha":1078,"x_min":101,"x_max":1186,"o":"m 586 147 q 583 72 574 97 q 620 39 592 47 q 696 28 649 31 l 689 0 q 612 2 660 1 q 509 3 564 3 q 406 4 454 4 q 263 3 331 4 q 154 0 194 3 l 161 28 q 235 39 208 31 q 276 72 261 47 q 304 147 292 97 l 400 528 l 518 440 l 647 467 l 694 578 l 586 147 m 1017 979 q 974 972 994 979 q 928 946 954 965 q 841 846 893 921 q 736 651 789 771 q 643 375 683 532 l 382 368 q 367 504 376 433 q 342 642 357 575 q 309 765 328 710 q 268 851 290 819 q 218 883 246 883 q 177 862 192 883 q 156 818 163 840 l 132 747 q 117 747 132 747 q 101 747 101 747 l 131 836 q 228 967 163 932 q 365 1003 293 1003 q 528 947 472 1003 q 609 781 583 890 q 653 513 635 671 q 749 748 696 644 q 858 919 801 851 q 931 980 890 957 q 1024 1003 972 1003 q 1142 960 1097 1003 q 1186 854 1186 917 q 1141 748 1186 788 q 1031 708 1096 708 q 941 735 975 708 q 907 811 907 763 q 949 916 907 874 q 1051 968 990 958 q 1037 976 1046 974 q 1017 979 1028 979 m 399 1164 q 441 1268 399 1236 q 536 1300 483 1300 q 616 1270 592 1300 q 640 1192 640 1240 q 619 1115 640 1144 q 567 1072 599 1085 q 501 1058 536 1058 q 422 1088 446 1058 q 399 1164 399 1117 m 757 1164 q 799 1268 757 1236 q 894 1300 842 1300 q 974 1270 950 1300 q 999 1192 999 1240 q 978 1115 999 1144 q 926 1072 957 1085 q 860 1058 894 1058 q 781 1088 804 1058 q 757 1164 757 1117 z "},"Ỵ":{"ha":1078,"x_min":101,"x_max":1186,"o":"m 586 147 q 583 72 574 97 q 620 39 592 47 q 696 28 649 31 l 689 0 q 612 2 660 1 q 509 3 564 3 q 406 4 454 4 q 263 3 331 4 q 154 0 194 3 l 161 28 q 235 39 208 31 q 276 72 261 47 q 304 147 292 97 l 400 528 l 518 440 l 647 467 l 694 578 l 586 147 m 1017 979 q 974 972 994 979 q 928 946 954 965 q 841 846 893 921 q 736 651 789 771 q 643 375 683 532 l 382 368 q 367 504 376 433 q 342 642 357 575 q 309 765 328 710 q 268 851 290 819 q 218 883 246 883 q 177 862 192 883 q 156 818 163 840 l 132 747 q 117 747 132 747 q 101 747 101 747 l 131 836 q 228 967 163 932 q 365 1003 293 1003 q 528 947 472 1003 q 609 781 583 890 q 653 513 635 671 q 749 748 696 644 q 858 919 801 851 q 931 980 890 957 q 1024 1003 972 1003 q 1142 960 1097 1003 q 1186 854 1186 917 q 1141 748 1186 788 q 1031 708 1096 708 q 941 735 975 708 q 907 811 907 763 q 949 916 907 874 q 1051 968 990 958 q 1037 976 1046 974 q 1017 979 1028 979 m 364 -265 q 288 -246 314 -265 q 261 -187 261 -226 q 299 -95 261 -128 q 401 -62 336 -62 q 478 -82 451 -62 q 504 -140 504 -101 q 467 -233 504 -200 q 364 -265 429 -265 z "},"Ỳ":{"ha":1078,"x_min":101,"x_max":1186,"o":"m 586 147 q 583 72 574 97 q 620 39 592 47 q 696 28 649 31 l 689 0 q 612 2 660 1 q 509 3 564 3 q 406 4 454 4 q 263 3 331 4 q 154 0 194 3 l 161 28 q 235 39 208 31 q 276 72 261 47 q 304 147 292 97 l 400 528 l 518 440 l 647 467 l 694 578 l 586 147 m 1017 979 q 974 972 994 979 q 928 946 954 965 q 841 846 893 921 q 736 651 789 771 q 643 375 683 532 l 382 368 q 367 504 376 433 q 342 642 357 575 q 309 765 328 710 q 268 851 290 819 q 218 883 246 883 q 177 862 192 883 q 156 818 163 840 l 132 747 q 117 747 132 747 q 101 747 101 747 l 131 836 q 228 967 163 932 q 365 1003 293 1003 q 528 947 472 1003 q 609 781 583 890 q 653 513 635 671 q 749 748 696 644 q 858 919 801 851 q 931 980 890 957 q 1024 1003 972 1003 q 1142 960 1097 1003 q 1186 854 1186 917 q 1141 748 1186 788 q 1031 708 1096 708 q 941 735 975 708 q 907 811 907 763 q 949 916 907 874 q 1051 968 990 958 q 1037 976 1046 974 q 1017 979 1028 979 m 760 1072 q 625 1106 679 1097 q 534 1121 571 1115 q 465 1143 497 1126 q 417 1195 431 1161 q 419 1263 403 1229 q 479 1310 439 1301 q 550 1304 519 1319 q 608 1260 585 1289 q 667 1190 632 1232 q 769 1089 703 1147 l 760 1072 z "},"Ỷ":{"ha":1078,"x_min":101,"x_max":1186,"o":"m 586 147 q 583 72 574 97 q 620 39 592 47 q 696 28 649 31 l 689 0 q 612 2 660 1 q 509 3 564 3 q 406 4 454 4 q 263 3 331 4 q 154 0 194 3 l 161 28 q 235 39 208 31 q 276 72 261 47 q 304 147 292 97 l 400 528 l 518 440 l 647 467 l 694 578 l 586 147 m 1017 979 q 974 972 994 979 q 928 946 954 965 q 841 846 893 921 q 736 651 789 771 q 643 375 683 532 l 382 368 q 367 504 376 433 q 342 642 357 575 q 309 765 328 710 q 268 851 290 819 q 218 883 246 883 q 177 862 192 883 q 156 818 163 840 l 132 747 q 117 747 132 747 q 101 747 101 747 l 131 836 q 228 967 163 932 q 365 1003 293 1003 q 528 947 472 1003 q 609 781 583 890 q 653 513 635 671 q 749 748 696 644 q 858 919 801 851 q 931 980 890 957 q 1024 1003 972 1003 q 1142 960 1097 1003 q 1186 854 1186 917 q 1141 748 1186 788 q 1031 708 1096 708 q 941 735 975 708 q 907 811 907 763 q 949 916 907 874 q 1051 968 990 958 q 1037 976 1046 974 q 1017 979 1028 979 m 667 1026 q 693 1094 674 1069 q 734 1135 713 1118 q 771 1176 756 1153 q 786 1240 786 1199 q 763 1309 786 1289 q 699 1329 739 1329 q 660 1325 676 1329 q 636 1317 643 1321 q 678 1288 663 1307 q 694 1239 694 1268 q 666 1176 694 1200 q 599 1153 638 1153 q 543 1172 564 1153 q 522 1224 522 1192 q 547 1283 522 1258 q 606 1325 571 1308 q 678 1349 639 1340 q 764 1357 718 1357 q 890 1331 842 1357 q 938 1249 938 1306 q 915 1186 938 1208 q 859 1151 893 1164 q 790 1124 825 1138 q 728 1089 754 1111 q 694 1026 701 1067 l 667 1026 z "},"Ỹ":{"ha":1078,"x_min":101,"x_max":1186,"o":"m 586 147 q 583 72 574 97 q 620 39 592 47 q 696 28 649 31 l 689 0 q 612 2 660 1 q 509 3 564 3 q 406 4 454 4 q 263 3 331 4 q 154 0 194 3 l 161 28 q 235 39 208 31 q 276 72 261 47 q 304 147 292 97 l 400 528 l 518 440 l 647 467 l 694 578 l 586 147 m 1017 979 q 974 972 994 979 q 928 946 954 965 q 841 846 893 921 q 736 651 789 771 q 643 375 683 532 l 382 368 q 367 504 376 433 q 342 642 357 575 q 309 765 328 710 q 268 851 290 819 q 218 883 246 883 q 177 862 192 883 q 156 818 163 840 l 132 747 q 117 747 132 747 q 101 747 101 747 l 131 836 q 228 967 163 932 q 365 1003 293 1003 q 528 947 472 1003 q 609 781 583 890 q 653 513 635 671 q 749 748 696 644 q 858 919 801 851 q 931 980 890 957 q 1024 1003 972 1003 q 1142 960 1097 1003 q 1186 854 1186 917 q 1141 748 1186 788 q 1031 708 1096 708 q 941 735 975 708 q 907 811 907 763 q 949 916 907 874 q 1051 968 990 958 q 1037 976 1046 974 q 1017 979 1028 979 m 642 1317 q 732 1301 696 1317 q 796 1266 768 1286 q 852 1231 824 1246 q 921 1215 881 1215 q 981 1234 953 1215 q 1035 1296 1008 1253 l 1060 1289 q 942 1115 1015 1168 q 796 1063 869 1063 q 706 1078 742 1063 q 642 1113 669 1093 q 585 1149 614 1133 q 517 1164 557 1164 q 458 1146 485 1164 q 403 1083 431 1128 l 378 1090 q 495 1264 422 1211 q 642 1317 568 1317 z "},"Z":{"ha":919,"x_min":-50,"x_max":1014,"o":"m 228 481 l 238 508 l 728 508 l 717 481 l 228 481 m 628 300 q 631 313 628 300 q 633 326 633 326 q 730 301 683 319 q 806 249 776 282 q 836 165 836 217 q 776 33 836 85 q 613 -19 715 -19 q 497 -3 547 -19 q 403 34 447 13 q 310 72 358 56 q 197 88 261 88 q 142 82 168 88 q 89 67 117 76 q 22 -1 58 22 q -33 -7 -14 -25 q -31 39 -50 8 q 63 97 -11 69 l 868 889 q 719 774 797 817 q 558 731 640 731 q 463 738 504 731 q 390 756 422 746 q 330 773 357 765 q 276 781 303 781 q 247 774 258 781 q 236 749 236 767 q 258 712 236 729 q 338 683 281 694 q 334 670 338 683 q 331 657 331 657 q 235 683 282 665 q 158 735 188 701 q 128 818 128 768 q 188 951 128 899 q 351 1003 249 1003 q 467 987 417 1003 q 561 949 517 971 q 654 912 606 928 q 767 896 703 896 q 822 901 796 896 q 875 917 847 907 q 942 985 907 961 q 997 990 976 1008 q 994 945 1014 976 q 901 886 975 914 l 96 94 q 246 210 167 167 q 407 253 325 253 q 502 245 461 253 q 576 228 543 238 q 635 210 608 218 q 689 203 663 203 q 718 210 707 203 q 729 235 729 217 q 707 272 729 254 q 628 300 685 289 z "},"Ź":{"ha":919,"x_min":-50,"x_max":1014,"o":"m 228 481 l 238 508 l 728 508 l 717 481 l 228 481 m 628 300 q 631 313 628 300 q 633 326 633 326 q 730 301 683 319 q 806 249 776 282 q 836 165 836 217 q 776 33 836 85 q 613 -19 715 -19 q 497 -3 547 -19 q 403 34 447 13 q 310 72 358 56 q 197 88 261 88 q 142 82 168 88 q 89 67 117 76 q 22 -1 58 22 q -33 -7 -14 -25 q -31 39 -50 8 q 63 97 -11 69 l 868 889 q 719 774 797 817 q 558 731 640 731 q 463 738 504 731 q 390 756 422 746 q 330 773 357 765 q 276 781 303 781 q 247 774 258 781 q 236 749 236 767 q 258 712 236 729 q 338 683 281 694 q 334 670 338 683 q 331 657 331 657 q 235 683 282 665 q 158 735 188 701 q 128 818 128 768 q 188 951 128 899 q 351 1003 249 1003 q 467 987 417 1003 q 561 949 517 971 q 654 912 606 928 q 767 896 703 896 q 822 901 796 896 q 875 917 847 907 q 942 985 907 961 q 997 990 976 1008 q 994 945 1014 976 q 901 886 975 914 l 96 94 q 246 210 167 167 q 407 253 325 253 q 502 245 461 253 q 576 228 543 238 q 635 210 608 218 q 689 203 663 203 q 718 210 707 203 q 729 235 729 217 q 707 272 729 254 q 628 300 685 289 m 578 1089 q 686 1194 644 1147 q 762 1275 728 1240 q 836 1331 796 1310 q 888 1346 860 1343 q 944 1338 917 1349 q 986 1299 971 1328 q 987 1226 1007 1260 q 924 1169 967 1193 q 840 1138 888 1150 q 731 1113 793 1126 q 588 1072 669 1099 l 578 1089 z "},"Ž":{"ha":919,"x_min":-50,"x_max":1035,"o":"m 228 481 l 238 508 l 728 508 l 717 481 l 228 481 m 628 300 q 631 313 628 300 q 633 326 633 326 q 730 301 683 319 q 806 249 776 282 q 836 165 836 217 q 776 33 836 85 q 613 -19 715 -19 q 497 -3 547 -19 q 403 34 447 13 q 310 72 358 56 q 197 88 261 88 q 142 82 168 88 q 89 67 117 76 q 22 -1 58 22 q -33 -7 -14 -25 q -31 39 -50 8 q 63 97 -11 69 l 868 889 q 719 774 797 817 q 558 731 640 731 q 463 738 504 731 q 390 756 422 746 q 330 773 357 765 q 276 781 303 781 q 247 774 258 781 q 236 749 236 767 q 258 712 236 729 q 338 683 281 694 q 334 670 338 683 q 331 657 331 657 q 235 683 282 665 q 158 735 188 701 q 128 818 128 768 q 188 951 128 899 q 351 1003 249 1003 q 467 987 417 1003 q 561 949 517 971 q 654 912 606 928 q 767 896 703 896 q 822 901 796 896 q 875 917 847 907 q 942 985 907 961 q 997 990 976 1008 q 994 945 1014 976 q 901 886 975 914 l 96 94 q 246 210 167 167 q 407 253 325 253 q 502 245 461 253 q 576 228 543 238 q 635 210 608 218 q 689 203 663 203 q 718 210 707 203 q 729 235 729 217 q 707 272 729 254 q 628 300 685 289 m 715 1239 q 860 1281 781 1261 q 1028 1314 939 1300 l 1035 1294 q 799 1190 908 1256 q 625 1056 690 1125 l 600 1056 q 531 1194 574 1138 q 407 1294 489 1250 l 413 1314 q 535 1291 482 1303 q 631 1267 588 1279 q 715 1239 675 1254 z "},"Ż":{"ha":919,"x_min":-50,"x_max":1014,"o":"m 228 481 l 238 508 l 728 508 l 717 481 l 228 481 m 628 300 q 631 313 628 300 q 633 326 633 326 q 730 301 683 319 q 806 249 776 282 q 836 165 836 217 q 776 33 836 85 q 613 -19 715 -19 q 497 -3 547 -19 q 403 34 447 13 q 310 72 358 56 q 197 88 261 88 q 142 82 168 88 q 89 67 117 76 q 22 -1 58 22 q -33 -7 -14 -25 q -31 39 -50 8 q 63 97 -11 69 l 868 889 q 719 774 797 817 q 558 731 640 731 q 463 738 504 731 q 390 756 422 746 q 330 773 357 765 q 276 781 303 781 q 247 774 258 781 q 236 749 236 767 q 258 712 236 729 q 338 683 281 694 q 334 670 338 683 q 331 657 331 657 q 235 683 282 665 q 158 735 188 701 q 128 818 128 768 q 188 951 128 899 q 351 1003 249 1003 q 467 987 417 1003 q 561 949 517 971 q 654 912 606 928 q 767 896 703 896 q 822 901 796 896 q 875 917 847 907 q 942 985 907 961 q 997 990 976 1008 q 994 945 1014 976 q 901 886 975 914 l 96 94 q 246 210 167 167 q 407 253 325 253 q 502 245 461 253 q 576 228 543 238 q 635 210 608 218 q 689 203 663 203 q 718 210 707 203 q 729 235 729 217 q 707 272 729 254 q 628 300 685 289 m 474 1147 q 522 1258 474 1222 q 643 1294 571 1294 q 735 1271 704 1294 q 767 1200 767 1247 q 717 1095 767 1135 q 596 1056 668 1056 q 505 1079 536 1056 q 474 1147 474 1103 z "},"a":{"ha":808,"x_min":-10,"x_max":792,"o":"m 283 75 q 313 86 297 75 q 344 124 328 97 q 381 200 361 151 q 422 325 400 249 l 386 174 q 330 58 364 100 q 253 -2 296 15 q 163 -19 211 -19 q 33 26 75 -19 q -10 154 -10 71 q 17 318 -10 235 q 91 477 44 401 q 195 612 138 553 q 315 706 253 671 q 436 740 378 740 q 505 713 481 740 q 522 614 529 685 l 507 606 q 507 656 514 640 q 483 672 500 672 q 430 642 460 672 q 369 560 400 613 q 310 441 338 508 q 267 299 283 374 q 251 149 251 224 q 258 92 251 110 q 283 75 265 75 m 540 719 q 676 726 617 721 q 792 740 735 731 l 604 118 q 598 83 597 96 q 605 65 599 69 q 621 60 611 60 q 653 74 633 60 q 694 147 672 89 l 724 225 l 750 225 l 715 124 q 663 35 696 65 q 592 -8 631 4 q 517 -19 554 -19 q 396 29 432 -19 q 373 106 375 58 q 390 219 371 153 l 540 719 z "}}}
